{
.appVersion = "895";
copyright = "Copyright 2016 Jeremy Tribby. SIL OFL License v1.1.";
date = "2016-07-12 00:27:02 +0000";
designer = "Jeremy Tribby";
designerURL = "http://tribby.com/";
familyName = Barlow;
featurePrefixes = (
{
automatic = 1;
code = "languagesystem DFLT dflt;\012";
name = Languagesystems;
}
);
features = (
{
automatic = 1;
code = "sub hyphen hyphen by hyphen_hyphen.liga;\012";
name = liga;
}
);
fontMaster = (
{
alignmentZones = (
"{800, 16}",
"{700, 10}",
"{500, 6}",
"{0, -10}",
"{-200, -3}"
);
ascender = 800;
capHeight = 700;
customParameters = (
{
name = paramArea;
value = "488";
},
{
name = paramDepth;
value = "16";
},
{
name = paramOver;
value = "0";
}
);
descender = -200;
horizontalStems = (
22,
22
);
id = "262880E7-CFE1-4BDA-902E-E24798F3240A";
userData = {
GSCornerRadius = 8;
GSOffsetHorizontal = 100;
GSOffsetMakeStroke = 1;
GSOffsetVertical = 90;
noodleExtremesAndInflections = 1;
noodleRemoveOverlap = 1;
noodleThickness = "22.0";
};
verticalStems = (
21,
21
);
weight = Light;
weightValue = 23;
xHeight = 500;
},
{
ascender = 800;
capHeight = 700;
customParameters = (
{
name = paramArea;
value = "488";
},
{
name = paramDepth;
value = "16";
},
{
name = paramOver;
value = "0";
}
);
descender = -200;
horizontalStems = (
96,
96
);
id = "BFB8CE7D-EB78-4D14-82B8-6F5DF8ED4559";
verticalStems = (
90,
90
);
weightValue = 95;
xHeight = 500;
},
{
ascender = 800;
capHeight = 700;
customParameters = (
{
name = paramArea;
value = "488";
},
{
name = paramDepth;
value = "16";
},
{
name = paramOver;
value = "0";
}
);
descender = -200;
horizontalStems = (
188,
188
);
id = "4E2227F3-52E4-4048-A8EE-327B486EF0A4";
userData = {
GSCornerRadius = 8;
GSOffsetHorizontal = 60;
GSOffsetMakeStroke = 1;
GSOffsetVertical = 60;
noodleExtremesAndInflections = 1;
noodleRemoveOverlap = 1;
noodleThickness = "22.0";
};
verticalStems = (
170,
161
);
weight = Bold;
weightValue = 188;
xHeight = 500;
}
);
glyphs = (
{
glyphname = A;
lastChange = "2016-11-12 09:55:46 +0000";
layers = (
{
layerId = "262880E7-CFE1-4BDA-902E-E24798F3240A";
paths = (
{
closed = 1;
nodes = (
"53 0 LINE",
"243 658 LINE",
"433 0 LINE",
"455 0 LINE",
"254 700 LINE",
"231 700 LINE",
"30 0 LINE"
);
},
{
closed = 1;
nodes = (
"400 145 LINE",
"400 166 LINE",
"90 166 LINE",
"90 145 LINE"
);
}
);
width = 485;
},
{
layerId = "4E2227F3-52E4-4048-A8EE-327B486EF0A4";
paths = (
{
closed = 1;
nodes = (
"194 0 LINE",
"280 449 LINE",
"352 0 LINE",
"545 0 LINE",
"381 700 LINE",
"170 700 LINE",
"6 0 LINE"
);
},
{
closed = 1;
nodes = (
"413 100 LINE",
"413 244 LINE",
"134 244 LINE",
"134 100 LINE"
);
}
);
width = 551;
},
{
associatedMasterId = "4E2227F3-52E4-4048-A8EE-327B486EF0A4";
layerId = "B2AD9D15-068E-4289-9788-E632C141076D";
name = "Medium{85,100}";
paths = (
{
closed = 1;
nodes = (
"85 0 LINE",
"236 579 LINE",
"382 0 LINE",
"466 0 LINE",
"279 700 LINE",
"187 700 LINE",
"0 0 LINE"
);
},
{
closed = 1;
nodes = (
"384 122 LINE",
"384 205 LINE",
"86 205 LINE",
"86 122 LINE"
);
}
);
width = 466;
},
{
associatedMasterId = "0AA1BC64-CAAD-4CC7-A9F9-D02EEAE6C823";
layerId = "392ABF2D-27FB-46DB-A0B0-809F0A871CEB";
name = "Medium{85,100}";
paths = (
{
closed = 1;
nodes = (
"85 0 LINE",
"236 579 LINE",
"382 0 LINE",
"466 0 LINE",
"279 700 LINE",
"187 700 LINE",
"0 0 LINE"
);
},
{
closed = 1;
nodes = (
"384 122 LINE",
"384 205 LINE",
"86 205 LINE",
"86 122 LINE"
);
}
);
width = 466;
},
{
layerId = "BFB8CE7D-EB78-4D14-82B8-6F5DF8ED4559";
paths = (
{
closed = 1;
nodes = (
"107 0 LINE",
"251 566 LINE",
"390 0 LINE",
"485 0 LINE",
"300 700 LINE",
"196 700 LINE",
"12 0 LINE"
);
},
{
closed = 1;
nodes = (
"398 120 LINE",
"398 209 LINE",
"102 209 LINE",
"102 120 LINE"
);
}
);
width = 497;
}
);
leftKerningGroup = A;
rightKerningGroup = A;
unicode = 0041;
},
{
color = 4;
glyphname = B;
lastChange = "2016-11-12 09:55:46 +0000";
layers = (
{
layerId = "262880E7-CFE1-4BDA-902E-E24798F3240A";
paths = (
{
closed = 1;
nodes = (
"142 679 LINE",
"300 679 LINE SMOOTH",
"397 679 OFFCURVE",
"461 617 OFFCURVE",
"461 523 CURVE SMOOTH",
"461 432 OFFCURVE",
"397 372 OFFCURVE",
"300 372 CURVE SMOOTH",
"142 372 LINE"
);
},
{
closed = 1;
nodes = (
"300 351 LINE SMOOTH",
"410 351 OFFCURVE",
"483 420 OFFCURVE",
"483 523 CURVE SMOOTH",
"483 629 OFFCURVE",
"410 700 OFFCURVE",
"300 700 CURVE SMOOTH",
"120 700 LINE",
"120 351 LINE"
);
},
{
closed = 1;
nodes = (
"142 351 LINE",
"300 351 LINE SMOOTH",
"397 351 OFFCURVE",
"461 284 OFFCURVE",
"461 186 CURVE SMOOTH",
"461 88 OFFCURVE",
"397 22 OFFCURVE",
"300 22 CURVE SMOOTH",
"142 22 LINE"
);
},
{
closed = 1;
nodes = (
"300 0 LINE SMOOTH",
"410 0 OFFCURVE",
"483 74 OFFCURVE",
"483 186 CURVE SMOOTH",
"483 298 OFFCURVE",
"410 372 OFFCURVE",
"300 372 CURVE SMOOTH",
"120 372 LINE",
"120 0 LINE"
);
}
);
width = 533;
},
{
layerId = "4E2227F3-52E4-4048-A8EE-327B486EF0A4";
paths = (
{
closed = 1;
nodes = (
"212 530 LINE",
"242 530 LINE",
"269 530 OFFCURVE",
"287 512 OFFCURVE",
"287 479 CURVE SMOOTH",
"287 446 OFFCURVE",
"269 425 OFFCURVE",
"242 425 CURVE",
"212 425 LINE"
);
},
{
closed = 1;
nodes = (
"196 312 LINE SMOOTH",
"384 312 OFFCURVE",
"475 367 OFFCURVE",
"475 503 CURVE SMOOTH",
"475 640 OFFCURVE",
"379 700 OFFCURVE",
"234 700 CURVE",
"24 700 LINE",
"24 312 LINE"
);
},
{
closed = 1;
nodes = (
"212 286 LINE",
"249 286 LINE SMOOTH",
"280 286 OFFCURVE",
"300 260 OFFCURVE",
"300 225 CURVE SMOOTH",
"300 190 OFFCURVE",
"279 170 OFFCURVE",
"248 170 CURVE SMOOTH",
"212 170 LINE"
);
},
{
closed = 1;
nodes = (
"263 0 LINE SMOOTH",
"388 0 OFFCURVE",
"488 63 OFFCURVE",
"488 204 CURVE SMOOTH",
"488 355 OFFCURVE",
"326 411 OFFCURVE",
"196 411 CURVE",
"24 411 LINE",
"24 0 LINE"
);
}
);
width = 498;
},
{
associatedMasterId = "0AA1BC64-CAAD-4CC7-A9F9-D02EEAE6C823";
layerId = "94AA6E7C-D693-4B18-B278-CCD1343B6B7A";
name = "DemiBold{110,100}";
paths = (
{
closed = 1;
nodes = (
"160 603 LINE",
"254 603 LINE SMOOTH",
"315 603 OFFCURVE",
"353 565 OFFCURVE",
"353 503 CURVE SMOOTH",
"353 441 OFFCURVE",
"315 403 OFFCURVE",
"254 403 CURVE SMOOTH",
"160 403 LINE"
);
},
{
closed = 1;
nodes = (
"252 324 LINE SMOOTH",
"381 324 OFFCURVE",
"460 395 OFFCURVE",
"460 512 CURVE SMOOTH",
"460 629 OFFCURVE",
"379 700 OFFCURVE",
"246 700 CURVE SMOOTH",
"50 700 LINE",
"50 324 LINE"
);
},
{
closed = 1;
nodes = (
"160 307 LINE",
"254 307 LINE SMOOTH",
"318 307 OFFCURVE",
"357 268 OFFCURVE",
"357 204 CURVE SMOOTH",
"357 138 OFFCURVE",
"318 98 OFFCURVE",
"254 98 CURVE SMOOTH",
"160 98 LINE"
);
},
{
closed = 1;
nodes = (
"262 0 LINE SMOOTH",
"389 0 OFFCURVE",
"467 74 OFFCURVE",
"467 195 CURVE SMOOTH",
"467 320 OFFCURVE",
"386 397 OFFCURVE",
"254 397 CURVE SMOOTH",
"50 397 LINE",
"50 0 LINE"
);
}
);
width = 496;
},
{
layerId = "BFB8CE7D-EB78-4D14-82B8-6F5DF8ED4559";
paths = (
{
closed = 1;
nodes = (
"143 612 LINE",
"248 612 LINE SMOOTH",
"315 612 OFFCURVE",
"358 570 OFFCURVE",
"358 504 CURVE SMOOTH",
"358 439 OFFCURVE",
"315 398 OFFCURVE",
"248 398 CURVE SMOOTH",
"143 398 LINE"
);
},
{
closed = 1;
nodes = (
"246 329 LINE SMOOTH",
"372 329 OFFCURVE",
"450 399 OFFCURVE",
"450 514 CURVE SMOOTH",
"450 629 OFFCURVE",
"370 700 OFFCURVE",
"241 700 CURVE SMOOTH",
"48 700 LINE",
"48 329 LINE"
);
},
{
closed = 1;
nodes = (
"143 315 LINE",
"248 315 LINE SMOOTH",
"318 315 OFFCURVE",
"361 271 OFFCURVE",
"361 203 CURVE SMOOTH",
"361 133 OFFCURVE",
"318 89 OFFCURVE",
"248 89 CURVE SMOOTH",
"143 89 LINE"
);
},
{
closed = 1;
nodes = (
"255 0 LINE SMOOTH",
"379 0 OFFCURVE",
"456 74 OFFCURVE",
"456 193 CURVE SMOOTH",
"456 316 OFFCURVE",
"376 393 OFFCURVE",
"248 393 CURVE SMOOTH",
"48 393 LINE",
"48 0 LINE"
);
}
);
width = 476;
}
);
unicode = 0042;
},
{
color = 4;
glyphname = C;
lastChange = "2016-11-12 09:55:46 +0000";
layers = (
{
layerId = "262880E7-CFE1-4BDA-902E-E24798F3240A";
paths = (
{
closed = 1;
nodes = (
"357 -9 OFFCURVE",
"426 56 OFFCURVE",
"426 154 CURVE SMOOTH",
"426 179 LINE",
"404 179 LINE",
"404 152 LINE SMOOTH",
"404 68 OFFCURVE",
"344 12 OFFCURVE",
"253 12 CURVE SMOOTH",
"162 12 OFFCURVE",
"102 68 OFFCURVE",
"102 152 CURVE SMOOTH",
"102 548 LINE SMOOTH",
"102 632 OFFCURVE",
"162 688 OFFCURVE",
"253 688 CURVE SMOOTH",
"344 688 OFFCURVE",
"404 632 OFFCURVE",
"404 548 CURVE SMOOTH",
"404 520 LINE",
"426 520 LINE",
"426 546 LINE SMOOTH",
"426 644 OFFCURVE",
"357 709 OFFCURVE",
"253 709 CURVE SMOOTH",
"149 709 OFFCURVE",
"80 644 OFFCURVE",
"80 546 CURVE SMOOTH",
"80 154 LINE SMOOTH",
"80 56 OFFCURVE",
"149 -9 OFFCURVE",
"253 -9 CURVE SMOOTH"
);
}
);
width = 476;
},
{
layerId = "4E2227F3-52E4-4048-A8EE-327B486EF0A4";
paths = (
{
closed = 1;
nodes = (
"387 -11 OFFCURVE",
"480 75 OFFCURVE",
"480 205 CURVE SMOOTH",
"480 269 LINE",
"292 269 LINE",
"292 194 LINE SMOOTH",
"292 168 OFFCURVE",
"274 150 OFFCURVE",
"248 150 CURVE SMOOTH",
"222 150 OFFCURVE",
"204 168 OFFCURVE",
"204 194 CURVE SMOOTH",
"204 508 LINE SMOOTH",
"204 534 OFFCURVE",
"222 552 OFFCURVE",
"248 552 CURVE SMOOTH",
"274 552 OFFCURVE",
"292 534 OFFCURVE",
"292 508 CURVE SMOOTH",
"292 431 LINE",
"480 431 LINE",
"480 497 LINE SMOOTH",
"480 627 OFFCURVE",
"387 713 OFFCURVE",
"248 713 CURVE SMOOTH",
"109 713 OFFCURVE",
"16 627 OFFCURVE",
"16 497 CURVE SMOOTH",
"16 205 LINE SMOOTH",
"16 75 OFFCURVE",
"109 -11 OFFCURVE",
"248 -11 CURVE SMOOTH"
);
}
);
width = 490;
},
{
layerId = "BFB8CE7D-EB78-4D14-82B8-6F5DF8ED4559";
paths = (
{
closed = 1;
nodes = (
"350 -10 OFFCURVE",
"430 64 OFFCURVE",
"430 176 CURVE SMOOTH",
"430 218 LINE",
"335 218 LINE",
"335 178 LINE SMOOTH",
"335 120 OFFCURVE",
"293 80 OFFCURVE",
"231 80 CURVE SMOOTH",
"168 80 OFFCURVE",
"127 120 OFFCURVE",
"127 178 CURVE SMOOTH",
"127 523 LINE SMOOTH",
"127 581 OFFCURVE",
"168 621 OFFCURVE",
"231 621 CURVE SMOOTH",
"293 621 OFFCURVE",
"335 581 OFFCURVE",
"335 523 CURVE SMOOTH",
"335 481 LINE",
"430 481 LINE",
"430 525 LINE SMOOTH",
"430 637 OFFCURVE",
"350 711 OFFCURVE",
"231 711 CURVE SMOOTH",
"112 711 OFFCURVE",
"32 637 OFFCURVE",
"32 525 CURVE SMOOTH",
"32 176 LINE SMOOTH",
"32 64 OFFCURVE",
"112 -10 OFFCURVE",
"231 -10 CURVE SMOOTH"
);
}
);
width = 450;
}
);
leftKerningGroup = C;
rightKerningGroup = C;
unicode = 0043;
},
{
color = 4;
glyphname = D;
lastChange = "2016-11-12 09:55:46 +0000";
layers = (
{
layerId = "262880E7-CFE1-4BDA-902E-E24798F3240A";
paths = (
{
closed = 1;
nodes = (
"271 0 LINE SMOOTH",
"378 0 OFFCURVE",
"444 68 OFFCURVE",
"444 180 CURVE SMOOTH",
"444 520 LINE SMOOTH",
"444 632 OFFCURVE",
"378 700 OFFCURVE",
"271 700 CURVE SMOOTH",
"100 700 LINE",
"100 0 LINE"
);
},
{
closed = 1;
nodes = (
"122 679 LINE",
"273 679 LINE SMOOTH",
"365 679 OFFCURVE",
"422 619 OFFCURVE",
"422 520 CURVE SMOOTH",
"422 179 LINE SMOOTH",
"422 81 OFFCURVE",
"365 21 OFFCURVE",
"273 21 CURVE SMOOTH",
"122 21 LINE"
);
}
);
width = 534;
},
{
layerId = "4E2227F3-52E4-4048-A8EE-327B486EF0A4";
paths = (
{
closed = 1;
nodes = (
"255 0 LINE SMOOTH",
"388 0 OFFCURVE",
"480 80 OFFCURVE",
"480 200 CURVE SMOOTH",
"480 500 LINE SMOOTH",
"480 620 OFFCURVE",
"388 700 OFFCURVE",
"255 700 CURVE SMOOTH",
"20 700 LINE",
"20 0 LINE"
);
},
{
closed = 1;
nodes = (
"208 530 LINE",
"240 530 LINE SMOOTH",
"271 530 OFFCURVE",
"292 510 OFFCURVE",
"292 479 CURVE",
"292 222 LINE",
"290 192 OFFCURVE",
"269 172 OFFCURVE",
"240 171 CURVE SMOOTH",
"208 170 LINE"
);
}
);
width = 498;
},
{
layerId = "BFB8CE7D-EB78-4D14-82B8-6F5DF8ED4559";
paths = (
{
closed = 1;
nodes = (
"239 0 LINE SMOOTH",
"357 0 OFFCURVE",
"435 73 OFFCURVE",
"435 189 CURVE SMOOTH",
"435 511 LINE SMOOTH",
"435 627 OFFCURVE",
"357 700 OFFCURVE",
"239 700 CURVE SMOOTH",
"40 700 LINE",
"40 0 LINE"
);
},
{
closed = 1;
nodes = (
"135 610 LINE",
"234 610 LINE SMOOTH",
"299 610 OFFCURVE",
"340 567 OFFCURVE",
"340 498 CURVE SMOOTH",
"340 202 LINE SMOOTH",
"340 133 OFFCURVE",
"298 90 OFFCURVE",
"234 90 CURVE SMOOTH",
"135 90 LINE"
);
}
);
width = 471;
}
);
rightKerningGroup = D;
unicode = 0044;
},
{
color = 4;
glyphname = E;
lastChange = "2016-11-12 09:55:46 +0000";
layers = (
{
layerId = "262880E7-CFE1-4BDA-902E-E24798F3240A";
paths = (
{
closed = 1;
nodes = (
"442 0 LINE",
"442 21 LINE",
"122 21 LINE",
"122 679 LINE",
"442 679 LINE",
"442 700 LINE",
"100 700 LINE",
"100 0 LINE"
);
},
{
closed = 1;
nodes = (
"345 340 LINE",
"345 361 LINE",
"111 361 LINE",
"111 340 LINE"
);
}
);
width = 492;
},
{
layerId = "4E2227F3-52E4-4048-A8EE-327B486EF0A4";
paths = (
{
closed = 1;
nodes = (
"455 0 LINE",
"455 170 LINE",
"208 170 LINE",
"208 530 LINE",
"455 530 LINE",
"455 700 LINE",
"20 700 LINE",
"20 0 LINE"
);
},
{
closed = 1;
nodes = (
"356 265 LINE",
"356 435 LINE",
"96 435 LINE",
"96 265 LINE"
);
}
);
width = 465;
},
{
layerId = "BFB8CE7D-EB78-4D14-82B8-6F5DF8ED4559";
paths = (
{
closed = 1;
nodes = (
"423 0 LINE",
"423 90 LINE",
"135 90 LINE",
"135 610 LINE",
"423 610 LINE",
"423 700 LINE",
"40 700 LINE",
"40 0 LINE"
);
},
{
closed = 1;
nodes = (
"325 307 LINE",
"325 397 LINE",
"79 397 LINE",
"79 307 LINE"
);
}
);
width = 443;
}
);
unicode = 0045;
},
{
color = 4;
glyphname = F;
lastChange = "2016-11-12 09:55:46 +0000";
layers = (
{
layerId = "262880E7-CFE1-4BDA-902E-E24798F3240A";
paths = (
{
closed = 1;
nodes = (
"122 0 LINE",
"122 679 LINE",
"441 679 LINE",
"441 700 LINE",
"100 700 LINE",
"100 0 LINE"
);
},
{
closed = 1;
nodes = (
"344 340 LINE",
"344 361 LINE",
"111 361 LINE",
"111 340 LINE"
);
}
);
width = 481;
},
{
layerId = "4E2227F3-52E4-4048-A8EE-327B486EF0A4";
paths = (
{
closed = 1;
nodes = (
"208 0 LINE",
"208 530 LINE",
"455 530 LINE",
"455 700 LINE",
"20 700 LINE",
"20 0 LINE"
);
},
{
closed = 1;
nodes = (
"356 265 LINE",
"356 435 LINE",
"96 435 LINE",
"96 265 LINE"
);
}
);
width = 463;
},
{
layerId = "BFB8CE7D-EB78-4D14-82B8-6F5DF8ED4559";
paths = (
{
closed = 1;
nodes = (
"135 0 LINE",
"135 610 LINE",
"422 610 LINE",
"422 700 LINE",
"40 700 LINE",
"40 0 LINE"
);
},
{
closed = 1;
nodes = (
"324 307 LINE",
"324 397 LINE",
"79 397 LINE",
"79 307 LINE"
);
}
);
width = 438;
}
);
unicode = 0046;
},
{
color = 4;
glyphname = G;
lastChange = "2016-11-12 09:55:46 +0000";
layers = (
{
layerId = "262880E7-CFE1-4BDA-902E-E24798F3240A";
paths = (
{
closed = 1;
nodes = (
"357 -9 OFFCURVE",
"426 56 OFFCURVE",
"426 154 CURVE SMOOTH",
"426 361 LINE",
"262 361 LINE",
"262 340 LINE",
"404 340 LINE",
"404 152 LINE SMOOTH",
"404 68 OFFCURVE",
"344 12 OFFCURVE",
"253 12 CURVE SMOOTH",
"162 12 OFFCURVE",
"102 68 OFFCURVE",
"102 152 CURVE SMOOTH",
"102 548 LINE SMOOTH",
"102 632 OFFCURVE",
"162 688 OFFCURVE",
"253 688 CURVE SMOOTH",
"344 688 OFFCURVE",
"404 632 OFFCURVE",
"404 548 CURVE SMOOTH",
"404 500 LINE",
"426 500 LINE",
"426 546 LINE SMOOTH",
"426 644 OFFCURVE",
"357 709 OFFCURVE",
"253 709 CURVE SMOOTH",
"149 709 OFFCURVE",
"80 644 OFFCURVE",
"80 546 CURVE SMOOTH",
"80 154 LINE SMOOTH",
"80 56 OFFCURVE",
"149 -9 OFFCURVE",
"253 -9 CURVE SMOOTH"
);
}
);
width = 506;
},
{
layerId = "4E2227F3-52E4-4048-A8EE-327B486EF0A4";
paths = (
{
closed = 1;
nodes = (
"384 -11 OFFCURVE",
"476 72 OFFCURVE",
"476 196 CURVE SMOOTH",
"476 380 LINE",
"248 380 LINE",
"248 271 LINE",
"288 271 LINE",
"288 192 LINE SMOOTH",
"288 167 OFFCURVE",
"271 150 OFFCURVE",
"246 150 CURVE SMOOTH",
"221 150 OFFCURVE",
"204 167 OFFCURVE",
"204 192 CURVE SMOOTH",
"204 509 LINE SMOOTH",
"204 534 OFFCURVE",
"221 551 OFFCURVE",
"246 551 CURVE SMOOTH",
"271 551 OFFCURVE",
"288 534 OFFCURVE",
"288 509 CURVE SMOOTH",
"288 430 LINE",
"476 430 LINE",
"476 503 LINE SMOOTH",
"476 628 OFFCURVE",
"384 712 OFFCURVE",
"246 712 CURVE SMOOTH",
"108 712 OFFCURVE",
"16 629 OFFCURVE",
"16 505 CURVE SMOOTH",
"16 196 LINE SMOOTH",
"16 72 OFFCURVE",
"108 -11 OFFCURVE",
"246 -11 CURVE SMOOTH"
);
}
);
width = 492;
},
{
associatedMasterId = "0AA1BC64-CAAD-4CC7-A9F9-D02EEAE6C823";
layerId = "98E41EC4-3BFB-4636-B18B-E84F41E284F1";
name = "DemiBold{110,100}";
paths = (
{
closed = 1;
nodes = (
"367 -10 OFFCURVE",
"448 63 OFFCURVE",
"448 172 CURVE SMOOTH",
"448 371 LINE",
"250 371 LINE",
"250 284 LINE",
"338 284 LINE",
"338 174 LINE SMOOTH",
"338 121 OFFCURVE",
"301 86 OFFCURVE",
"245 86 CURVE SMOOTH",
"188 86 OFFCURVE",
"151 121 OFFCURVE",
"151 174 CURVE SMOOTH",
"151 526 LINE SMOOTH",
"151 579 OFFCURVE",
"188 615 OFFCURVE",
"245 615 CURVE SMOOTH",
"301 615 OFFCURVE",
"338 579 OFFCURVE",
"338 526 CURVE SMOOTH",
"338 463 LINE",
"448 463 LINE",
"448 528 LINE SMOOTH",
"448 638 OFFCURVE",
"367 711 OFFCURVE",
"245 711 CURVE SMOOTH",
"123 711 OFFCURVE",
"42 638 OFFCURVE",
"42 528 CURVE SMOOTH",
"42 172 LINE SMOOTH",
"42 63 OFFCURVE",
"123 -10 OFFCURVE",
"245 -10 CURVE SMOOTH"
);
}
);
width = 489;
},
{
layerId = "BFB8CE7D-EB78-4D14-82B8-6F5DF8ED4559";
paths = (
{
closed = 1;
nodes = (
"348 -10 OFFCURVE",
"427 62 OFFCURVE",
"427 169 CURVE SMOOTH",
"427 376 LINE",
"235 376 LINE",
"235 286 LINE",
"332 286 LINE",
"332 177 LINE SMOOTH",
"332 119 OFFCURVE",
"291 80 OFFCURVE",
"229 80 CURVE SMOOTH",
"167 80 OFFCURVE",
"126 119 OFFCURVE",
"126 177 CURVE SMOOTH",
"126 523 LINE SMOOTH",
"126 581 OFFCURVE",
"167 621 OFFCURVE",
"229 621 CURVE SMOOTH",
"291 621 OFFCURVE",
"332 581 OFFCURVE",
"332 523 CURVE SMOOTH",
"332 469 LINE",
"427 469 LINE",
"427 531 LINE SMOOTH",
"427 639 OFFCURVE",
"348 711 OFFCURVE",
"229 711 CURVE SMOOTH",
"110 711 OFFCURVE",
"32 639 OFFCURVE",
"32 531 CURVE SMOOTH",
"32 169 LINE SMOOTH",
"32 62 OFFCURVE",
"110 -10 OFFCURVE",
"229 -10 CURVE SMOOTH"
);
}
);
width = 459;
}
);
leftKerningGroup = C;
rightKerningGroup = G;
unicode = 0047;
},
{
color = 4;
glyphname = H;
lastChange = "2016-11-12 09:55:46 +0000";
layers = (
{
layerId = "262880E7-CFE1-4BDA-902E-E24798F3240A";
paths = (
{
closed = 1;
nodes = (
"444 0 LINE",
"444 700 LINE",
"422 700 LINE",
"422 0 LINE"
);
},
{
closed = 1;
nodes = (
"122 0 LINE",
"122 700 LINE",
"100 700 LINE",
"100 0 LINE"
);
},
{
closed = 1;
nodes = (
"427 340 LINE",
"427 361 LINE",
"117 361 LINE",
"117 340 LINE"
);
}
);
width = 544;
},
{
layerId = "4E2227F3-52E4-4048-A8EE-327B486EF0A4";
paths = (
{
closed = 1;
nodes = (
"470 0 LINE",
"470 700 LINE",
"282 700 LINE",
"282 0 LINE"
);
},
{
closed = 1;
nodes = (
"208 0 LINE",
"208 700 LINE",
"20 700 LINE",
"20 0 LINE"
);
},
{
closed = 1;
nodes = (
"376 265 LINE",
"376 435 LINE",
"116 435 LINE",
"116 265 LINE"
);
}
);
width = 490;
},
{
layerId = "BFB8CE7D-EB78-4D14-82B8-6F5DF8ED4559";
paths = (
{
closed = 1;
nodes = (
"430 0 LINE",
"430 700 LINE",
"336 700 LINE",
"336 0 LINE"
);
},
{
closed = 1;
nodes = (
"135 0 LINE",
"135 700 LINE",
"40 700 LINE",
"40 0 LINE"
);
},
{
closed = 1;
nodes = (
"380 307 LINE",
"380 397 LINE",
"92 397 LINE",
"92 307 LINE"
);
}
);
width = 470;
}
);
unicode = 0048;
},
{
glyphname = I;
lastChange = "2016-11-12 09:55:46 +0000";
layers = (
{
layerId = "262880E7-CFE1-4BDA-902E-E24798F3240A";
paths = (
{
closed = 1;
nodes = (
"122 0 LINE",
"122 700 LINE",
"100 700 LINE",
"100 0 LINE"
);
}
);
width = 222;
},
{
layerId = "4E2227F3-52E4-4048-A8EE-327B486EF0A4";
paths = (
{
closed = 1;
nodes = (
"208 0 LINE",
"208 700 LINE",
"20 700 LINE",
"20 0 LINE"
);
}
);
width = 228;
},
{
layerId = "BFB8CE7D-EB78-4D14-82B8-6F5DF8ED4559";
paths = (
{
closed = 1;
nodes = (
"135 0 LINE",
"135 700 LINE",
"40 700 LINE",
"40 0 LINE"
);
}
);
width = 175;
}
);
unicode = 0049;
},
{
color = 4;
glyphname = J;
lastChange = "2016-11-12 09:55:46 +0000";
layers = (
{
layerId = "262880E7-CFE1-4BDA-902E-E24798F3240A";
paths = (
{
closed = 1;
nodes = (
"354 -9 OFFCURVE",
"422 56 OFFCURVE",
"422 154 CURVE SMOOTH",
"422 700 LINE",
"400 700 LINE",
"400 152 LINE SMOOTH",
"400 68 OFFCURVE",
"340 12 OFFCURVE",
"251 12 CURVE SMOOTH",
"162 12 OFFCURVE",
"102 68 OFFCURVE",
"102 152 CURVE SMOOTH",
"102 234 LINE",
"80 234 LINE",
"80 154 LINE SMOOTH",
"80 56 OFFCURVE",
"148 -9 OFFCURVE",
"251 -9 CURVE SMOOTH"
);
}
);
width = 522;
},
{
layerId = "4E2227F3-52E4-4048-A8EE-327B486EF0A4";
paths = (
{
closed = 1;
nodes = (
"384 -8 OFFCURVE",
"476 72 OFFCURVE",
"476 192 CURVE SMOOTH",
"476 700 LINE",
"288 700 LINE",
"288 204 LINE SMOOTH",
"288 179 OFFCURVE",
"271 162 OFFCURVE",
"246 162 CURVE SMOOTH",
"221 162 OFFCURVE",
"204 179 OFFCURVE",
"204 204 CURVE SMOOTH",
"204 265 LINE",
"16 265 LINE",
"16 192 LINE SMOOTH",
"16 72 OFFCURVE",
"108 -8 OFFCURVE",
"246 -8 CURVE SMOOTH"
);
}
);
width = 496;
},
{
layerId = "BFB8CE7D-EB78-4D14-82B8-6F5DF8ED4559";
paths = (
{
closed = 1;
nodes = (
"347 -9 OFFCURVE",
"425 63 OFFCURVE",
"425 171 CURVE SMOOTH",
"425 700 LINE",
"331 700 LINE",
"331 179 LINE SMOOTH",
"331 120 OFFCURVE",
"290 81 OFFCURVE",
"228 81 CURVE SMOOTH",
"167 81 OFFCURVE",
"126 120 OFFCURVE",
"126 179 CURVE SMOOTH",
"126 248 LINE",
"32 248 LINE",
"32 171 LINE SMOOTH",
"32 63 OFFCURVE",
"110 -9 OFFCURVE",
"228 -9 CURVE SMOOTH"
);
}
);
width = 465;
}
);
leftKerningGroup = J;
rightKerningGroup = J;
unicode = 004A;
},
{
glyphname = K;
lastChange = "2016-11-12 09:55:46 +0000";
layers = (
{
layerId = "262880E7-CFE1-4BDA-902E-E24798F3240A";
paths = (
{
closed = 1;
nodes = (
"122 0 LINE",
"122 328 LINE",
"403 0 LINE",
"432 0 LINE",
"130 350 LINE",
"432 700 LINE",
"403 700 LINE",
"122 372 LINE",
"122 700 LINE",
"100 700 LINE",
"100 0 LINE"
);
}
);
width = 432;
},
{
layerId = "4E2227F3-52E4-4048-A8EE-327B486EF0A4";
paths = (
{
closed = 1;
nodes = (
"208 0 LINE",
"208 217 LINE",
"310 0 LINE",
"535 0 LINE",
"341 359 LINE",
"543 700 LINE",
"325 700 LINE",
"208 461 LINE",
"208 700 LINE",
"20 700 LINE",
"20 0 LINE"
);
}
);
width = 543;
},
{
layerId = "BFB8CE7D-EB78-4D14-82B8-6F5DF8ED4559";
paths = (
{
closed = 1;
nodes = (
"135 0 LINE",
"135 280 LINE",
"337 0 LINE",
"452 0 LINE",
"197 354 LINE",
"455 700 LINE",
"344 700 LINE",
"135 411 LINE",
"135 700 LINE",
"40 700 LINE",
"40 0 LINE"
);
}
);
width = 455;
}
);
rightKerningGroup = K;
unicode = 004B;
},
{
color = 4;
glyphname = L;
lastChange = "2016-11-12 09:55:46 +0000";
layers = (
{
layerId = "262880E7-CFE1-4BDA-902E-E24798F3240A";
paths = (
{
closed = 1;
nodes = (
"433 0 LINE",
"433 21 LINE",
"122 21 LINE",
"122 700 LINE",
"100 700 LINE",
"100 0 LINE"
);
}
);
width = 453;
},
{
layerId = "4E2227F3-52E4-4048-A8EE-327B486EF0A4";
paths = (
{
closed = 1;
nodes = (
"455 0 LINE",
"455 170 LINE",
"208 170 LINE",
"208 700 LINE",
"20 700 LINE",
"20 0 LINE"
);
}
);
width = 459;
},
{
layerId = "BFB8CE7D-EB78-4D14-82B8-6F5DF8ED4559";
paths = (
{
closed = 1;
nodes = (
"418 0 LINE",
"418 90 LINE",
"135 90 LINE",
"135 700 LINE",
"40 700 LINE",
"40 0 LINE"
);
}
);
width = 426;
}
);
rightKerningGroup = L;
unicode = 004C;
},
{
color = 4;
glyphname = M;
lastChange = "2016-11-12 09:55:46 +0000";
layers = (
{
layerId = "262880E7-CFE1-4BDA-902E-E24798F3240A";
paths = (
{
closed = 1;
nodes = (
"122 0 LINE",
"122 651 LINE",
"290 327 LINE",
"458 651 LINE",
"458 0 LINE",
"480 0 LINE",
"480 700 LINE",
"458 700 LINE",
"290 372 LINE",
"122 700 LINE",
"100 700 LINE",
"100 0 LINE"
);
}
);
width = 580;
},
{
layerId = "4E2227F3-52E4-4048-A8EE-327B486EF0A4";
paths = (
{
closed = 1;
nodes = (
"208 0 LINE",
"208 424 LINE",
"275 296 LINE",
"340 421 LINE",
"340 0 LINE",
"528 0 LINE",
"528 700 LINE",
"345 700 LINE",
"275 562 LINE",
"203 700 LINE",
"20 700 LINE",
"20 0 LINE"
);
}
);
width = 548;
},
{
associatedMasterId = "0AA1BC64-CAAD-4CC7-A9F9-D02EEAE6C823";
layerId = "EE5D975E-50DD-4E34-8600-DFBCE38AF994";
name = "DemiBold{110,100}";
paths = (
{
closed = 1;
nodes = (
"173 0 LINE",
"173 501 LINE",
"288 270 LINE",
"402 500 LINE",
"402 0 LINE",
"511 0 LINE",
"511 700 LINE",
"404 700 LINE",
"288 470 LINE",
"171 700 LINE",
"64 700 LINE",
"64 0 LINE"
);
}
);
width = 575;
},
{
layerId = "BFB8CE7D-EB78-4D14-82B8-6F5DF8ED4559";
paths = (
{
closed = 1;
nodes = (
"134 0 LINE",
"134 500 LINE",
"258 283 LINE",
"382 500 LINE",
"382 0 LINE",
"476 0 LINE",
"476 700 LINE",
"383 700 LINE",
"258 453 LINE",
"133 700 LINE",
"40 700 LINE",
"40 0 LINE"
);
}
);
width = 516;
}
);
unicode = 004D;
},
{
color = 4;
glyphname = N;
lastChange = "2016-11-12 09:55:46 +0000";
layers = (
{
layerId = "262880E7-CFE1-4BDA-902E-E24798F3240A";
paths = (
{
closed = 1;
nodes = (
"122 0 LINE",
"122 647 LINE",
"440 0 LINE",
"462 0 LINE",
"462 700 LINE",
"440 700 LINE",
"440 53 LINE",
"122 700 LINE",
"100 700 LINE",
"100 0 LINE"
);
}
);
width = 562;
},
{
layerId = "4E2227F3-52E4-4048-A8EE-327B486EF0A4";
paths = (
{
closed = 1;
nodes = (
"206 0 LINE",
"204 346 LINE",
"302 0 LINE",
"506 0 LINE",
"506 700 LINE",
"320 700 LINE",
"322 356 LINE",
"224 700 LINE",
"20 700 LINE",
"20 0 LINE"
);
}
);
width = 526;
},
{
associatedMasterId = "0AA1BC64-CAAD-4CC7-A9F9-D02EEAE6C823";
layerId = "09EC5ADA-31D5-423B-AE48-ECBAC9CD8D95";
name = "Medium{85,100}";
paths = (
{
closed = 1;
nodes = (
"143 0 LINE",
"143 511 LINE",
"393 0 LINE",
"475 0 LINE",
"475 700 LINE",
"391 700 LINE",
"391 180 LINE",
"141 700 LINE",
"59 700 LINE",
"59 0 LINE"
);
}
);
width = 534;
},
{
layerId = "BFB8CE7D-EB78-4D14-82B8-6F5DF8ED4559";
paths = (
{
closed = 1;
nodes = (
"136 0 LINE",
"136 463 LINE",
"343 0 LINE",
"436 0 LINE",
"436 700 LINE",
"341 700 LINE",
"341 229 LINE",
"134 700 LINE",
"40 700 LINE",
"40 0 LINE"
);
}
);
width = 476;
}
);
unicode = 004E;
},
{
color = 4;
glyphname = O;
lastChange = "2016-11-12 09:55:46 +0000";
layers = (
{
layerId = "262880E7-CFE1-4BDA-902E-E24798F3240A";
paths = (
{
closed = 1;
nodes = (
"381 -9 OFFCURVE",
"452 56 OFFCURVE",
"452 154 CURVE SMOOTH",
"452 546 LINE SMOOTH",
"452 644 OFFCURVE",
"381 709 OFFCURVE",
"271 709 CURVE SMOOTH",
"161 709 OFFCURVE",
"90 644 OFFCURVE",
"90 546 CURVE SMOOTH",
"90 154 LINE SMOOTH",
"90 56 OFFCURVE",
"161 -9 OFFCURVE",
"271 -9 CURVE SMOOTH"
);
},
{
closed = 1;
nodes = (
"174 12 OFFCURVE",
"112 68 OFFCURVE",
"112 152 CURVE SMOOTH",
"112 548 LINE SMOOTH",
"112 632 OFFCURVE",
"174 688 OFFCURVE",
"271 688 CURVE SMOOTH",
"368 688 OFFCURVE",
"430 632 OFFCURVE",
"430 548 CURVE SMOOTH",
"430 152 LINE SMOOTH",
"430 68 OFFCURVE",
"368 12 OFFCURVE",
"271 12 CURVE SMOOTH"
);
}
);
width = 542;
},
{
layerId = "4E2227F3-52E4-4048-A8EE-327B486EF0A4";
paths = (
{
closed = 1;
nodes = (
"400 -12 OFFCURVE",
"496 78 OFFCURVE",
"496 214 CURVE SMOOTH",
"496 486 LINE SMOOTH",
"496 622 OFFCURVE",
"400 712 OFFCURVE",
"257 712 CURVE SMOOTH",
"114 712 OFFCURVE",
"18 622 OFFCURVE",
"18 486 CURVE SMOOTH",
"18 214 LINE SMOOTH",
"18 78 OFFCURVE",
"114 -12 OFFCURVE",
"257 -12 CURVE SMOOTH"
);
},
{
closed = 1;
nodes = (
"226 149 OFFCURVE",
"206 174 OFFCURVE",
"206 203 CURVE SMOOTH",
"206 497 LINE SMOOTH",
"206 526 OFFCURVE",
"226 551 OFFCURVE",
"257 551 CURVE SMOOTH",
"288 551 OFFCURVE",
"308 526 OFFCURVE",
"308 497 CURVE SMOOTH",
"308 203 LINE SMOOTH",
"308 174 OFFCURVE",
"288 149 OFFCURVE",
"257 149 CURVE SMOOTH"
);
}
);
width = 514;
},
{
associatedMasterId = "4E2227F3-52E4-4048-A8EE-327B486EF0A4";
layerId = "B5FE8D02-DC93-44A1-AC92-8BAC5724F6F8";
name = "Oct 23 16, 17:19";
paths = (
{
closed = 1;
nodes = (
"404 -12 OFFCURVE",
"499 68 OFFCURVE",
"499 188 CURVE SMOOTH",
"499 512 LINE SMOOTH",
"499 632 OFFCURVE",
"404 712 OFFCURVE",
"260 712 CURVE SMOOTH",
"116 712 OFFCURVE",
"21 632 OFFCURVE",
"21 512 CURVE SMOOTH",
"21 188 LINE SMOOTH",
"21 68 OFFCURVE",
"116 -12 OFFCURVE",
"260 -12 CURVE SMOOTH"
);
},
{
closed = 1;
nodes = (
"229 148 OFFCURVE",
"209 173 OFFCURVE",
"209 202 CURVE SMOOTH",
"209 498 LINE SMOOTH",
"209 527 OFFCURVE",
"229 552 OFFCURVE",
"260 552 CURVE SMOOTH",
"291 552 OFFCURVE",
"311 527 OFFCURVE",
"311 498 CURVE SMOOTH",
"311 202 LINE SMOOTH",
"311 173 OFFCURVE",
"291 148 OFFCURVE",
"260 148 CURVE SMOOTH"
);
},
{
closed = 1;
nodes = (
"238 0 LINE",
"492 700 LINE",
"304 700 LINE",
"50 0 LINE"
);
}
);
width = 520;
},
{
associatedMasterId = "0AA1BC64-CAAD-4CC7-A9F9-D02EEAE6C823";
layerId = "ECF49D5A-1B88-48C4-A125-9687F41AC649";
name = "Oct 23 16, 17:19";
paths = (
{
closed = 1;
nodes = (
"404 -12 OFFCURVE",
"499 68 OFFCURVE",
"499 188 CURVE SMOOTH",
"499 512 LINE SMOOTH",
"499 632 OFFCURVE",
"404 712 OFFCURVE",
"260 712 CURVE SMOOTH",
"116 712 OFFCURVE",
"21 632 OFFCURVE",
"21 512 CURVE SMOOTH",
"21 188 LINE SMOOTH",
"21 68 OFFCURVE",
"116 -12 OFFCURVE",
"260 -12 CURVE SMOOTH"
);
},
{
closed = 1;
nodes = (
"229 148 OFFCURVE",
"209 173 OFFCURVE",
"209 202 CURVE SMOOTH",
"209 498 LINE SMOOTH",
"209 527 OFFCURVE",
"229 552 OFFCURVE",
"260 552 CURVE SMOOTH",
"291 552 OFFCURVE",
"311 527 OFFCURVE",
"311 498 CURVE SMOOTH",
"311 202 LINE SMOOTH",
"311 173 OFFCURVE",
"291 148 OFFCURVE",
"260 148 CURVE SMOOTH"
);
},
{
closed = 1;
nodes = (
"238 0 LINE",
"492 700 LINE",
"304 700 LINE",
"50 0 LINE"
);
}
);
width = 520;
},
{
layerId = "BFB8CE7D-EB78-4D14-82B8-6F5DF8ED4559";
paths = (
{
closed = 1;
nodes = (
"366 -10 OFFCURVE",
"448 66 OFFCURVE",
"448 180 CURVE SMOOTH",
"448 520 LINE SMOOTH",
"448 634 OFFCURVE",
"366 710 OFFCURVE",
"242 710 CURVE SMOOTH",
"117 710 OFFCURVE",
"36 634 OFFCURVE",
"36 520 CURVE SMOOTH",
"36 180 LINE SMOOTH",
"36 66 OFFCURVE",
"117 -10 OFFCURVE",
"242 -10 CURVE SMOOTH"
);
},
{
closed = 1;
nodes = (
"174 80 OFFCURVE",
"130 122 OFFCURVE",
"130 182 CURVE SMOOTH",
"130 518 LINE SMOOTH",
"130 578 OFFCURVE",
"174 620 OFFCURVE",
"242 620 CURVE SMOOTH",
"310 620 OFFCURVE",
"354 578 OFFCURVE",
"354 518 CURVE SMOOTH",
"354 182 LINE SMOOTH",
"354 122 OFFCURVE",
"310 80 OFFCURVE",
"242 80 CURVE SMOOTH"
);
}
);
width = 484;
}
);
unicode = 004F;
},
{
color = 4;
glyphname = P;
lastChange = "2016-11-12 09:55:46 +0000";
layers = (
{
layerId = "262880E7-CFE1-4BDA-902E-E24798F3240A";
paths = (
{
closed = 1;
nodes = (
"123 0 LINE",
"123 680 LINE",
"300 680 LINE SMOOTH",
"384 680 OFFCURVE",
"440 616 OFFCURVE",
"440 520 CURVE SMOOTH",
"440 424 OFFCURVE",
"384 360 OFFCURVE",
"300 360 CURVE SMOOTH",
"118 360 LINE",
"118 340 LINE",
"298 340 LINE SMOOTH",
"396 340 OFFCURVE",
"461 411 OFFCURVE",
"461 520 CURVE SMOOTH",
"461 629 OFFCURVE",
"396 702 OFFCURVE",
"298 702 CURVE SMOOTH",
"100 702 LINE",
"100 0 LINE"
);
}
);
width = 521;
},
{
layerId = "4E2227F3-52E4-4048-A8EE-327B486EF0A4";
paths = (
{
closed = 1;
nodes = (
"208 0 LINE",
"208 530 LINE",
"243 530 LINE SMOOTH",
"275 530 OFFCURVE",
"297 508 OFFCURVE",
"297 476 CURVE SMOOTH",
"297 438 OFFCURVE",
"275 412 OFFCURVE",
"243 412 CURVE SMOOTH",
"192 412 LINE",
"192 247 LINE",
"275 247 LINE SMOOTH",
"401 247 OFFCURVE",
"485 339 OFFCURVE",
"485 476 CURVE SMOOTH",
"485 610 OFFCURVE",
"397 700 OFFCURVE",
"265 700 CURVE SMOOTH",
"20 700 LINE",
"20 0 LINE"
);
}
);
width = 497;
},
{
layerId = "BFB8CE7D-EB78-4D14-82B8-6F5DF8ED4559";
paths = (
{
closed = 1;
nodes = (
"135 0 LINE",
"135 611 LINE",
"250 611 LINE SMOOTH",
"312 611 OFFCURVE",
"353 567 OFFCURVE",
"353 501 CURVE SMOOTH",
"353 434 OFFCURVE",
"312 389 OFFCURVE",
"250 389 CURVE SMOOTH",
"125 389 LINE",
"125 300 LINE",
"263 300 LINE SMOOTH",
"373 300 OFFCURVE",
"446 380 OFFCURVE",
"446 501 CURVE SMOOTH",
"446 621 OFFCURVE",
"371 701 OFFCURVE",
"259 701 CURVE SMOOTH",
"40 701 LINE",
"40 0 LINE"
);
}
);
width = 470;
}
);
unicode = 0050;
},
{
color = 4;
glyphname = Q;
lastChange = "2016-11-12 10:02:45 +0000";
layers = (
{
layerId = "262880E7-CFE1-4BDA-902E-E24798F3240A";
paths = (
{
closed = 1;
nodes = (
"372 -9 OFFCURVE",
"442 56 OFFCURVE",
"442 154 CURVE SMOOTH",
"442 546 LINE SMOOTH",
"442 644 OFFCURVE",
"372 709 OFFCURVE",
"266 709 CURVE SMOOTH",
"160 709 OFFCURVE",
"90 644 OFFCURVE",
"90 546 CURVE SMOOTH",
"90 154 LINE SMOOTH",
"90 56 OFFCURVE",
"160 -9 OFFCURVE",
"266 -9 CURVE SMOOTH"
);
},
{
closed = 1;
nodes = (
"401 -51 LINE",
"202 16 LINE",
"202 0 LINE",
"401 -72 LINE"
);
},
{
closed = 1;
nodes = (
"173 12 OFFCURVE",
"112 68 OFFCURVE",
"112 152 CURVE SMOOTH",
"112 548 LINE SMOOTH",
"112 632 OFFCURVE",
"173 688 OFFCURVE",
"266 688 CURVE SMOOTH",
"359 688 OFFCURVE",
"420 632 OFFCURVE",
"420 548 CURVE SMOOTH",
"420 152 LINE SMOOTH",
"420 68 OFFCURVE",
"359 12 OFFCURVE",
"266 12 CURVE SMOOTH"
);
}
);
width = 542;
},
{
layerId = "4E2227F3-52E4-4048-A8EE-327B486EF0A4";
paths = (
{
closed = 1;
nodes = (
"396 -8 OFFCURVE",
"490 81 OFFCURVE",
"490 215 CURVE SMOOTH",
"490 485 LINE SMOOTH",
"490 619 OFFCURVE",
"396 708 OFFCURVE",
"254 708 CURVE SMOOTH",
"112 708 OFFCURVE",
"18 619 OFFCURVE",
"18 485 CURVE SMOOTH",
"18 215 LINE SMOOTH",
"18 81 OFFCURVE",
"112 -8 OFFCURVE",
"254 -8 CURVE SMOOTH"
);
},
{
closed = 1;
nodes = (
"506 73 LINE",
"198 118 LINE",
"179 1 LINE",
"481 -64 LINE"
);
},
{
closed = 1;
nodes = (
"225 162 OFFCURVE",
"206 182 OFFCURVE",
"206 213 CURVE SMOOTH",
"206 487 LINE SMOOTH",
"206 518 OFFCURVE",
"225 538 OFFCURVE",
"254 538 CURVE SMOOTH",
"283 538 OFFCURVE",
"302 518 OFFCURVE",
"302 487 CURVE SMOOTH",
"302 213 LINE SMOOTH",
"302 182 OFFCURVE",
"283 162 OFFCURVE",
"254 162 CURVE SMOOTH"
);
}
);
width = 514;
},
{
layerId = "BFB8CE7D-EB78-4D14-82B8-6F5DF8ED4559";
paths = (
{
closed = 1;
nodes = (
"359 -9 OFFCURVE",
"440 67 OFFCURVE",
"440 181 CURVE SMOOTH",
"440 519 LINE SMOOTH",
"440 633 OFFCURVE",
"359 709 OFFCURVE",
"238 709 CURVE SMOOTH",
"116 709 OFFCURVE",
"36 633 OFFCURVE",
"36 519 CURVE SMOOTH",
"36 181 LINE SMOOTH",
"36 67 OFFCURVE",
"116 -9 OFFCURVE",
"238 -9 CURVE SMOOTH"
);
},
{
closed = 1;
nodes = (
"424 3 LINE",
"177 61 LINE",
"169 0 LINE",
"413 -69 LINE"
);
},
{
closed = 1;
nodes = (
"173 81 OFFCURVE",
"130 122 OFFCURVE",
"130 183 CURVE SMOOTH",
"130 517 LINE SMOOTH",
"130 578 OFFCURVE",
"173 619 OFFCURVE",
"238 619 CURVE SMOOTH",
"303 619 OFFCURVE",
"346 578 OFFCURVE",
"346 517 CURVE SMOOTH",
"346 183 LINE SMOOTH",
"346 122 OFFCURVE",
"303 81 OFFCURVE",
"238 81 CURVE SMOOTH"
);
}
);
width = 484;
}
);
leftKerningGroup = C;
unicode = 0051;
},
{
color = 4;
glyphname = R;
lastChange = "2016-11-12 09:55:46 +0000";
layers = (
{
layerId = "262880E7-CFE1-4BDA-902E-E24798F3240A";
paths = (
{
closed = 1;
nodes = (
"123 0 LINE",
"123 680 LINE",
"304 680 LINE SMOOTH",
"388 680 OFFCURVE",
"444 616 OFFCURVE",
"444 520 CURVE SMOOTH",
"444 424 OFFCURVE",
"388 360 OFFCURVE",
"304 360 CURVE SMOOTH",
"118 360 LINE",
"118 340 LINE",
"302 340 LINE SMOOTH",
"400 340 OFFCURVE",
"465 411 OFFCURVE",
"465 520 CURVE SMOOTH",
"465 629 OFFCURVE",
"400 702 OFFCURVE",
"302 702 CURVE SMOOTH",
"100 702 LINE",
"100 0 LINE"
);
},
{
closed = 1;
nodes = (
"443 0 LINE",
"322 349 LINE",
"304 341 LINE",
"421 0 LINE"
);
}
);
width = 515;
},
{
layerId = "4E2227F3-52E4-4048-A8EE-327B486EF0A4";
paths = (
{
closed = 1;
nodes = (
"208 0 LINE",
"208 530 LINE",
"254 530 LINE SMOOTH",
"288 530 OFFCURVE",
"310 506 OFFCURVE",
"310 469 CURVE SMOOTH",
"310 432 OFFCURVE",
"288 407 OFFCURVE",
"254 407 CURVE SMOOTH",
"192 407 LINE",
"192 254 LINE",
"288 254 LINE SMOOTH",
"414 254 OFFCURVE",
"498 342 OFFCURVE",
"498 474 CURVE SMOOTH",
"498 610 OFFCURVE",
"410 700 OFFCURVE",
"278 700 CURVE SMOOTH",
"20 700 LINE",
"20 0 LINE"
);
},
{
closed = 1;
nodes = (
"485 0 LINE",
"387 335 LINE",
"209 335 LINE",
"291 0 LINE"
);
}
);
width = 508;
},
{
associatedMasterId = "0AA1BC64-CAAD-4CC7-A9F9-D02EEAE6C823";
layerId = "E2EA5097-15EA-4E36-958C-CFF0D2DB3D14";
name = "Medium{80,100}";
paths = (
{
closed = 1;
nodes = (
"151 0 LINE",
"151 628 LINE",
"286 628 LINE SMOOTH",
"352 628 OFFCURVE",
"396 577 OFFCURVE",
"396 501 CURVE SMOOTH",
"396 425 OFFCURVE",
"352 375 OFFCURVE",
"286 375 CURVE SMOOTH",
"142 375 LINE",
"142 304 LINE",
"296 304 LINE SMOOTH",
"403 304 OFFCURVE",
"475 384 OFFCURVE",
"475 505 CURVE SMOOTH",
"475 623 OFFCURVE",
"402 701 OFFCURVE",
"292 701 CURVE SMOOTH",
"71 701 LINE",
"71 0 LINE"
);
},
{
closed = 1;
nodes = (
"456 0 LINE",
"343 344 LINE",
"270 339 LINE",
"375 0 LINE"
);
}
);
width = 505;
},
{
layerId = "BFB8CE7D-EB78-4D14-82B8-6F5DF8ED4559";
paths = (
{
closed = 1;
nodes = (
"135 0 LINE",
"135 611 LINE",
"258 611 LINE SMOOTH",
"319 611 OFFCURVE",
"360 565 OFFCURVE",
"360 497 CURVE SMOOTH",
"360 426 OFFCURVE",
"319 379 OFFCURVE",
"258 379 CURVE SMOOTH",
"125 379 LINE",
"125 294 LINE",
"271 294 LINE SMOOTH",
"381 294 OFFCURVE",
"454 377 OFFCURVE",
"454 501 CURVE SMOOTH",
"454 621 OFFCURVE",
"379 701 OFFCURVE",
"266 701 CURVE SMOOTH",
"40 701 LINE",
"40 0 LINE"
);
},
{
closed = 1;
nodes = (
"436 0 LINE",
"325 343 LINE",
"238 338 LINE",
"339 0 LINE"
);
}
);
width = 474;
}
);
rightKerningGroup = R;
unicode = 0052;
},
{
color = 4;
glyphname = S;
lastChange = "2016-11-12 09:55:46 +0000";
layers = (
{
layerId = "262880E7-CFE1-4BDA-902E-E24798F3240A";
paths = (
{
closed = 1;
nodes = (
"318 -9 OFFCURVE",
"382 49 OFFCURVE",
"382 149 CURVE SMOOTH",
"382 254 OFFCURVE",
"299 307 OFFCURVE",
"217 359 CURVE SMOOTH",
"139 409 OFFCURVE",
"62 457 OFFCURVE",
"62 550 CURVE SMOOTH",
"62 637 OFFCURVE",
"116 688 OFFCURVE",
"208 688 CURVE SMOOTH",
"300 688 OFFCURVE",
"354 636 OFFCURVE",
"354 548 CURVE SMOOTH",
"354 500 LINE",
"376 500 LINE",
"376 549 LINE SMOOTH",
"376 650 OFFCURVE",
"314 709 OFFCURVE",
"208 709 CURVE SMOOTH",
"102 709 OFFCURVE",
"40 651 OFFCURVE",
"40 552 CURVE SMOOTH",
"40 448 OFFCURVE",
"123 395 OFFCURVE",
"204 343 CURVE SMOOTH",
"283 293 OFFCURVE",
"360 243 OFFCURVE",
"360 149 CURVE SMOOTH",
"360 63 OFFCURVE",
"304 12 OFFCURVE",
"209 12 CURVE SMOOTH",
"116 12 OFFCURVE",
"62 63 OFFCURVE",
"62 151 CURVE SMOOTH",
"62 210 LINE",
"42 210 LINE",
"42 150 LINE SMOOTH",
"42 50 OFFCURVE",
"104 -9 OFFCURVE",
"210 -9 CURVE SMOOTH"
);
}
);
width = 422;
},
{
layerId = "4E2227F3-52E4-4048-A8EE-327B486EF0A4";
paths = (
{
closed = 1;
nodes = (
"363 -8 OFFCURVE",
"452 70 OFFCURVE",
"452 187 CURVE SMOOTH",
"452 287 OFFCURVE",
"386 338 OFFCURVE",
"280 412 CURVE SMOOTH",
"213 459 OFFCURVE",
"193 470 OFFCURVE",
"193 500 CURVE SMOOTH",
"193 524 OFFCURVE",
"206 538 OFFCURVE",
"227 538 CURVE SMOOTH",
"248 538 OFFCURVE",
"262 524 OFFCURVE",
"262 504 CURVE SMOOTH",
"262 490 LINE",
"447 490 LINE",
"447 509 LINE SMOOTH",
"447 628 OFFCURVE",
"360 708 OFFCURVE",
"228 708 CURVE SMOOTH",
"95 708 OFFCURVE",
"8 628 OFFCURVE",
"8 510 CURVE SMOOTH",
"8 387 OFFCURVE",
"103 322 OFFCURVE",
"178 272 CURVE SMOOTH",
"251 223 OFFCURVE",
"267 215 OFFCURVE",
"267 194 CURVE SMOOTH",
"267 175 OFFCURVE",
"253 162 OFFCURVE",
"233 162 CURVE SMOOTH",
"212 162 OFFCURVE",
"198 176 OFFCURVE",
"198 198 CURVE SMOOTH",
"198 211 LINE",
"13 211 LINE",
"13 180 LINE SMOOTH",
"13 70 OFFCURVE",
"98 -8 OFFCURVE",
"231 -8 CURVE SMOOTH"
);
}
);
width = 460;
},
{
layerId = "BFB8CE7D-EB78-4D14-82B8-6F5DF8ED4559";
paths = (
{
closed = 1;
nodes = (
"328 -9 OFFCURVE",
"403 58 OFFCURVE",
"403 166 CURVE SMOOTH",
"403 268 OFFCURVE",
"327 321 OFFCURVE",
"234 382 CURVE SMOOTH",
"161 431 OFFCURVE",
"109 463 OFFCURVE",
"109 528 CURVE SMOOTH",
"109 588 OFFCURVE",
"145 619 OFFCURVE",
"206 619 CURVE SMOOTH",
"267 619 OFFCURVE",
"304 587 OFFCURVE",
"304 529 CURVE SMOOTH",
"304 496 LINE",
"397 496 LINE",
"397 532 LINE SMOOTH",
"397 640 OFFCURVE",
"324 709 OFFCURVE",
"207 709 CURVE SMOOTH",
"89 709 OFFCURVE",
"16 641 OFFCURVE",
"16 534 CURVE SMOOTH",
"16 421 OFFCURVE",
"104 363 OFFCURVE",
"183 312 CURVE SMOOTH",
"259 262 OFFCURVE",
"309 231 OFFCURVE",
"309 169 CURVE SMOOTH",
"309 112 OFFCURVE",
"272 81 OFFCURVE",
"209 81 CURVE SMOOTH",
"148 81 OFFCURVE",
"111 112 OFFCURVE",
"111 172 CURVE SMOOTH",
"111 210 LINE",
"19 210 LINE",
"19 163 LINE SMOOTH",
"19 59 OFFCURVE",
"91 -9 OFFCURVE",
"209 -9 CURVE SMOOTH"
);
}
);
width = 419;
}
);
leftKerningGroup = S;
rightKerningGroup = S;
unicode = 0053;
},
{
color = 4;
glyphname = T;
lastChange = "2016-11-12 09:55:46 +0000";
layers = (
{
layerId = "262880E7-CFE1-4BDA-902E-E24798F3240A";
paths = (
{
closed = 1;
nodes = (
"222 0 LINE",
"222 689 LINE",
"200 689 LINE",
"200 0 LINE"
);
},
{
closed = 1;
nodes = (
"400 679 LINE",
"400 700 LINE",
"30 700 LINE",
"30 679 LINE"
);
}
);
width = 410;
},
{
layerId = "4E2227F3-52E4-4048-A8EE-327B486EF0A4";
paths = (
{
closed = 1;
nodes = (
"332 0 LINE",
"332 689 LINE",
"144 689 LINE",
"144 0 LINE"
);
},
{
closed = 1;
nodes = (
"474 530 LINE",
"474 700 LINE",
"6 700 LINE",
"6 530 LINE"
);
}
);
width = 476;
},
{
layerId = "BFB8CE7D-EB78-4D14-82B8-6F5DF8ED4559";
paths = (
{
closed = 1;
nodes = (
"262 0 LINE",
"262 689 LINE",
"168 689 LINE",
"168 0 LINE"
);
},
{
closed = 1;
nodes = (
"424 610 LINE",
"424 700 LINE",
"12 700 LINE",
"12 610 LINE"
);
}
);
width = 428;
}
);
leftKerningGroup = T;
rightKerningGroup = T;
unicode = 0054;
},
{
color = 4;
glyphname = U;
lastChange = "2016-11-12 09:55:46 +0000";
layers = (
{
layerId = "262880E7-CFE1-4BDA-902E-E24798F3240A";
paths = (
{
closed = 1;
nodes = (
"386 -9 OFFCURVE",
"458 59 OFFCURVE",
"458 160 CURVE SMOOTH",
"458 700 LINE",
"436 700 LINE",
"436 156 LINE SMOOTH",
"436 70 OFFCURVE",
"373 12 OFFCURVE",
"279 12 CURVE SMOOTH",
"185 12 OFFCURVE",
"122 70 OFFCURVE",
"122 156 CURVE SMOOTH",
"122 700 LINE",
"100 700 LINE",
"100 160 LINE SMOOTH",
"100 59 OFFCURVE",
"172 -9 OFFCURVE",
"279 -9 CURVE SMOOTH"
);
}
);
width = 558;
},
{
layerId = "4E2227F3-52E4-4048-A8EE-327B486EF0A4";
paths = (
{
closed = 1;
nodes = (
"388 -8 OFFCURVE",
"480 77 OFFCURVE",
"480 208 CURVE SMOOTH",
"480 700 LINE",
"292 700 LINE",
"292 208 LINE SMOOTH",
"292 180 OFFCURVE",
"275 162 OFFCURVE",
"250 162 CURVE SMOOTH",
"225 162 OFFCURVE",
"208 180 OFFCURVE",
"208 208 CURVE SMOOTH",
"208 700 LINE",
"20 700 LINE",
"20 208 LINE SMOOTH",
"20 77 OFFCURVE",
"112 -8 OFFCURVE",
"250 -8 CURVE SMOOTH"
);
}
);
width = 500;
},
{
layerId = "BFB8CE7D-EB78-4D14-82B8-6F5DF8ED4559";
paths = (
{
closed = 1;
nodes = (
"362 -9 OFFCURVE",
"443 67 OFFCURVE",
"443 181 CURVE SMOOTH",
"443 700 LINE",
"348 700 LINE",
"348 183 LINE SMOOTH",
"348 122 OFFCURVE",
"305 81 OFFCURVE",
"241 81 CURVE SMOOTH",
"177 81 OFFCURVE",
"135 122 OFFCURVE",
"135 183 CURVE SMOOTH",
"135 700 LINE",
"40 700 LINE",
"40 181 LINE SMOOTH",
"40 67 OFFCURVE",
"121 -9 OFFCURVE",
"241 -9 CURVE SMOOTH"
);
}
);
width = 483;
}
);
leftKerningGroup = U;
rightKerningGroup = U;
unicode = 0055;
},
{
glyphname = V;
lastChange = "2016-11-12 09:55:46 +0000";
layers = (
{
layerId = "262880E7-CFE1-4BDA-902E-E24798F3240A";
paths = (
{
closed = 1;
nodes = (
"253 0 LINE",
"454 700 LINE",
"432 700 LINE",
"242 42 LINE",
"52 700 LINE",
"30 700 LINE",
"231 0 LINE"
);
}
);
width = 484;
},
{
layerId = "4E2227F3-52E4-4048-A8EE-327B486EF0A4";
paths = (
{
closed = 1;
nodes = (
"374 0 LINE",
"539 700 LINE",
"341 700 LINE",
"278 305 LINE",
"209 700 LINE",
"6 700 LINE",
"171 0 LINE"
);
}
);
width = 545;
},
{
layerId = "BFB8CE7D-EB78-4D14-82B8-6F5DF8ED4559";
paths = (
{
closed = 1;
nodes = (
"298 0 LINE",
"483 700 LINE",
"384 700 LINE",
"250 157 LINE",
"113 700 LINE",
"12 700 LINE",
"197 0 LINE"
);
}
);
width = 495;
}
);
unicode = 0056;
},
{
glyphname = W;
lastChange = "2016-11-12 09:55:46 +0000";
layers = (
{
layerId = "262880E7-CFE1-4BDA-902E-E24798F3240A";
paths = (
{
closed = 1;
nodes = (
"207 0 LINE",
"356 657 LINE",
"501 0 LINE",
"523 0 LINE",
"680 700 LINE",
"658 700 LINE",
"513 40 LINE",
"364 700 LINE",
"346 700 LINE",
"197 40 LINE",
"52 700 LINE",
"30 700 LINE",
"185 0 LINE"
);
}
);
width = 710;
},
{
layerId = "4E2227F3-52E4-4048-A8EE-327B486EF0A4";
paths = (
{
closed = 1;
nodes = (
"320 0 LINE",
"356 362 LINE",
"417 0 LINE",
"581 0 LINE",
"720 700 LINE",
"527 700 LINE",
"500 342 LINE",
"443 700 LINE",
"278 700 LINE",
"236 342 LINE",
"204 700 LINE",
"6 700 LINE",
"154 0 LINE"
);
}
);
width = 726;
},
{
associatedMasterId = "4E2227F3-52E4-4048-A8EE-327B486EF0A4";
layerId = "88682A13-1085-420E-A9E5-EF087382416E";
name = "DemiBold{110,100}";
paths = (
{
closed = 1;
nodes = (
"251 0 LINE",
"333 411 LINE",
"414 0 LINE",
"510 0 LINE",
"653 700 LINE",
"549 700 LINE",
"465 276 LINE",
"376 700 LINE",
"284 700 LINE",
"204 276 LINE",
"113 700 LINE",
"2 700 LINE",
"156 0 LINE"
);
}
);
width = 675;
},
{
associatedMasterId = "0AA1BC64-CAAD-4CC7-A9F9-D02EEAE6C823";
layerId = "B45255A8-5225-4D8B-854B-298667E00FFC";
name = "DemiBold{110,100}";
paths = (
{
closed = 1;
nodes = (
"251 0 LINE",
"333 411 LINE",
"414 0 LINE",
"510 0 LINE",
"653 700 LINE",
"549 700 LINE",
"465 276 LINE",
"376 700 LINE",
"284 700 LINE",
"204 276 LINE",
"113 700 LINE",
"2 700 LINE",
"156 0 LINE"
);
}
);
width = 675;
},
{
layerId = "BFB8CE7D-EB78-4D14-82B8-6F5DF8ED4559";
paths = (
{
closed = 1;
nodes = (
"248 0 LINE",
"342 453 LINE",
"434 0 LINE",
"517 0 LINE",
"663 700 LINE",
"573 700 LINE",
"478 235 LINE",
"379 700 LINE",
"300 700 LINE",
"208 235 LINE",
"107 700 LINE",
"12 700 LINE",
"166 0 LINE"
);
}
);
width = 675;
}
);
leftKerningGroup = W;
rightKerningGroup = W;
unicode = 0057;
},
{
glyphname = X;
lastChange = "2016-11-12 09:55:46 +0000";
layers = (
{
layerId = "262880E7-CFE1-4BDA-902E-E24798F3240A";
paths = (
{
closed = 1;
nodes = (
"55 0 LINE",
"230 330 LINE",
"405 0 LINE",
"430 0 LINE",
"241 349 LINE",
"430 700 LINE",
"405 700 LINE",
"230 369 LINE",
"55 700 LINE",
"30 700 LINE",
"219 350 LINE",
"30 0 LINE"
);
}
);
width = 460;
},
{
layerId = "4E2227F3-52E4-4048-A8EE-327B486EF0A4";
paths = (
{
closed = 1;
nodes = (
"197 0 LINE",
"253 162 LINE",
"308 0 LINE",
"499 0 LINE",
"352 350 LINE",
"499 700 LINE",
"307 700 LINE",
"253 537 LINE",
"198 700 LINE",
"6 700 LINE",
"153 350 LINE",
"6 0 LINE"
);
}
);
width = 505;
},
{
layerId = "BFB8CE7D-EB78-4D14-82B8-6F5DF8ED4559";
paths = (
{
closed = 1;
nodes = (
"109 0 LINE",
"232 257 LINE",
"355 0 LINE",
"452 0 LINE",
"281 349 LINE",
"452 700 LINE",
"354 700 LINE",
"232 442 LINE",
"109 700 LINE",
"12 700 LINE",
"182 350 LINE",
"12 0 LINE"
);
}
);
width = 464;
}
);
unicode = 0058;
},
{
glyphname = Y;
lastChange = "2016-11-12 09:55:46 +0000";
layers = (
{
layerId = "262880E7-CFE1-4BDA-902E-E24798F3240A";
paths = (
{
closed = 1;
nodes = (
"237 0 LINE",
"237 339 LINE",
"422 700 LINE",
"400 700 LINE",
"226 358 LINE",
"52 700 LINE",
"30 700 LINE",
"215 339 LINE",
"215 0 LINE"
);
}
);
width = 452;
},
{
layerId = "4E2227F3-52E4-4048-A8EE-327B486EF0A4";
paths = (
{
closed = 1;
nodes = (
"356 2 LINE",
"356 287 LINE",
"519 700 LINE",
"321 700 LINE",
"263 492 LINE",
"204 700 LINE",
"6 700 LINE",
"168 287 LINE",
"168 2 LINE"
);
}
);
width = 525;
},
{
associatedMasterId = "262880E7-CFE1-4BDA-902E-E24798F3240A";
layerId = "394D83DF-4BD1-4276-9A3C-19912AD5F0BB";
name = "Oct 20 16, 01:26";
paths = (
{
closed = 1;
nodes = (
"404 700 LINE",
"382 700 LINE",
"208 360 LINE",
"34 700 LINE",
"12 700 LINE",
"208 318 LINE"
);
},
{
closed = 1;
nodes = (
"219 0 LINE",
"219 350 LINE",
"197 350 LINE",
"197 0 LINE"
);
}
);
width = 416;
},
{
layerId = "BFB8CE7D-EB78-4D14-82B8-6F5DF8ED4559";
paths = (
{
closed = 1;
nodes = (
"281 1 LINE",
"281 316 LINE",
"456 700 LINE",
"358 700 LINE",
"234 416 LINE",
"110 700 LINE",
"12 700 LINE",
"186 316 LINE",
"186 1 LINE"
);
}
);
width = 468;
}
);
leftKerningGroup = Y;
rightKerningGroup = Y;
unicode = 0059;
},
{
glyphname = Z;
lastChange = "2016-11-12 09:55:46 +0000";
layers = (
{
layerId = "262880E7-CFE1-4BDA-902E-E24798F3240A";
paths = (
{
closed = 1;
nodes = (
"378 0 LINE",
"378 21 LINE",
"55 21 LINE",
"378 679 LINE",
"378 700 LINE",
"30 700 LINE",
"30 679 LINE",
"354 679 LINE",
"30 21 LINE",
"30 0 LINE"
);
}
);
width = 418;
},
{
layerId = "4E2227F3-52E4-4048-A8EE-327B486EF0A4";
paths = (
{
closed = 1;
nodes = (
"416 0 LINE",
"416 170 LINE",
"202 170 LINE",
"416 530 LINE",
"416 700 LINE",
"6 700 LINE",
"6 530 LINE",
"218 530 LINE",
"6 170 LINE",
"6 0 LINE"
);
}
);
width = 424;
},
{
layerId = "BFB8CE7D-EB78-4D14-82B8-6F5DF8ED4559";
paths = (
{
closed = 1;
nodes = (
"387 0 LINE",
"387 86 LINE",
"111 86 LINE",
"387 614 LINE",
"387 700 LINE",
"12 700 LINE",
"12 614 LINE",
"287 614 LINE",
"12 86 LINE",
"12 0 LINE"
);
}
);
width = 403;
}
);
leftKerningGroup = Z;
rightKerningGroup = Z;
unicode = 005A;
},
{
color = 4;
glyphname = a;
lastChange = "2016-11-12 10:01:07 +0000";
layers = (
{
layerId = "262880E7-CFE1-4BDA-902E-E24798F3240A";
paths = (
{
closed = 1;
nodes = (
"356 -8 OFFCURVE",
"421 53 OFFCURVE",
"421 158 CURVE SMOOTH",
"421 342 LINE SMOOTH",
"421 441 OFFCURVE",
"362 508 OFFCURVE",
"256 508 CURVE SMOOTH",
"153 508 OFFCURVE",
"90 445 OFFCURVE",
"90 342 CURVE SMOOTH",
"90 158 LINE SMOOTH",
"90 55 OFFCURVE",
"155 -8 OFFCURVE",
"258 -8 CURVE SMOOTH"
);
},
{
closed = 1;
nodes = (
"167 13 OFFCURVE",
"112 67 OFFCURVE",
"112 155 CURVE SMOOTH",
"112 345 LINE SMOOTH",
"112 433 OFFCURVE",
"167 487 OFFCURVE",
"257 487 CURVE SMOOTH",
"347 487 OFFCURVE",
"402 433 OFFCURVE",
"402 345 CURVE SMOOTH",
"402 155 LINE SMOOTH",
"402 67 OFFCURVE",
"347 13 OFFCURVE",
"257 13 CURVE SMOOTH"
);
},
{
closed = 1;
nodes = (
"424 0 LINE",
"424 500 LINE",
"402 500 LINE",
"402 0 LINE"
);
}
);
width = 524;
},
{
layerId = "4E2227F3-52E4-4048-A8EE-327B486EF0A4";
paths = (
{
closed = 1;
nodes = (
"210 -8 OFFCURVE",
"305 -1 OFFCURVE",
"301 197 CURVE",
"301 303 LINE SMOOTH",
"305 501 OFFCURVE",
"210 508 OFFCURVE",
"167 508 CURVE SMOOTH",
"62 508 OFFCURVE",
"18 434 OFFCURVE",
"18 323 CURVE SMOOTH",
"18 177 LINE SMOOTH",
"18 66 OFFCURVE",
"62 -8 OFFCURVE",
"167 -8 CURVE SMOOTH"
);
},
{
closed = 1;
nodes = (
"218 164 OFFCURVE",
"206 177 OFFCURVE",
"206 197 CURVE SMOOTH",
"206 303 LINE SMOOTH",
"206 323 OFFCURVE",
"218 336 OFFCURVE",
"235 336 CURVE SMOOTH",
"252 336 OFFCURVE",
"264 323 OFFCURVE",
"264 303 CURVE SMOOTH",
"264 197 LINE SMOOTH",
"264 177 OFFCURVE",
"252 164 OFFCURVE",
"235 164 CURVE SMOOTH"
);
},
{
closed = 1;
nodes = (
"452 0 LINE",
"452 500 LINE",
"264 500 LINE",
"264 0 LINE"
);
}
);
width = 472;
},
{
associatedMasterId = "4E2227F3-52E4-4048-A8EE-327B486EF0A4";
layerId = "DBAE24BC-D849-450C-B86F-F7E6A06E4F7A";
name = "Medium{95,100}";
paths = (
{
closed = 1;
nodes = (
"271 -7 OFFCURVE",
"364 31 OFFCURVE",
"362 173 CURVE",
"362 327 LINE SMOOTH",
"364 469 OFFCURVE",
"271 507 OFFCURVE",
"192 507 CURVE SMOOTH",
"93 507 OFFCURVE",
"34 443 OFFCURVE",
"34 339 CURVE SMOOTH",
"34 161 LINE SMOOTH",
"34 57 OFFCURVE",
"93 -7 OFFCURVE",
"192 -7 CURVE SMOOTH"
);
},
{
closed = 1;
nodes = (
"165 79 OFFCURVE",
"128 115 OFFCURVE",
"128 174 CURVE SMOOTH",
"128 326 LINE SMOOTH",
"128 385 OFFCURVE",
"165 421 OFFCURVE",
"219 421 CURVE SMOOTH",
"278 421 OFFCURVE",
"316 385 OFFCURVE",
"316 327 CURVE SMOOTH",
"316 173 LINE SMOOTH",
"316 115 OFFCURVE",
"278 79 OFFCURVE",
"219 79 CURVE SMOOTH"
);
},
{
closed = 1;
nodes = (
"411 2 LINE",
"411 500 LINE",
"316 500 LINE",
"316 2 LINE"
);
}
);
width = 478;
},
{
associatedMasterId = "0AA1BC64-CAAD-4CC7-A9F9-D02EEAE6C823";
layerId = "11D26963-0C78-49B0-A46D-1D05607464A9";
name = "Medium{95,100}";
paths = (
{
closed = 1;
nodes = (
"271 -7 OFFCURVE",
"364 31 OFFCURVE",
"362 173 CURVE",
"362 327 LINE SMOOTH",
"364 469 OFFCURVE",
"271 507 OFFCURVE",
"192 507 CURVE SMOOTH",
"93 507 OFFCURVE",
"34 443 OFFCURVE",
"34 339 CURVE SMOOTH",
"34 161 LINE SMOOTH",
"34 57 OFFCURVE",
"93 -7 OFFCURVE",
"192 -7 CURVE SMOOTH"
);
},
{
closed = 1;
nodes = (
"165 79 OFFCURVE",
"128 115 OFFCURVE",
"128 174 CURVE SMOOTH",
"128 326 LINE SMOOTH",
"128 385 OFFCURVE",
"165 421 OFFCURVE",
"219 421 CURVE SMOOTH",
"278 421 OFFCURVE",
"316 385 OFFCURVE",
"316 327 CURVE SMOOTH",
"316 173 LINE SMOOTH",
"316 115 OFFCURVE",
"278 79 OFFCURVE",
"219 79 CURVE SMOOTH"
);
},
{
closed = 1;
nodes = (
"411 2 LINE",
"411 500 LINE",
"316 500 LINE",
"316 2 LINE"
);
}
);
width = 478;
},
{
layerId = "BFB8CE7D-EB78-4D14-82B8-6F5DF8ED4559";
paths = (
{
closed = 1;
nodes = (
"273 -7 OFFCURVE",
"366 31 OFFCURVE",
"364 173 CURVE",
"364 327 LINE SMOOTH",
"366 469 OFFCURVE",
"273 507 OFFCURVE",
"194 507 CURVE SMOOTH",
"95 507 OFFCURVE",
"36 443 OFFCURVE",
"36 339 CURVE SMOOTH",
"36 161 LINE SMOOTH",
"36 57 OFFCURVE",
"95 -7 OFFCURVE",
"194 -7 CURVE SMOOTH"
);
},
{
closed = 1;
nodes = (
"168 83 OFFCURVE",
"130 121 OFFCURVE",
"130 178 CURVE SMOOTH",
"130 322 LINE SMOOTH",
"130 379 OFFCURVE",
"168 417 OFFCURVE",
"224 417 CURVE SMOOTH",
"280 417 OFFCURVE",
"318 379 OFFCURVE",
"318 323 CURVE SMOOTH",
"318 177 LINE SMOOTH",
"318 121 OFFCURVE",
"280 83 OFFCURVE",
"224 83 CURVE SMOOTH"
);
},
{
closed = 1;
nodes = (
"413 2 LINE",
"413 500 LINE",
"318 500 LINE",
"318 2 LINE"
);
}
);
width = 453;
}
);
leftKerningGroup = a;
rightKerningGroup = a;
unicode = 0061;
},
{
color = 4;
glyphname = b;
lastChange = "2016-11-12 10:00:43 +0000";
layers = (
{
layerId = "262880E7-CFE1-4BDA-902E-E24798F3240A";
paths = (
{
closed = 1;
nodes = (
"369 -5 OFFCURVE",
"434 55 OFFCURVE",
"434 158 CURVE SMOOTH",
"434 342 LINE SMOOTH",
"434 445 OFFCURVE",
"371 508 OFFCURVE",
"268 508 CURVE SMOOTH",
"166 508 OFFCURVE",
"103 445 OFFCURVE",
"103 342 CURVE SMOOTH",
"103 158 LINE SMOOTH",
"103 55 OFFCURVE",
"164 -5 OFFCURVE",
"266 -5 CURVE SMOOTH"
);
},
{
closed = 1;
nodes = (
"122 3 LINE",
"122 700 LINE",
"100 700 LINE",
"100 3 LINE"
);
},
{
closed = 1;
nodes = (
"177 13 OFFCURVE",
"122 66 OFFCURVE",
"122 155 CURVE SMOOTH",
"122 345 LINE SMOOTH",
"122 433 OFFCURVE",
"177 487 OFFCURVE",
"267 487 CURVE SMOOTH",
"357 487 OFFCURVE",
"412 433 OFFCURVE",
"412 345 CURVE SMOOTH",
"412 155 LINE SMOOTH",
"412 67 OFFCURVE",
"357 13 OFFCURVE",
"267 13 CURVE SMOOTH"
);
}
);
width = 524;
},
{
layerId = "4E2227F3-52E4-4048-A8EE-327B486EF0A4";
paths = (
{
closed = 1;
nodes = (
"410 -8 OFFCURVE",
"454 66 OFFCURVE",
"454 177 CURVE SMOOTH",
"454 323 LINE SMOOTH",
"454 434 OFFCURVE",
"410 508 OFFCURVE",
"305 508 CURVE SMOOTH",
"262 508 OFFCURVE",
"167 501 OFFCURVE",
"171 303 CURVE SMOOTH",
"171 197 LINE",
"167 -1 OFFCURVE",
"262 -8 OFFCURVE",
"305 -8 CURVE SMOOTH"
);
},
{
closed = 1;
nodes = (
"208 0 LINE",
"208 700 LINE",
"20 700 LINE",
"20 0 LINE"
);
},
{
closed = 1;
nodes = (
"220 164 OFFCURVE",
"208 177 OFFCURVE",
"208 197 CURVE SMOOTH",
"208 303 LINE SMOOTH",
"208 323 OFFCURVE",
"220 336 OFFCURVE",
"237 336 CURVE SMOOTH",
"254 336 OFFCURVE",
"266 323 OFFCURVE",
"266 303 CURVE SMOOTH",
"266 197 LINE SMOOTH",
"266 177 OFFCURVE",
"254 164 OFFCURVE",
"237 164 CURVE SMOOTH"
);
}
);
width = 472;
},
{
associatedMasterId = "4E2227F3-52E4-4048-A8EE-327B486EF0A4";
layerId = "C9B95487-1CBE-4CC1-A755-B5A4BAE86EA6";
name = "Medium{95,100}";
paths = (
{
closed = 1;
nodes = (
"387 -7 OFFCURVE",
"446 57 OFFCURVE",
"446 161 CURVE SMOOTH",
"446 339 LINE SMOOTH",
"446 443 OFFCURVE",
"387 507 OFFCURVE",
"288 507 CURVE SMOOTH",
"209 507 OFFCURVE",
"116 469 OFFCURVE",
"118 327 CURVE SMOOTH",
"118 173 LINE",
"116 31 OFFCURVE",
"209 -7 OFFCURVE",
"288 -7 CURVE SMOOTH"
);
},
{
closed = 1;
nodes = (
"164 0 LINE",
"164 700 LINE",
"69 700 LINE",
"69 0 LINE"
);
},
{
closed = 1;
nodes = (
"202 79 OFFCURVE",
"164 115 OFFCURVE",
"164 173 CURVE SMOOTH",
"164 327 LINE SMOOTH",
"164 385 OFFCURVE",
"202 421 OFFCURVE",
"261 421 CURVE SMOOTH",
"315 421 OFFCURVE",
"352 385 OFFCURVE",
"352 326 CURVE SMOOTH",
"352 174 LINE SMOOTH",
"352 115 OFFCURVE",
"315 79 OFFCURVE",
"261 79 CURVE SMOOTH"
);
}
);
width = 480;
},
{
associatedMasterId = "0AA1BC64-CAAD-4CC7-A9F9-D02EEAE6C823";
layerId = "59665571-F91B-4C0A-BBCC-307E5EF4201D";
name = "Medium{95,100}";
paths = (
{
closed = 1;
nodes = (
"387 -7 OFFCURVE",
"446 57 OFFCURVE",
"446 161 CURVE SMOOTH",
"446 339 LINE SMOOTH",
"446 443 OFFCURVE",
"387 507 OFFCURVE",
"288 507 CURVE SMOOTH",
"209 507 OFFCURVE",
"116 469 OFFCURVE",
"118 327 CURVE SMOOTH",
"118 173 LINE",
"116 31 OFFCURVE",
"209 -7 OFFCURVE",
"288 -7 CURVE SMOOTH"
);
},
{
closed = 1;
nodes = (
"164 0 LINE",
"164 700 LINE",
"69 700 LINE",
"69 0 LINE"
);
},
{
closed = 1;
nodes = (
"202 79 OFFCURVE",
"164 115 OFFCURVE",
"164 173 CURVE SMOOTH",
"164 327 LINE SMOOTH",
"164 385 OFFCURVE",
"202 421 OFFCURVE",
"261 421 CURVE SMOOTH",
"315 421 OFFCURVE",
"352 385 OFFCURVE",
"352 326 CURVE SMOOTH",
"352 174 LINE SMOOTH",
"352 115 OFFCURVE",
"315 79 OFFCURVE",
"261 79 CURVE SMOOTH"
);
}
);
width = 480;
},
{
layerId = "BFB8CE7D-EB78-4D14-82B8-6F5DF8ED4559";
paths = (
{
closed = 1;
nodes = (
"358 -7 OFFCURVE",
"417 57 OFFCURVE",
"417 161 CURVE SMOOTH",
"417 339 LINE SMOOTH",
"417 443 OFFCURVE",
"358 507 OFFCURVE",
"259 507 CURVE SMOOTH",
"180 507 OFFCURVE",
"87 469 OFFCURVE",
"89 327 CURVE SMOOTH",
"89 173 LINE",
"87 31 OFFCURVE",
"180 -7 OFFCURVE",
"259 -7 CURVE SMOOTH"
);
},
{
closed = 1;
nodes = (
"135 0 LINE",
"135 700 LINE",
"40 700 LINE",
"40 0 LINE"
);
},
{
closed = 1;
nodes = (
"173 83 OFFCURVE",
"135 121 OFFCURVE",
"135 177 CURVE SMOOTH",
"135 323 LINE SMOOTH",
"135 379 OFFCURVE",
"173 417 OFFCURVE",
"229 417 CURVE SMOOTH",
"285 417 OFFCURVE",
"323 379 OFFCURVE",
"323 322 CURVE SMOOTH",
"323 178 LINE SMOOTH",
"323 121 OFFCURVE",
"285 83 OFFCURVE",
"229 83 CURVE SMOOTH"
);
}
);
width = 453;
}
);
unicode = 0062;
},
{
color = 4;
glyphname = c;
lastChange = "2016-11-12 09:55:46 +0000";
layers = (
{
layerId = "262880E7-CFE1-4BDA-902E-E24798F3240A";
paths = (
{
closed = 1;
nodes = (
"352 -8 OFFCURVE",
"420 58 OFFCURVE",
"420 138 CURVE SMOOTH",
"420 139 LINE",
"398 139 LINE",
"398 135 LINE SMOOTH",
"398 70 OFFCURVE",
"338 13 OFFCURVE",
"250 13 CURVE SMOOTH",
"162 13 OFFCURVE",
"102 70 OFFCURVE",
"102 155 CURVE SMOOTH",
"102 345 LINE SMOOTH",
"102 430 OFFCURVE",
"162 487 OFFCURVE",
"250 487 CURVE SMOOTH",
"338 487 OFFCURVE",
"398 430 OFFCURVE",
"398 365 CURVE SMOOTH",
"398 361 LINE",
"420 361 LINE",
"420 362 LINE SMOOTH",
"420 442 OFFCURVE",
"352 508 OFFCURVE",
"250 508 CURVE SMOOTH",
"148 508 OFFCURVE",
"80 442 OFFCURVE",
"80 342 CURVE SMOOTH",
"80 158 LINE SMOOTH",
"80 58 OFFCURVE",
"148 -8 OFFCURVE",
"250 -8 CURVE SMOOTH"
);
}
);
width = 490;
},
{
layerId = "4E2227F3-52E4-4048-A8EE-327B486EF0A4";
paths = (
{
closed = 1;
nodes = (
"368 -7 OFFCURVE",
"456 59 OFFCURVE",
"456 172 CURVE SMOOTH",
"456 223 LINE",
"268 223 LINE",
"268 185 LINE SMOOTH",
"268 166 OFFCURVE",
"255 153 OFFCURVE",
"236 153 CURVE SMOOTH",
"217 153 OFFCURVE",
"204 166 OFFCURVE",
"204 185 CURVE SMOOTH",
"204 315 LINE SMOOTH",
"204 334 OFFCURVE",
"217 347 OFFCURVE",
"236 347 CURVE SMOOTH",
"255 347 OFFCURVE",
"268 334 OFFCURVE",
"268 315 CURVE SMOOTH",
"268 274 LINE",
"456 274 LINE",
"456 328 LINE SMOOTH",
"456 442 OFFCURVE",
"368 508 OFFCURVE",
"236 508 CURVE SMOOTH",
"104 508 OFFCURVE",
"16 442 OFFCURVE",
"16 328 CURVE SMOOTH",
"16 172 LINE SMOOTH",
"16 59 OFFCURVE",
"104 -7 OFFCURVE",
"236 -7 CURVE SMOOTH"
);
}
);
width = 470;
},
{
layerId = "BFB8CE7D-EB78-4D14-82B8-6F5DF8ED4559";
paths = (
{
closed = 1;
nodes = (
"339 -8 OFFCURVE",
"416 58 OFFCURVE",
"416 153 CURVE SMOOTH",
"416 176 LINE",
"321 176 LINE",
"321 165 LINE SMOOTH",
"321 120 OFFCURVE",
"282 82 OFFCURVE",
"224 82 CURVE SMOOTH",
"166 82 OFFCURVE",
"127 120 OFFCURVE",
"127 176 CURVE SMOOTH",
"127 324 LINE SMOOTH",
"127 380 OFFCURVE",
"166 418 OFFCURVE",
"224 418 CURVE SMOOTH",
"282 418 OFFCURVE",
"321 380 OFFCURVE",
"321 335 CURVE SMOOTH",
"321 323 LINE",
"416 323 LINE",
"416 347 LINE SMOOTH",
"416 442 OFFCURVE",
"339 508 OFFCURVE",
"224 508 CURVE SMOOTH",
"109 508 OFFCURVE",
"32 442 OFFCURVE",
"32 336 CURVE SMOOTH",
"32 164 LINE SMOOTH",
"32 58 OFFCURVE",
"109 -8 OFFCURVE",
"224 -8 CURVE SMOOTH"
);
}
);
width = 444;
}
);
leftKerningGroup = c;
rightKerningGroup = c;
unicode = 0063;
},
{
color = 4;
glyphname = e;
lastChange = "2016-11-12 10:02:34 +0000";
layers = (
{
layerId = "262880E7-CFE1-4BDA-902E-E24798F3240A";
paths = (
{
closed = 1;
nodes = (
"334 -8 OFFCURVE",
"402 58 OFFCURVE",
"402 158 CURVE SMOOTH",
"402 159 LINE",
"380 159 LINE",
"380 155 LINE SMOOTH",
"380 70 OFFCURVE",
"320 13 OFFCURVE",
"231 13 CURVE SMOOTH",
"142 13 OFFCURVE",
"82 70 OFFCURVE",
"82 155 CURVE SMOOTH",
"82 345 LINE SMOOTH",
"82 430 OFFCURVE",
"142 487 OFFCURVE",
"231 487 CURVE SMOOTH",
"320 487 OFFCURVE",
"380 430 OFFCURVE",
"380 345 CURVE SMOOTH",
"380 262 LINE",
"72 262 LINE",
"72 241 LINE",
"402 241 LINE",
"402 342 LINE SMOOTH",
"402 442 OFFCURVE",
"334 508 OFFCURVE",
"231 508 CURVE SMOOTH",
"128 508 OFFCURVE",
"60 442 OFFCURVE",
"60 342 CURVE SMOOTH",
"60 158 LINE SMOOTH",
"60 58 OFFCURVE",
"128 -8 OFFCURVE",
"231 -8 CURVE SMOOTH"
);
}
);
width = 472;
},
{
layerId = "4E2227F3-52E4-4048-A8EE-327B486EF0A4";
paths = (
{
closed = 1;
nodes = (
"368 -7 OFFCURVE",
"456 59 OFFCURVE",
"456 172 CURVE SMOOTH",
"456 199 LINE",
"268 199 LINE",
"268 185 LINE SMOOTH",
"268 166 OFFCURVE",
"255 153 OFFCURVE",
"236 153 CURVE SMOOTH",
"217 153 OFFCURVE",
"204 166 OFFCURVE",
"204 185 CURVE SMOOTH",
"204 315 LINE SMOOTH",
"204 334 OFFCURVE",
"217 347 OFFCURVE",
"236 347 CURVE SMOOTH",
"255 347 OFFCURVE",
"268 334 OFFCURVE",
"268 315 CURVE SMOOTH",
"268 285 LINE",
"132 285 LINE",
"132 219 LINE",
"456 219 LINE",
"456 328 LINE SMOOTH",
"456 442 OFFCURVE",
"368 508 OFFCURVE",
"236 508 CURVE SMOOTH",
"104 508 OFFCURVE",
"16 442 OFFCURVE",
"16 328 CURVE SMOOTH",
"16 172 LINE SMOOTH",
"16 59 OFFCURVE",
"104 -7 OFFCURVE",
"236 -7 CURVE SMOOTH"
);
}
);
width = 472;
},
{
layerId = "BFB8CE7D-EB78-4D14-82B8-6F5DF8ED4559";
paths = (
{
closed = 1;
nodes = (
"339 -8 OFFCURVE",
"416 56 OFFCURVE",
"416 152 CURVE SMOOTH",
"416 164 LINE",
"322 164 LINE",
"322 164 LINE SMOOTH",
"322 115 OFFCURVE",
"283 82 OFFCURVE",
"224 82 CURVE SMOOTH",
"165 82 OFFCURVE",
"126 120 OFFCURVE",
"126 176 CURVE SMOOTH",
"126 324 LINE SMOOTH",
"126 380 OFFCURVE",
"165 418 OFFCURVE",
"224 418 CURVE SMOOTH",
"283 418 OFFCURVE",
"322 380 OFFCURVE",
"322 324 CURVE SMOOTH",
"322 296 LINE",
"89 296 LINE",
"89 219 LINE",
"416 219 LINE",
"416 336 LINE SMOOTH",
"416 439 OFFCURVE",
"339 508 OFFCURVE",
"224 508 CURVE SMOOTH",
"109 508 OFFCURVE",
"32 439 OFFCURVE",
"32 336 CURVE SMOOTH",
"32 164 LINE SMOOTH",
"32 61 OFFCURVE",
"109 -8 OFFCURVE",
"224 -8 CURVE SMOOTH"
);
}
);
width = 448;
}
);
leftKerningGroup = c;
rightKerningGroup = e;
unicode = 0065;
},
{
color = 4;
glyphname = f;
lastChange = "2016-11-12 10:03:01 +0000";
layers = (
{
layerId = "262880E7-CFE1-4BDA-902E-E24798F3240A";
paths = (
{
closed = 1;
nodes = (
"182 0 LINE",
"182 550 LINE SMOOTH",
"182 637 OFFCURVE",
"212 689 OFFCURVE",
"331 689 CURVE",
"331 710 LINE",
"198 710 OFFCURVE",
"160 650 OFFCURVE",
"160 550 CURVE SMOOTH",
"160 0 LINE"
);
},
{
closed = 1;
nodes = (
"301 479 LINE",
"301 500 LINE",
"81 500 LINE",
"81 479 LINE"
);
}
);
width = 321;
},
{
layerId = "4E2227F3-52E4-4048-A8EE-327B486EF0A4";
paths = (
{
closed = 1;
nodes = (
"242 0 LINE",
"242 522 LINE",
"242 542 OFFCURVE",
"263 548 OFFCURVE",
"286 548 CURVE",
"286 700 LINE",
"138 707 OFFCURVE",
"54 683 OFFCURVE",
"54 556 CURVE",
"54 0 LINE"
);
},
{
closed = 1;
nodes = (
"306 340 LINE",
"306 500 LINE",
"0 500 LINE",
"0 340 LINE"
);
}
);
width = 310;
},
{
layerId = "BFB8CE7D-EB78-4D14-82B8-6F5DF8ED4559";
paths = (
{
closed = 1;
nodes = (
"167 0 LINE",
"167 524 LINE SMOOTH",
"167 600 OFFCURVE",
"190 615 OFFCURVE",
"270 617 CURVE",
"270 706 LINE",
"130 709 OFFCURVE",
"72 664 OFFCURVE",
"72 553 CURVE SMOOTH",
"72 0 LINE"
);
},
{
closed = 1;
nodes = (
"262 410 LINE",
"262 500 LINE",
"4 500 LINE",
"4 410 LINE"
);
}
);
width = 270;
}
);
leftKerningGroup = f;
unicode = 0066;
},
{
color = 4;
glyphname = g;
lastChange = "2016-11-12 10:08:50 +0000";
layers = (
{
layerId = "262880E7-CFE1-4BDA-902E-E24798F3240A";
paths = (
{
closed = 1;
nodes = (
"167 16 OFFCURVE",
"112 70 OFFCURVE",
"112 158 CURVE SMOOTH",
"112 342 LINE SMOOTH",
"112 430 OFFCURVE",
"167 484 OFFCURVE",
"257 484 CURVE SMOOTH",
"347 484 OFFCURVE",
"402 429 OFFCURVE",
"402 342 CURVE SMOOTH",
"402 158 LINE SMOOTH",
"402 70 OFFCURVE",
"347 16 OFFCURVE",
"257 16 CURVE SMOOTH"
);
},
{
closed = 1;
nodes = (
"351 -206 OFFCURVE",
"424 -140 OFFCURVE",
"424 0 CURVE SMOOTH",
"424 500 LINE",
"402 500 LINE",
"402 0 LINE SMOOTH",
"402 -126 OFFCURVE",
"336 -185 OFFCURVE",
"217 -181 CURVE",
"217 -202 LINE"
);
},
{
closed = 1;
nodes = (
"358 -5 OFFCURVE",
"421 58 OFFCURVE",
"421 161 CURVE SMOOTH",
"421 339 LINE SMOOTH",
"421 442 OFFCURVE",
"358 505 OFFCURVE",
"256 505 CURVE SMOOTH",
"153 505 OFFCURVE",
"90 442 OFFCURVE",
"90 339 CURVE SMOOTH",
"90 161 LINE SMOOTH",
"90 58 OFFCURVE",
"153 -5 OFFCURVE",
"256 -5 CURVE SMOOTH"
);
}
);
width = 524;
},
{
layerId = "4E2227F3-52E4-4048-A8EE-327B486EF0A4";
paths = (
{
closed = 1;
nodes = (
"218 164 OFFCURVE",
"206 177 OFFCURVE",
"206 197 CURVE SMOOTH",
"206 303 LINE SMOOTH",
"206 323 OFFCURVE",
"218 336 OFFCURVE",
"235 336 CURVE SMOOTH",
"252 336 OFFCURVE",
"264 323 OFFCURVE",
"264 303 CURVE SMOOTH",
"264 197 LINE SMOOTH",
"264 177 OFFCURVE",
"252 164 OFFCURVE",
"235 164 CURVE SMOOTH"
);
},
{
closed = 1;
nodes = (
"395 -226 OFFCURVE",
"452 -115 OFFCURVE",
"452 34 CURVE SMOOTH",
"452 500 LINE",
"264 500 LINE",
"264 34 LINE SMOOTH",
"264 -14 OFFCURVE",
"247 -44 OFFCURVE",
"103 -40 CURVE",
"103 -207 LINE"
);
},
{
closed = 1;
nodes = (
"240 -8 OFFCURVE",
"301 21 OFFCURVE",
"301 227 CURVE",
"301 303 LINE SMOOTH",
"301 501 OFFCURVE",
"210 508 OFFCURVE",
"167 508 CURVE SMOOTH",
"62 508 OFFCURVE",
"18 434 OFFCURVE",
"18 323 CURVE SMOOTH",
"18 177 LINE SMOOTH",
"18 66 OFFCURVE",
"62 -8 OFFCURVE",
"167 -8 CURVE SMOOTH"
);
}
);
width = 472;
},
{
associatedMasterId = "0AA1BC64-CAAD-4CC7-A9F9-D02EEAE6C823";
layerId = "D222AA2C-9CBF-40C1-A665-26DCBD1A5E3F";
name = "medium{95,100}";
paths = (
{
closed = 1;
nodes = (
"181 79 OFFCURVE",
"144 115 OFFCURVE",
"144 174 CURVE SMOOTH",
"144 326 LINE SMOOTH",
"144 385 OFFCURVE",
"181 421 OFFCURVE",
"235 421 CURVE SMOOTH",
"294 421 OFFCURVE",
"332 385 OFFCURVE",
"332 327 CURVE SMOOTH",
"332 173 LINE SMOOTH",
"332 115 OFFCURVE",
"294 79 OFFCURVE",
"235 79 CURVE SMOOTH"
);
},
{
closed = 1;
nodes = (
"360 -215 OFFCURVE",
"426 -129 OFFCURVE",
"426 15 CURVE SMOOTH",
"426 500 LINE",
"332 500 LINE",
"332 15 LINE SMOOTH",
"332 -77 OFFCURVE",
"287 -123 OFFCURVE",
"157 -119 CURVE",
"157 -204 LINE"
);
},
{
closed = 1;
nodes = (
"287 -7 OFFCURVE",
"380 31 OFFCURVE",
"378 173 CURVE",
"378 327 LINE SMOOTH",
"378 469 OFFCURVE",
"287 507 OFFCURVE",
"208 507 CURVE SMOOTH",
"109 507 OFFCURVE",
"50 443 OFFCURVE",
"50 339 CURVE SMOOTH",
"50 161 LINE SMOOTH",
"50 57 OFFCURVE",
"109 -7 OFFCURVE",
"208 -7 CURVE SMOOTH"
);
}
);
width = 480;
},
{
layerId = "BFB8CE7D-EB78-4D14-82B8-6F5DF8ED4559";
paths = (
{
closed = 1;
nodes = (
"166 83 OFFCURVE",
"130 119 OFFCURVE",
"130 178 CURVE SMOOTH",
"130 322 LINE SMOOTH",
"130 381 OFFCURVE",
"166 417 OFFCURVE",
"224 417 CURVE SMOOTH",
"282 417 OFFCURVE",
"318 381 OFFCURVE",
"318 323 CURVE SMOOTH",
"318 177 LINE SMOOTH",
"318 119 OFFCURVE",
"282 83 OFFCURVE",
"224 83 CURVE SMOOTH"
);
},
{
closed = 1;
nodes = (
"343 -205 OFFCURVE",
"412 -129 OFFCURVE",
"412 27 CURVE SMOOTH",
"412 500 LINE",
"318 500 LINE",
"318 15 LINE SMOOTH",
"318 -85 OFFCURVE",
"272 -119 OFFCURVE",
"143 -119 CURVE",
"143 -204 LINE"
);
},
{
closed = 1;
nodes = (
"273 -7 OFFCURVE",
"366 31 OFFCURVE",
"364 173 CURVE",
"364 327 LINE SMOOTH",
"364 469 OFFCURVE",
"273 507 OFFCURVE",
"194 507 CURVE SMOOTH",
"95 507 OFFCURVE",
"36 443 OFFCURVE",
"36 339 CURVE SMOOTH",
"36 161 LINE SMOOTH",
"36 57 OFFCURVE",
"95 -7 OFFCURVE",
"194 -7 CURVE SMOOTH"
);
}
);
width = 452;
}
);
leftKerningGroup = g;
unicode = 0067;
},
{
color = 4;
glyphname = h;
lastChange = "2016-11-12 10:01:07 +0000";
layers = (
{
layerId = "262880E7-CFE1-4BDA-902E-E24798F3240A";
paths = (
{
closed = 1;
nodes = (
"432 0 LINE",
"432 344 LINE SMOOTH",
"432 443 OFFCURVE",
"373 504 OFFCURVE",
"278 504 CURVE SMOOTH",
"176 504 OFFCURVE",
"106 443 OFFCURVE",
"106 343 CURVE",
"122 343 LINE",
"122 430 OFFCURVE",
"187 483 OFFCURVE",
"276 483 CURVE SMOOTH",
"359 483 OFFCURVE",
"410 429 OFFCURVE",
"410 341 CURVE SMOOTH",
"410 0 LINE"
);
},
{
closed = 1;
nodes = (
"122 0 LINE",
"122 700 LINE",
"100 700 LINE",
"100 0 LINE"
);
}
);
width = 522;
},
{
layerId = "4E2227F3-52E4-4048-A8EE-327B486EF0A4";
paths = (
{
closed = 1;
nodes = (
"454 0 LINE",
"454 328 LINE SMOOTH",
"454 439 OFFCURVE",
"410 508 OFFCURVE",
"305 508 CURVE SMOOTH",
"262 508 OFFCURVE",
"167 501 OFFCURVE",
"171 303 CURVE",
"208 303 LINE",
"208 324 OFFCURVE",
"218 336 OFFCURVE",
"238 336 CURVE SMOOTH",
"256 336 OFFCURVE",
"266 324 OFFCURVE",
"266 303 CURVE SMOOTH",
"266 0 LINE"
);
},
{
closed = 1;
nodes = (
"208 0 LINE",
"208 700 LINE",
"20 700 LINE",
"20 0 LINE"
);
}
);
width = 472;
},
{
associatedMasterId = "0AA1BC64-CAAD-4CC7-A9F9-D02EEAE6C823";
layerId = "EAD5919B-98B6-482B-A606-03B8BA13BBE2";
name = "Medium{95,100}";
paths = (
{
closed = 1;
nodes = (
"430 0 LINE",
"430 339 LINE SMOOTH",
"430 443 OFFCURVE",
"371 507 OFFCURVE",
"272 507 CURVE SMOOTH",
"193 507 OFFCURVE",
"100 469 OFFCURVE",
"102 327 CURVE",
"148 327 LINE",
"148 385 OFFCURVE",
"186 421 OFFCURVE",
"245 421 CURVE SMOOTH",
"299 421 OFFCURVE",
"336 385 OFFCURVE",
"336 326 CURVE SMOOTH",
"336 0 LINE"
);
},
{
closed = 1;
nodes = (
"148 0 LINE",
"148 700 LINE",
"54 700 LINE",
"54 0 LINE"
);
}
);
width = 470;
},
{
layerId = "BFB8CE7D-EB78-4D14-82B8-6F5DF8ED4559";
paths = (
{
closed = 1;
nodes = (
"416 0 LINE",
"416 339 LINE SMOOTH",
"416 443 OFFCURVE",
"357 507 OFFCURVE",
"258 507 CURVE SMOOTH",
"179 507 OFFCURVE",
"86 469 OFFCURVE",
"88 323 CURVE",
"134 323 LINE",
"134 381 OFFCURVE",
"172 417 OFFCURVE",
"231 417 CURVE SMOOTH",
"285 417 OFFCURVE",
"322 381 OFFCURVE",
"322 322 CURVE SMOOTH",
"322 0 LINE"
);
},
{
closed = 1;
nodes = (
"134 0 LINE",
"134 700 LINE",
"40 700 LINE",
"40 0 LINE"
);
}
);
width = 452;
}
);
leftKerningGroup = b;
rightKerningGroup = h;
unicode = 0068;
},
{
glyphname = i;
lastChange = "2016-11-12 10:02:34 +0000";
layers = (
{
layerId = "262880E7-CFE1-4BDA-902E-E24798F3240A";
paths = (
{
closed = 1;
nodes = (
"122 0 LINE",
"122 500 LINE",
"100 500 LINE",
"100 0 LINE"
);
},
{
closed = 1;
nodes = (
"128 659 OFFCURVE",
"142 673 OFFCURVE",
"142 690 CURVE SMOOTH",
"142 706 OFFCURVE",
"128 720 OFFCURVE",
"111 720 CURVE SMOOTH",
"94 720 OFFCURVE",
"80 706 OFFCURVE",
"80 690 CURVE SMOOTH",
"80 673 OFFCURVE",
"94 659 OFFCURVE",
"111 659 CURVE SMOOTH"
);
}
);
width = 222;
},
{
layerId = "4E2227F3-52E4-4048-A8EE-327B486EF0A4";
paths = (
{
closed = 1;
nodes = (
"208 0 LINE",
"208 500 LINE",
"20 500 LINE",
"20 0 LINE"
);
},
{
closed = 1;
nodes = (
"177 516 OFFCURVE",
"219 558 OFFCURVE",
"219 621 CURVE SMOOTH",
"219 684 OFFCURVE",
"177 726 OFFCURVE",
"114 726 CURVE SMOOTH",
"51 726 OFFCURVE",
"9 684 OFFCURVE",
"9 621 CURVE SMOOTH",
"9 558 OFFCURVE",
"51 516 OFFCURVE",
"114 516 CURVE SMOOTH"
);
}
);
width = 230;
},
{
layerId = "BFB8CE7D-EB78-4D14-82B8-6F5DF8ED4559";
paths = (
{
closed = 1;
nodes = (
"134 0 LINE",
"134 500 LINE",
"40 500 LINE",
"40 0 LINE"
);
},
{
closed = 1;
nodes = (
"124 597 OFFCURVE",
"150 623 OFFCURVE",
"150 660 CURVE SMOOTH",
"150 696 OFFCURVE",
"124 723 OFFCURVE",
"87 723 CURVE SMOOTH",
"50 723 OFFCURVE",
"24 696 OFFCURVE",
"24 660 CURVE SMOOTH",
"24 623 OFFCURVE",
"50 597 OFFCURVE",
"87 597 CURVE SMOOTH"
);
}
);
width = 178;
}
);
leftKerningGroup = i;
unicode = 0069;
},
{
glyphname = j;
lastChange = "2016-11-12 09:55:46 +0000";
layers = (
{
layerId = "262880E7-CFE1-4BDA-902E-E24798F3240A";
paths = (
{
closed = 1;
nodes = (
"90 -211 OFFCURVE",
"142 -159 OFFCURVE",
"142 -74 CURVE SMOOTH",
"142 500 LINE",
"120 500 LINE",
"120 -74 LINE SMOOTH",
"120 -146 OFFCURVE",
"77 -190 OFFCURVE",
"6 -190 CURVE",
"6 -211 LINE"
);
},
{
closed = 1;
nodes = (
"150 669 OFFCURVE",
"162 681 OFFCURVE",
"162 700 CURVE SMOOTH",
"162 719 OFFCURVE",
"150 730 OFFCURVE",
"131 730 CURVE SMOOTH",
"112 730 OFFCURVE",
"100 719 OFFCURVE",
"100 700 CURVE SMOOTH",
"100 681 OFFCURVE",
"112 669 OFFCURVE",
"131 669 CURVE SMOOTH"
);
}
);
width = 242;
},
{
layerId = "4E2227F3-52E4-4048-A8EE-327B486EF0A4";
paths = (
{
closed = 1;
nodes = (
"205 -210 OFFCURVE",
"212 -120 OFFCURVE",
"212 29 CURVE SMOOTH",
"212 495 LINE",
"24 495 LINE",
"24 29 LINE SMOOTH",
"24 -19 OFFCURVE",
"7 -49 OFFCURVE",
"-77 -41 CURVE",
"-77 -201 LINE"
);
},
{
closed = 1;
nodes = (
"180 534 OFFCURVE",
"223 581 OFFCURVE",
"223 639 CURVE SMOOTH",
"223 697 OFFCURVE",
"171 743 OFFCURVE",
"118 743 CURVE SMOOTH",
"65 743 OFFCURVE",
"13 697 OFFCURVE",
"13 639 CURVE SMOOTH",
"13 581 OFFCURVE",
"56 534 OFFCURVE",
"118 534 CURVE SMOOTH"
);
}
);
width = 232;
},
{
layerId = "BFB8CE7D-EB78-4D14-82B8-6F5DF8ED4559";
paths = (
{
closed = 1;
nodes = (
"110 -211 OFFCURVE",
"143 -142 OFFCURVE",
"143 -29 CURVE SMOOTH",
"143 498 LINE",
"48 498 LINE",
"48 -29 LINE SMOOTH",
"48 -91 OFFCURVE",
"16 -128 OFFCURVE",
"-60 -125 CURVE",
"-60 -207 LINE"
);
},
{
closed = 1;
nodes = (
"133 610 OFFCURVE",
"159 637 OFFCURVE",
"159 673 CURVE SMOOTH",
"159 709 OFFCURVE",
"129 736 OFFCURVE",
"95 736 CURVE SMOOTH",
"61 736 OFFCURVE",
"32 709 OFFCURVE",
"32 673 CURVE SMOOTH",
"32 637 OFFCURVE",
"58 610 OFFCURVE",
"95 610 CURVE SMOOTH"
);
}
);
width = 183;
}
);
leftKerningGroup = j;
unicode = 006A;
},
{
glyphname = k;
lastChange = "2016-11-12 09:55:46 +0000";
layers = (
{
guideLines = (
{
angle = 180;
position = "{287, 0}";
showMeasurement = 1;
},
{
angle = 180;
position = "{233, 332}";
showMeasurement = 1;
}
);
layerId = "262880E7-CFE1-4BDA-902E-E24798F3240A";
paths = (
{
closed = 1;
nodes = (
"353 500 LINE",
"122 269 LINE",
"122 700 LINE",
"100 700 LINE",
"100 0 LINE",
"122 0 LINE",
"122 231 LINE",
"353 0 LINE",
"379 0 LINE",
"129 250 LINE",
"379 500 LINE"
);
}
);
width = 379;
},
{
layerId = "4E2227F3-52E4-4048-A8EE-327B486EF0A4";
paths = (
{
closed = 1;
nodes = (
"270 500 LINE",
"208 355 LINE",
"208 700 LINE",
"20 700 LINE",
"20 0 LINE",
"208 0 LINE",
"208 125 LINE",
"264 0 LINE",
"474 0 LINE",
"325 251 LINE",
"476 500 LINE"
);
}
);
width = 476;
},
{
associatedMasterId = "4E2227F3-52E4-4048-A8EE-327B486EF0A4";
layerId = "3F40B02A-8325-4017-AA07-0CC2F5060827";
name = "Medium{85,100}";
paths = (
{
closed = 1;
nodes = (
"299 500 LINE",
"150 297 LINE",
"150 700 LINE",
"66 700 LINE",
"66 0 LINE",
"150 0 LINE",
"150 206 LINE",
"297 0 LINE",
"402 0 LINE",
"211 250 LINE",
"404 500 LINE"
);
}
);
width = 396;
},
{
associatedMasterId = "0AA1BC64-CAAD-4CC7-A9F9-D02EEAE6C823";
layerId = "83A30A24-740C-4C51-BAED-192AF6114A35";
name = "Medium{85,100}";
paths = (
{
closed = 1;
nodes = (
"299 500 LINE",
"150 297 LINE",
"150 700 LINE",
"66 700 LINE",
"66 0 LINE",
"150 0 LINE",
"150 206 LINE",
"297 0 LINE",
"402 0 LINE",
"211 250 LINE",
"404 500 LINE"
);
}
);
width = 396;
},
{
layerId = "BFB8CE7D-EB78-4D14-82B8-6F5DF8ED4559";
paths = (
{
closed = 1;
nodes = (
"274 500 LINE",
"134 303 LINE",
"134 700 LINE",
"40 700 LINE",
"40 0 LINE",
"134 0 LINE",
"134 198 LINE",
"272 0 LINE",
"387 0 LINE",
"200 250 LINE",
"389 500 LINE"
);
}
);
width = 389;
}
);
leftKerningGroup = b;
rightKerningGroup = k;
unicode = 006B;
},
{
glyphname = l;
lastChange = "2016-11-12 10:01:07 +0000";
layers = (
{
layerId = "262880E7-CFE1-4BDA-902E-E24798F3240A";
paths = (
{
closed = 1;
nodes = (
"122 0 LINE",
"122 700 LINE",
"100 700 LINE",
"100 0 LINE"
);
}
);
width = 222;
},
{
layerId = "4E2227F3-52E4-4048-A8EE-327B486EF0A4";
paths = (
{
closed = 1;
nodes = (
"208 0 LINE",
"208 700 LINE",
"20 700 LINE",
"20 0 LINE"
);
}
);
width = 228;
},
{
layerId = "BFB8CE7D-EB78-4D14-82B8-6F5DF8ED4559";
paths = (
{
closed = 1;
nodes = (
"135 0 LINE",
"135 700 LINE",
"40 700 LINE",
"40 0 LINE"
);
}
);
width = 175;
}
);
leftKerningGroup = l;
rightKerningGroup = l;
unicode = 006C;
},
{
color = 4;
glyphname = m;
lastChange = "2016-11-12 10:01:07 +0000";
layers = (
{
layerId = "262880E7-CFE1-4BDA-902E-E24798F3240A";
paths = (
{
closed = 1;
nodes = (
"722 0 LINE",
"722 344 LINE SMOOTH",
"722 443 OFFCURVE",
"663 504 OFFCURVE",
"568 504 CURVE SMOOTH",
"466 504 OFFCURVE",
"403 443 OFFCURVE",
"403 343 CURVE",
"422 343 LINE",
"421 428 OFFCURVE",
"476 483 OFFCURVE",
"566 483 CURVE SMOOTH",
"649 483 OFFCURVE",
"700 429 OFFCURVE",
"700 341 CURVE SMOOTH",
"700 0 LINE"
);
},
{
closed = 1;
nodes = (
"422 0 LINE",
"422 344 LINE SMOOTH",
"422 443 OFFCURVE",
"363 504 OFFCURVE",
"268 504 CURVE SMOOTH",
"166 504 OFFCURVE",
"104 443 OFFCURVE",
"104 343 CURVE",
"122 343 LINE",
"122 430 OFFCURVE",
"177 483 OFFCURVE",
"266 483 CURVE SMOOTH",
"349 483 OFFCURVE",
"400 429 OFFCURVE",
"400 341 CURVE SMOOTH",
"400 0 LINE"
);
},
{
closed = 1;
nodes = (
"122 0 LINE",
"122 500 LINE",
"100 500 LINE",
"100 0 LINE"
);
}
);
width = 812;
},
{
layerId = "4E2227F3-52E4-4048-A8EE-327B486EF0A4";
paths = (
{
closed = 1;
nodes = (
"700 0 LINE",
"700 328 LINE SMOOTH",
"700 439 OFFCURVE",
"656 508 OFFCURVE",
"551 508 CURVE SMOOTH",
"508 508 OFFCURVE",
"413 501 OFFCURVE",
"417 303 CURVE",
"454 303 LINE",
"454 323 OFFCURVE",
"466 336 OFFCURVE",
"483 336 CURVE SMOOTH",
"500 336 OFFCURVE",
"512 323 OFFCURVE",
"512 303 CURVE SMOOTH",
"512 0 LINE"
);
},
{
closed = 1;
nodes = (
"454 0 LINE",
"454 328 LINE SMOOTH",
"454 439 OFFCURVE",
"410 508 OFFCURVE",
"305 508 CURVE SMOOTH",
"262 508 OFFCURVE",
"167 501 OFFCURVE",
"171 303 CURVE",
"208 303 LINE",
"208 323 OFFCURVE",
"220 336 OFFCURVE",
"237 336 CURVE SMOOTH",
"254 336 OFFCURVE",
"266 323 OFFCURVE",
"266 303 CURVE SMOOTH",
"266 0 LINE"
);
},
{
closed = 1;
nodes = (
"208 0 LINE",
"208 500 LINE",
"20 500 LINE",
"20 0 LINE"
);
}
);
width = 718;
},
{
associatedMasterId = "4E2227F3-52E4-4048-A8EE-327B486EF0A4";
layerId = "961AB543-9FF0-4CF5-B80B-C173A7EDBD24";
name = "Medium{95,100}";
paths = (
{
closed = 1;
nodes = (
"707 0 LINE",
"707 339 LINE SMOOTH",
"707 443 OFFCURVE",
"648 507 OFFCURVE",
"549 507 CURVE SMOOTH",
"470 507 OFFCURVE",
"377 469 OFFCURVE",
"379 327 CURVE",
"425 327 LINE",
"425 385 OFFCURVE",
"463 421 OFFCURVE",
"522 421 CURVE SMOOTH",
"576 421 OFFCURVE",
"613 385 OFFCURVE",
"613 326 CURVE SMOOTH",
"613 0 LINE"
);
},
{
closed = 1;
nodes = (
"425 0 LINE",
"425 339 LINE SMOOTH",
"425 443 OFFCURVE",
"366 507 OFFCURVE",
"267 507 CURVE SMOOTH",
"188 507 OFFCURVE",
"95 469 OFFCURVE",
"97 327 CURVE",
"143 327 LINE",
"143 385 OFFCURVE",
"181 421 OFFCURVE",
"240 421 CURVE SMOOTH",
"294 421 OFFCURVE",
"331 385 OFFCURVE",
"331 326 CURVE SMOOTH",
"331 0 LINE"
);
},
{
closed = 1;
nodes = (
"143 0 LINE",
"143 500 LINE",
"49 500 LINE",
"49 0 LINE"
);
}
);
width = 750;
},
{
associatedMasterId = "0AA1BC64-CAAD-4CC7-A9F9-D02EEAE6C823";
layerId = "1B1B7757-2B0A-43D0-B891-AF22DEC25606";
name = "Medium{95,100}";
paths = (
{
closed = 1;
nodes = (
"707 0 LINE",
"707 339 LINE SMOOTH",
"707 443 OFFCURVE",
"648 507 OFFCURVE",
"549 507 CURVE SMOOTH",
"470 507 OFFCURVE",
"377 469 OFFCURVE",
"379 327 CURVE",
"425 327 LINE",
"425 385 OFFCURVE",
"463 421 OFFCURVE",
"522 421 CURVE SMOOTH",
"576 421 OFFCURVE",
"613 385 OFFCURVE",
"613 326 CURVE SMOOTH",
"613 0 LINE"
);
},
{
closed = 1;
nodes = (
"425 0 LINE",
"425 339 LINE SMOOTH",
"425 443 OFFCURVE",
"366 507 OFFCURVE",
"267 507 CURVE SMOOTH",
"188 507 OFFCURVE",
"95 469 OFFCURVE",
"97 327 CURVE",
"143 327 LINE",
"143 385 OFFCURVE",
"181 421 OFFCURVE",
"240 421 CURVE SMOOTH",
"294 421 OFFCURVE",
"331 385 OFFCURVE",
"331 326 CURVE SMOOTH",
"331 0 LINE"
);
},
{
closed = 1;
nodes = (
"143 0 LINE",
"143 500 LINE",
"49 500 LINE",
"49 0 LINE"
);
}
);
width = 750;
},
{
layerId = "BFB8CE7D-EB78-4D14-82B8-6F5DF8ED4559";
paths = (
{
closed = 1;
nodes = (
"698 0 LINE",
"698 339 LINE SMOOTH",
"698 443 OFFCURVE",
"639 507 OFFCURVE",
"540 507 CURVE SMOOTH",
"461 507 OFFCURVE",
"368 469 OFFCURVE",
"370 319 CURVE",
"416 319 LINE",
"416 377 OFFCURVE",
"454 413 OFFCURVE",
"513 413 CURVE SMOOTH",
"567 413 OFFCURVE",
"604 377 OFFCURVE",
"604 318 CURVE SMOOTH",
"604 0 LINE"
);
},
{
closed = 1;
nodes = (
"416 0 LINE",
"416 339 LINE SMOOTH",
"416 443 OFFCURVE",
"357 507 OFFCURVE",
"258 507 CURVE SMOOTH",
"179 507 OFFCURVE",
"86 469 OFFCURVE",
"88 319 CURVE",
"134 319 LINE",
"134 377 OFFCURVE",
"172 413 OFFCURVE",
"231 413 CURVE SMOOTH",
"285 413 OFFCURVE",
"322 377 OFFCURVE",
"322 318 CURVE SMOOTH",
"322 0 LINE"
);
},
{
closed = 1;
nodes = (
"134 0 LINE",
"134 500 LINE",
"40 500 LINE",
"40 0 LINE"
);
}
);
width = 734;
}
);
leftKerningGroup = m;
rightKerningGroup = h;
unicode = 006D;
},
{
color = 4;
glyphname = n;
lastChange = "2016-11-12 10:01:07 +0000";
layers = (
{
layerId = "262880E7-CFE1-4BDA-902E-E24798F3240A";
paths = (
{
closed = 1;
nodes = (
"432 0 LINE",
"432 347 LINE SMOOTH",
"432 446 OFFCURVE",
"367 507 OFFCURVE",
"272 507 CURVE SMOOTH",
"170 507 OFFCURVE",
"104 448 OFFCURVE",
"104 346 CURVE",
"122 346 LINE",
"122 433 OFFCURVE",
"181 486 OFFCURVE",
"270 486 CURVE SMOOTH",
"353 486 OFFCURVE",
"410 432 OFFCURVE",
"410 344 CURVE SMOOTH",
"410 0 LINE"
);
},
{
closed = 1;
nodes = (
"122 0 LINE",
"122 500 LINE",
"100 500 LINE",
"100 0 LINE"
);
}
);
width = 522;
},
{
layerId = "4E2227F3-52E4-4048-A8EE-327B486EF0A4";
paths = (
{
closed = 1;
nodes = (
"454 0 LINE",
"454 328 LINE SMOOTH",
"454 439 OFFCURVE",
"410 508 OFFCURVE",
"305 508 CURVE SMOOTH",
"262 508 OFFCURVE",
"170 500 OFFCURVE",
"171 315 CURVE",
"208 315 LINE",
"208 334 OFFCURVE",
"220 347 OFFCURVE",
"238 347 CURVE SMOOTH",
"255 347 OFFCURVE",
"266 334 OFFCURVE",
"266 315 CURVE SMOOTH",
"266 0 LINE"
);
},
{
closed = 1;
nodes = (
"208 0 LINE",
"208 500 LINE",
"20 500 LINE",
"20 0 LINE"
);
}
);
width = 472;
},
{
associatedMasterId = "0AA1BC64-CAAD-4CC7-A9F9-D02EEAE6C823";
layerId = "8DF595EC-D94A-4FD2-B88C-3F249F3EE58C";
name = "Medium{95,100}";
paths = (
{
closed = 1;
nodes = (
"442 0 LINE",
"442 339 LINE SMOOTH",
"442 443 OFFCURVE",
"383 507 OFFCURVE",
"283 507 CURVE SMOOTH",
"207 507 OFFCURVE",
"119 477 OFFCURVE",
"119 332 CURVE",
"160 332 LINE",
"160 390 OFFCURVE",
"198 425 OFFCURVE",
"256 425 CURVE SMOOTH",
"310 425 OFFCURVE",
"347 389 OFFCURVE",
"347 331 CURVE SMOOTH",
"347 0 LINE"
);
},
{
closed = 1;
nodes = (
"160 0 LINE",
"160 500 LINE",
"65 500 LINE",
"65 0 LINE"
);
}
);
width = 494;
},
{
layerId = "BFB8CE7D-EB78-4D14-82B8-6F5DF8ED4559";
paths = (
{
closed = 1;
nodes = (
"417 0 LINE",
"417 339 LINE SMOOTH",
"417 443 OFFCURVE",
"358 507 OFFCURVE",
"258 507 CURVE SMOOTH",
"182 507 OFFCURVE",
"94 477 OFFCURVE",
"94 324 CURVE",
"135 324 LINE",
"135 382 OFFCURVE",
"173 417 OFFCURVE",
"231 417 CURVE SMOOTH",
"285 417 OFFCURVE",
"322 381 OFFCURVE",
"322 323 CURVE SMOOTH",
"322 0 LINE"
);
},
{
closed = 1;
nodes = (
"135 0 LINE",
"135 500 LINE",
"40 500 LINE",
"40 0 LINE"
);
}
);
width = 453;
}
);
leftKerningGroup = m;
rightKerningGroup = h;
unicode = 006E;
},
{
color = 4;
glyphname = o;
lastChange = "2016-11-12 09:55:46 +0000";
layers = (
{
guideLines = (
{
angle = 180;
position = "{241, 250}";
showMeasurement = 1;
},
{
angle = 120;
position = "{241, 250}";
showMeasurement = 1;
},
{
angle = 60;
position = "{241, 250}";
showMeasurement = 1;
}
);
layerId = "262880E7-CFE1-4BDA-902E-E24798F3240A";
paths = (
{
closed = 1;
nodes = (
"344 -8 OFFCURVE",
"412 58 OFFCURVE",
"412 158 CURVE SMOOTH",
"412 342 LINE SMOOTH",
"412 442 OFFCURVE",
"344 508 OFFCURVE",
"241 508 CURVE SMOOTH",
"138 508 OFFCURVE",
"70 442 OFFCURVE",
"70 342 CURVE SMOOTH",
"70 158 LINE SMOOTH",
"70 58 OFFCURVE",
"138 -8 OFFCURVE",
"241 -8 CURVE SMOOTH"
);
},
{
closed = 1;
nodes = (
"152 13 OFFCURVE",
"92 70 OFFCURVE",
"92 155 CURVE SMOOTH",
"92 345 LINE SMOOTH",
"92 430 OFFCURVE",
"152 487 OFFCURVE",
"241 487 CURVE SMOOTH",
"330 487 OFFCURVE",
"390 430 OFFCURVE",
"390 345 CURVE SMOOTH",
"390 155 LINE SMOOTH",
"390 70 OFFCURVE",
"330 13 OFFCURVE",
"241 13 CURVE SMOOTH"
);
}
);
width = 482;
},
{
layerId = "4E2227F3-52E4-4048-A8EE-327B486EF0A4";
paths = (
{
closed = 1;
nodes = (
"366 -7 OFFCURVE",
"454 59 OFFCURVE",
"454 172 CURVE SMOOTH",
"454 328 LINE SMOOTH",
"454 442 OFFCURVE",
"366 508 OFFCURVE",
"234 508 CURVE SMOOTH",
"102 508 OFFCURVE",
"14 442 OFFCURVE",
"14 328 CURVE SMOOTH",
"14 172 LINE SMOOTH",
"14 59 OFFCURVE",
"102 -7 OFFCURVE",
"234 -7 CURVE SMOOTH"
);
},
{
closed = 1;
nodes = (
"215 153 OFFCURVE",
"202 166 OFFCURVE",
"202 185 CURVE SMOOTH",
"202 315 LINE SMOOTH",
"202 334 OFFCURVE",
"215 347 OFFCURVE",
"234 347 CURVE SMOOTH",
"253 347 OFFCURVE",
"266 334 OFFCURVE",
"266 315 CURVE SMOOTH",
"266 185 LINE SMOOTH",
"266 166 OFFCURVE",
"253 153 OFFCURVE",
"234 153 CURVE SMOOTH"
);
}
);
width = 468;
},
{
layerId = "BFB8CE7D-EB78-4D14-82B8-6F5DF8ED4559";
paths = (
{
closed = 1;
nodes = (
"335 -8 OFFCURVE",
"412 61 OFFCURVE",
"412 164 CURVE SMOOTH",
"412 336 LINE SMOOTH",
"412 439 OFFCURVE",
"335 508 OFFCURVE",
"220 508 CURVE SMOOTH",
"105 508 OFFCURVE",
"28 439 OFFCURVE",
"28 336 CURVE SMOOTH",
"28 164 LINE SMOOTH",
"28 61 OFFCURVE",
"105 -8 OFFCURVE",
"220 -8 CURVE SMOOTH"
);
},
{
closed = 1;
nodes = (
"161 82 OFFCURVE",
"122 120 OFFCURVE",
"122 176 CURVE SMOOTH",
"122 324 LINE SMOOTH",
"122 380 OFFCURVE",
"161 418 OFFCURVE",
"220 418 CURVE SMOOTH",
"279 418 OFFCURVE",
"318 380 OFFCURVE",
"318 324 CURVE SMOOTH",
"318 176 LINE SMOOTH",
"318 120 OFFCURVE",
"279 82 OFFCURVE",
"220 82 CURVE SMOOTH"
);
}
);
width = 440;
}
);
unicode = 006F;
},
{
color = 4;
glyphname = r;
lastChange = "2016-11-12 10:03:23 +0000";
layers = (
{
layerId = "262880E7-CFE1-4BDA-902E-E24798F3240A";
paths = (
{
closed = 1;
nodes = (
"112 341 LINE",
"112 429 OFFCURVE",
"169 479 OFFCURVE",
"251 479 CURVE SMOOTH",
"276 479 OFFCURVE",
"291 474 OFFCURVE",
"306 466 CURVE",
"317 489 LINE",
"300 498 OFFCURVE",
"282 504 OFFCURVE",
"252 504 CURVE SMOOTH",
"158 504 OFFCURVE",
"96 448 OFFCURVE",
"96 341 CURVE"
);
},
{
closed = 1;
nodes = (
"112 0 LINE",
"112 500 LINE",
"90 500 LINE",
"90 0 LINE"
);
}
);
width = 337;
},
{
layerId = "4E2227F3-52E4-4048-A8EE-327B486EF0A4";
paths = (
{
closed = 1;
nodes = (
"206 254 LINE",
"206 275 OFFCURVE",
"221 299 OFFCURVE",
"244 308 CURVE SMOOTH",
"270 318 OFFCURVE",
"309 314 OFFCURVE",
"319 306 CURVE",
"351 480 LINE",
"347 488 OFFCURVE",
"328 508 OFFCURVE",
"288 508 CURVE SMOOTH",
"212 508 OFFCURVE",
"155 424 OFFCURVE",
"155 254 CURVE"
);
},
{
closed = 1;
nodes = (
"206 1 LINE",
"206 501 LINE",
"18 501 LINE",
"18 1 LINE"
);
}
);
width = 343;
},
{
layerId = "BFB8CE7D-EB78-4D14-82B8-6F5DF8ED4559";
paths = (
{
closed = 1;
nodes = (
"130 299 LINE",
"130 358 OFFCURVE",
"170 393 OFFCURVE",
"225 400 CURVE SMOOTH",
"250 403 OFFCURVE",
"276 400 OFFCURVE",
"289 392 CURVE",
"309 485 LINE",
"298 494 OFFCURVE",
"279 506 OFFCURVE",
"245 506 CURVE SMOOTH",
"159 506 OFFCURVE",
"93 443 OFFCURVE",
"93 299 CURVE"
);
},
{
closed = 1;
nodes = (
"130 0 LINE",
"130 500 LINE",
"36 500 LINE",
"36 0 LINE"
);
}
);
width = 317;
}
);
leftKerningGroup = m;
rightKerningGroup = r;
unicode = 0072;
},
{
color = 4;
glyphname = s;
lastChange = "2016-11-12 09:55:46 +0000";
layers = (
{
layerId = "262880E7-CFE1-4BDA-902E-E24798F3240A";
paths = (
{
closed = 1;
nodes = (
"346 -4 OFFCURVE",
"406 43 OFFCURVE",
"406 123 CURVE SMOOTH",
"406 211 OFFCURVE",
"333 231 OFFCURVE",
"242 263 CURVE SMOOTH",
"149 295 OFFCURVE",
"104 317 OFFCURVE",
"104 378 CURVE SMOOTH",
"104 443 OFFCURVE",
"155 483 OFFCURVE",
"241 483 CURVE SMOOTH",
"330 483 OFFCURVE",
"382 441 OFFCURVE",
"382 369 CURVE SMOOTH",
"382 344 LINE",
"404 344 LINE",
"404 369 LINE SMOOTH",
"404 454 OFFCURVE",
"344 504 OFFCURVE",
"242 504 CURVE SMOOTH",
"141 504 OFFCURVE",
"82 456 OFFCURVE",
"82 378 CURVE SMOOTH",
"82 295 OFFCURVE",
"149 273 OFFCURVE",
"238 242 CURVE SMOOTH",
"333 209 OFFCURVE",
"384 189 OFFCURVE",
"384 123 CURVE SMOOTH",
"384 57 OFFCURVE",
"332 17 OFFCURVE",
"244 17 CURVE SMOOTH",
"155 17 OFFCURVE",
"102 57 OFFCURVE",
"102 126 CURVE SMOOTH",
"102 157 LINE",
"80 157 LINE",
"80 126 LINE SMOOTH",
"80 44 OFFCURVE",
"141 -4 OFFCURVE",
"244 -4 CURVE SMOOTH"
);
}
);
width = 486;
},
{
layerId = "4E2227F3-52E4-4048-A8EE-327B486EF0A4";
paths = (
{
closed = 1;
nodes = (
"366 -11 OFFCURVE",
"439 48 OFFCURVE",
"439 137 CURVE SMOOTH",
"439 211 OFFCURVE",
"388 262 OFFCURVE",
"276 294 CURVE SMOOTH",
"225 309 OFFCURVE",
"198 307 OFFCURVE",
"198 326 CURVE SMOOTH",
"198 337 OFFCURVE",
"206 345 OFFCURVE",
"225 345 CURVE SMOOTH",
"245 345 OFFCURVE",
"255 336 OFFCURVE",
"255 319 CURVE SMOOTH",
"255 318 LINE",
"430 318 LINE",
"430 318 LINE SMOOTH",
"430 445 OFFCURVE",
"361 510 OFFCURVE",
"224 510 CURVE SMOOTH",
"85 510 OFFCURVE",
"18 448 OFFCURVE",
"18 350 CURVE SMOOTH",
"18 263 OFFCURVE",
"69 212 OFFCURVE",
"179 185 CURVE SMOOTH",
"230 173 OFFCURVE",
"247 175 OFFCURVE",
"247 158 CURVE SMOOTH",
"247 146 OFFCURVE",
"239 139 OFFCURVE",
"222 139 CURVE SMOOTH",
"203 139 OFFCURVE",
"191 148 OFFCURVE",
"191 165 CURVE SMOOTH",
"191 166 LINE",
"16 166 LINE",
"16 166 LINE",
"16 49 OFFCURVE",
"85 -11 OFFCURVE",
"229 -11 CURVE SMOOTH"
);
}
);
width = 455;
},
{
associatedMasterId = "0AA1BC64-CAAD-4CC7-A9F9-D02EEAE6C823";
layerId = "118BB55B-E72E-45E9-A8EF-8B72259A45B3";
name = "Medium{85,100}";
paths = (
{
closed = 1;
nodes = (
"327 -4 OFFCURVE",
"396 45 OFFCURVE",
"396 134 CURVE SMOOTH",
"396 225 OFFCURVE",
"325 252 OFFCURVE",
"233 283 CURVE SMOOTH",
"159 308 OFFCURVE",
"114 321 OFFCURVE",
"114 368 CURVE SMOOTH",
"114 412 OFFCURVE",
"155 435 OFFCURVE",
"206 435 CURVE SMOOTH",
"268 435 OFFCURVE",
"309 402 OFFCURVE",
"309 350 CURVE SMOOTH",
"309 336 LINE",
"391 336 LINE",
"391 361 LINE SMOOTH",
"391 451 OFFCURVE",
"326 504 OFFCURVE",
"211 504 CURVE SMOOTH",
"98 504 OFFCURVE",
"32 453 OFFCURVE",
"32 366 CURVE SMOOTH",
"32 277 OFFCURVE",
"100 244 OFFCURVE",
"192 214 CURVE SMOOTH",
"260 192 OFFCURVE",
"310 181 OFFCURVE",
"310 133 CURVE SMOOTH",
"310 89 OFFCURVE",
"268 65 OFFCURVE",
"216 65 CURVE SMOOTH",
"153 65 OFFCURVE",
"110 100 OFFCURVE",
"110 150 CURVE SMOOTH",
"110 162 LINE",
"30 162 LINE",
"30 134 LINE SMOOTH",
"30 47 OFFCURVE",
"96 -4 OFFCURVE",
"213 -4 CURVE SMOOTH"
);
}
);
width = 426;
},
{
layerId = "BFB8CE7D-EB78-4D14-82B8-6F5DF8ED4559";
paths = (
{
closed = 1;
nodes = (
"336 -5 OFFCURVE",
"405 45 OFFCURVE",
"405 134 CURVE SMOOTH",
"405 231 OFFCURVE",
"316 258 OFFCURVE",
"239 282 CURVE SMOOTH",
"179 300 OFFCURVE",
"127 312 OFFCURVE",
"127 358 CURVE SMOOTH",
"127 396 OFFCURVE",
"165 415 OFFCURVE",
"213 415 CURVE SMOOTH",
"271 415 OFFCURVE",
"305 385 OFFCURVE",
"305 336 CURVE SMOOTH",
"305 334 LINE",
"400 334 LINE",
"400 357 LINE SMOOTH",
"400 450 OFFCURVE",
"334 505 OFFCURVE",
"217 505 CURVE SMOOTH",
"102 505 OFFCURVE",
"32 453 OFFCURVE",
"32 364 CURVE SMOOTH",
"32 275 OFFCURVE",
"98 239 OFFCURVE",
"166 215 CURVE SMOOTH",
"237 190 OFFCURVE",
"310 178 OFFCURVE",
"310 133 CURVE SMOOTH",
"310 91 OFFCURVE",
"270 82 OFFCURVE",
"222 82 CURVE SMOOTH",
"163 82 OFFCURVE",
"129 111 OFFCURVE",
"129 161 CURVE SMOOTH",
"129 162 LINE",
"34 162 LINE",
"34 137 LINE SMOOTH",
"34 47 OFFCURVE",
"100 -5 OFFCURVE",
"220 -5 CURVE SMOOTH"
);
}
);
width = 437;
}
);
leftKerningGroup = s;
rightKerningGroup = s;
unicode = 0073;
},
{
glyphname = t;
lastChange = "2016-11-12 10:03:04 +0000";
layers = (
{
layerId = "262880E7-CFE1-4BDA-902E-E24798F3240A";
paths = (
{
closed = 1;
nodes = (
"294 0 LINE",
"294 21 LINE",
"266 21 LINE SMOOTH",
"185 21 OFFCURVE",
"162 57 OFFCURVE",
"162 153 CURVE SMOOTH",
"162 610 LINE",
"140 610 LINE",
"140 153 LINE SMOOTH",
"140 43 OFFCURVE",
"172 0 OFFCURVE",
"266 0 CURVE SMOOTH"
);
},
{
closed = 1;
nodes = (
"294 479 LINE",
"294 500 LINE",
"66 500 LINE",
"66 479 LINE"
);
}
);
width = 354;
},
{
layerId = "4E2227F3-52E4-4048-A8EE-327B486EF0A4";
paths = (
{
closed = 1;
nodes = (
"287 5 LINE",
"287 169 LINE",
"286 169 LINE",
"233 164 OFFCURVE",
"231 172 OFFCURVE",
"231 221 CURVE SMOOTH",
"235 662 LINE",
"47 662 LINE",
"43 136 LINE SMOOTH",
"42 15 OFFCURVE",
"114 -21 OFFCURVE",
"286 5 CURVE"
);
},
{
closed = 1;
nodes = (
"286 340 LINE",
"286 500 LINE",
"0 500 LINE",
"0 340 LINE"
);
}
);
width = 299;
},
{
layerId = "BFB8CE7D-EB78-4D14-82B8-6F5DF8ED4559";
paths = (
{
closed = 1;
nodes = (
"261 2 LINE",
"261 86 LINE",
"245 86 LINE SMOOTH",
"176 83 OFFCURVE",
"162 107 OFFCURVE",
"162 183 CURVE SMOOTH",
"164 633 LINE",
"70 633 LINE",
"68 146 LINE SMOOTH",
"68 31 OFFCURVE",
"117 -9 OFFCURVE",
"245 2 CURVE SMOOTH"
);
},
{
closed = 1;
nodes = (
"261 418 LINE",
"261 500 LINE",
"8 500 LINE",
"8 418 LINE"
);
}
);
width = 285;
}
);
leftKerningGroup = t;
rightKerningGroup = t;
unicode = 0074;
},
{
glyphname = v;
lastChange = "2016-11-12 09:55:46 +0000";
layers = (
{
layerId = "262880E7-CFE1-4BDA-902E-E24798F3240A";
paths = (
{
closed = 1;
nodes = (
"231 0 LINE",
"400 500 LINE",
"375 500 LINE",
"220 33 LINE",
"65 500 LINE",
"40 500 LINE",
"209 0 LINE"
);
}
);
width = 440;
},
{
layerId = "4E2227F3-52E4-4048-A8EE-327B486EF0A4";
paths = (
{
closed = 1;
nodes = (
"337 -2 LINE",
"471 498 LINE",
"265 500 LINE",
"241 212 LINE",
"217 500 LINE",
"8 500 LINE",
"142 0 LINE"
);
}
);
width = 479;
},
{
layerId = "BFB8CE7D-EB78-4D14-82B8-6F5DF8ED4559";
paths = (
{
closed = 1;
nodes = (
"268 -1 LINE",
"422 499 LINE",
"318 500 LINE",
"220 111 LINE",
"122 500 LINE",
"16 500 LINE",
"170 0 LINE"
);
}
);
width = 438;
}
);
unicode = 0076;
},
{
color = 4;
glyphname = w;
lastChange = "2016-11-12 09:55:47 +0000";
layers = (
{
layerId = "262880E7-CFE1-4BDA-902E-E24798F3240A";
paths = (
{
closed = 1;
nodes = (
"205 0 LINE",
"334 461 LINE",
"464 0 LINE",
"486 0 LINE",
"628 500 LINE",
"606 500 LINE",
"476 27 LINE",
"346 500 LINE",
"325 500 LINE",
"195 27 LINE",
"65 500 LINE",
"40 500 LINE",
"183 0 LINE"
);
}
);
width = 668;
},
{
layerId = "4E2227F3-52E4-4048-A8EE-327B486EF0A4";
paths = (
{
closed = 1;
nodes = (
"301 -2 LINE",
"338 211 LINE",
"375 0 LINE",
"539 -2 LINE",
"677 498 LINE",
"491 500 LINE",
"447 232 LINE",
"413 500 LINE",
"275 500 LINE",
"241 232 LINE",
"197 500 LINE",
"8 500 LINE",
"146 0 LINE"
);
}
);
width = 685;
},
{
layerId = "BFB8CE7D-EB78-4D14-82B8-6F5DF8ED4559";
paths = (
{
closed = 1;
nodes = (
"247 -1 LINE",
"326 352 LINE",
"405 0 LINE",
"509 -1 LINE",
"639 499 LINE",
"546 500 LINE",
"463 116 LINE",
"375 500 LINE",
"283 500 LINE",
"195 116 LINE",
"113 500 LINE",
"16 500 LINE",
"147 0 LINE"
);
}
);
width = 655;
}
);
leftKerningGroup = w;
rightKerningGroup = w;
unicode = 0077;
},
{
glyphname = x;
lastChange = "2016-11-12 09:55:47 +0000";
layers = (
{
layerId = "262880E7-CFE1-4BDA-902E-E24798F3240A";
paths = (
{
closed = 1;
nodes = (
"65 0 LINE",
"224 233 LINE",
"383 0 LINE",
"408 0 LINE",
"235 250 LINE",
"408 500 LINE",
"383 500 LINE",
"224 267 LINE",
"65 500 LINE",
"40 500 LINE",
"213 250 LINE",
"40 0 LINE"
);
}
);
width = 448;
},
{
layerId = "4E2227F3-52E4-4048-A8EE-327B486EF0A4";
paths = (
{
closed = 1;
nodes = (
"206 0 LINE",
"241 98 LINE",
"276 0 LINE",
"474 0 LINE",
"328 250 LINE",
"474 500 LINE",
"276 500 LINE",
"241 408 LINE",
"206 500 LINE",
"8 500 LINE",
"154 250 LINE",
"8 0 LINE"
);
}
);
width = 482;
},
{
layerId = "BFB8CE7D-EB78-4D14-82B8-6F5DF8ED4559";
paths = (
{
closed = 1;
nodes = (
"117 0 LINE",
"221 174 LINE",
"326 0 LINE",
"427 0 LINE",
"266 250 LINE",
"427 500 LINE",
"326 500 LINE",
"221 329 LINE",
"117 500 LINE",
"16 500 LINE",
"177 250 LINE",
"16 0 LINE"
);
}
);
width = 443;
}
);
unicode = 0078;
},
{
glyphname = y;
lastChange = "2016-11-12 09:55:47 +0000";
layers = (
{
layerId = "262880E7-CFE1-4BDA-902E-E24798F3240A";
paths = (
{
closed = 1;
nodes = (
"135 -200 OFFCURVE",
"161 -188 OFFCURVE",
"204 -62 CURVE SMOOTH",
"394 500 LINE",
"372 500 LINE",
"215 27 LINE",
"52 500 LINE",
"30 500 LINE",
"205 0 LINE",
"157 -150 OFFCURVE",
"144 -181 OFFCURVE",
"67 -181 CURVE",
"67 -200 LINE"
);
}
);
width = 434;
},
{
layerId = "4E2227F3-52E4-4048-A8EE-327B486EF0A4";
paths = (
{
closed = 1;
nodes = (
"259 -198 OFFCURVE",
"291 -143 OFFCURVE",
"333 -2 CURVE",
"469 498 LINE",
"263 500 LINE",
"239 232 LINE",
"215 500 LINE",
"6 500 LINE",
"140 0 LINE",
"140 -21 OFFCURVE",
"141 -54 OFFCURVE",
"58 -52 CURVE",
"58 -198 LINE"
);
}
);
width = 477;
},
{
layerId = "BFB8CE7D-EB78-4D14-82B8-6F5DF8ED4559";
paths = (
{
closed = 1;
nodes = (
"181 -199 OFFCURVE",
"210 -168 OFFCURVE",
"252 -36 CURVE SMOOTH",
"419 499 LINE",
"316 500 LINE",
"217 116 LINE",
"115 500 LINE",
"12 500 LINE",
"169 0 LINE",
"142 -94 OFFCURVE",
"135 -126 OFFCURVE",
"55 -125 CURVE",
"55 -199 LINE"
);
}
);
width = 435;
}
);
unicode = 0079;
},
{
glyphname = z;
lastChange = "2016-11-12 09:55:47 +0000";
layers = (
{
layerId = "262880E7-CFE1-4BDA-902E-E24798F3240A";
paths = (
{
closed = 1;
nodes = (
"374 0 LINE",
"374 21 LINE",
"64 21 LINE",
"384 479 LINE",
"384 500 LINE",
"44 500 LINE",
"44 479 LINE",
"360 479 LINE",
"40 21 LINE",
"40 0 LINE"
);
}
);
width = 434;
},
{
layerId = "4E2227F3-52E4-4048-A8EE-327B486EF0A4";
paths = (
{
closed = 1;
nodes = (
"383 0 LINE",
"383 170 LINE",
"222 170 LINE",
"380 330 LINE",
"380 500 LINE",
"15 500 LINE",
"15 330 LINE",
"156 330 LINE",
"8 170 LINE",
"8 0 LINE"
);
}
);
width = 393;
},
{
layerId = "BFB8CE7D-EB78-4D14-82B8-6F5DF8ED4559";
paths = (
{
closed = 1;
nodes = (
"368 0 LINE",
"368 86 LINE",
"123 86 LINE",
"372 414 LINE",
"372 500 LINE",
"21 500 LINE",
"21 414 LINE",
"261 414 LINE",
"16 86 LINE",
"16 0 LINE"
);
}
);
width = 392;
}
);
leftKerningGroup = z;
unicode = 007A;
},
{
glyphname = one;
lastChange = "2016-11-12 08:56:22 +0000";
layers = (
{
layerId = "262880E7-CFE1-4BDA-902E-E24798F3240A";
paths = (
{
closed = 1;
nodes = (
"142 0 LINE",
"142 700 LINE",
"120 700 LINE",
"120 0 LINE"
);
},
{
closed = 1;
nodes = (
"79 647 LINE",
"120 679 LINE",
"120 700 LINE",
"79 668 LINE"
);
}
);
width = 260;
},
{
layerId = "4E2227F3-52E4-4048-A8EE-327B486EF0A4";
paths = (
{
closed = 1;
nodes = (
"242 0 LINE",
"242 700 LINE",
"54 700 LINE",
"54 0 LINE"
);
},
{
closed = 1;
nodes = (
"12 529 LINE",
"54 529 LINE",
"54 700 LINE",
"12 673 LINE"
);
}
);
width = 254;
},
{
layerId = "BFB8CE7D-EB78-4D14-82B8-6F5DF8ED4559";
paths = (
{
closed = 1;
nodes = (
"186 0 LINE",
"186 700 LINE",
"91 700 LINE",
"91 0 LINE"
);
},
{
closed = 1;
nodes = (
"50 596 LINE",
"91 614 LINE",
"91 700 LINE",
"50 670 LINE"
);
}
);
width = 257;
}
);
unicode = 0031;
},
{
glyphname = eight;
lastChange = "2016-11-12 10:05:24 +0000";
layers = (
{
layerId = "262880E7-CFE1-4BDA-902E-E24798F3240A";
paths = (
{
closed = 1;
nodes = (
"365 -18 OFFCURVE",
"420 36 OFFCURVE",
"420 141 CURVE SMOOTH",
"420 225 LINE SMOOTH",
"420 330 OFFCURVE",
"365 384 OFFCURVE",
"260 384 CURVE SMOOTH",
"155 384 OFFCURVE",
"100 330 OFFCURVE",
"100 225 CURVE SMOOTH",
"100 141 LINE SMOOTH",
"100 36 OFFCURVE",
"155 -18 OFFCURVE",
"260 -18 CURVE SMOOTH"
);
},
{
closed = 1;
nodes = (
"169 2 OFFCURVE",
"122 49 OFFCURVE",
"122 141 CURVE SMOOTH",
"122 225 LINE SMOOTH",
"122 317 OFFCURVE",
"169 365 OFFCURVE",
"260 365 CURVE SMOOTH",
"351 365 OFFCURVE",
"398 317 OFFCURVE",
"398 225 CURVE SMOOTH",
"398 141 LINE SMOOTH",
"398 49 OFFCURVE",
"351 2 OFFCURVE",
"260 2 CURVE SMOOTH"
);
},
{
closed = 1;
nodes = (
"365 364 OFFCURVE",
"420 418 OFFCURVE",
"420 523 CURVE SMOOTH",
"420 548 LINE SMOOTH",
"420 653 OFFCURVE",
"365 707 OFFCURVE",
"260 707 CURVE SMOOTH",
"155 707 OFFCURVE",
"100 653 OFFCURVE",
"100 548 CURVE SMOOTH",
"100 523 LINE SMOOTH",
"100 418 OFFCURVE",
"155 364 OFFCURVE",
"260 364 CURVE SMOOTH"
);
},
{
closed = 1;
nodes = (
"169 384 OFFCURVE",
"122 431 OFFCURVE",
"122 523 CURVE SMOOTH",
"122 548 LINE SMOOTH",
"122 640 OFFCURVE",
"169 688 OFFCURVE",
"260 688 CURVE SMOOTH",
"351 688 OFFCURVE",
"398 640 OFFCURVE",
"398 548 CURVE SMOOTH",
"398 523 LINE SMOOTH",
"398 431 OFFCURVE",
"351 384 OFFCURVE",
"260 384 CURVE SMOOTH"
);
}
);
width = 520;
},
{
layerId = "4E2227F3-52E4-4048-A8EE-327B486EF0A4";
paths = (
{
closed = 1;
nodes = (
"405 -8 OFFCURVE",
"494 69 OFFCURVE",
"494 194 CURVE SMOOTH",
"494 241 LINE SMOOTH",
"494 427 OFFCURVE",
"300 403 OFFCURVE",
"260 403 CURVE SMOOTH",
"220 403 OFFCURVE",
"26 427 OFFCURVE",
"26 241 CURVE SMOOTH",
"26 195 LINE SMOOTH",
"26 69 OFFCURVE",
"115 -8 OFFCURVE",
"260 -8 CURVE SMOOTH"
);
},
{
closed = 1;
nodes = (
"231 152 OFFCURVE",
"214 171 OFFCURVE",
"214 203 CURVE SMOOTH",
"214 239 LINE SMOOTH",
"214 271 OFFCURVE",
"231 290 OFFCURVE",
"260 290 CURVE",
"289 290 OFFCURVE",
"306 271 OFFCURVE",
"306 239 CURVE SMOOTH",
"306 203 LINE SMOOTH",
"306 171 OFFCURVE",
"289 152 OFFCURVE",
"260 152 CURVE SMOOTH"
);
},
{
closed = 1;
nodes = (
"365 294 OFFCURVE",
"494 339 OFFCURVE",
"494 486 CURVE SMOOTH",
"494 525 LINE SMOOTH",
"494 650 OFFCURVE",
"406 708 OFFCURVE",
"260 708 CURVE SMOOTH",
"115 708 OFFCURVE",
"26 651 OFFCURVE",
"26 525 CURVE SMOOTH",
"26 487 LINE SMOOTH",
"26 339 OFFCURVE",
"145 294 OFFCURVE",
"260 294 CURVE SMOOTH"
);
},
{
closed = 1;
nodes = (
"231 413 OFFCURVE",
"214 432 OFFCURVE",
"214 464 CURVE SMOOTH",
"214 497 LINE SMOOTH",
"214 529 OFFCURVE",
"231 548 OFFCURVE",
"260 548 CURVE SMOOTH",
"289 548 OFFCURVE",
"306 529 OFFCURVE",
"306 497 CURVE SMOOTH",
"306 464 LINE SMOOTH",
"306 432 OFFCURVE",
"289 413 OFFCURVE",
"260 413 CURVE SMOOTH"
);
}
);
width = 520;
},
{
layerId = "BFB8CE7D-EB78-4D14-82B8-6F5DF8ED4559";
paths = (
{
closed = 1;
nodes = (
"382 -14 OFFCURVE",
"452 50 OFFCURVE",
"452 164 CURVE SMOOTH",
"452 232 LINE SMOOTH",
"452 372 OFFCURVE",
"337 392 OFFCURVE",
"260 392 CURVE SMOOTH",
"183 392 OFFCURVE",
"68 372 OFFCURVE",
"68 232 CURVE SMOOTH",
"68 165 LINE SMOOTH",
"68 50 OFFCURVE",
"138 -14 OFFCURVE",
"260 -14 CURVE SMOOTH"
);
},
{
closed = 1;
nodes = (
"196 67 OFFCURVE",
"162 102 OFFCURVE",
"162 168 CURVE SMOOTH",
"162 231 LINE SMOOTH",
"162 297 OFFCURVE",
"196 332 OFFCURVE",
"260 332 CURVE SMOOTH",
"324 332 OFFCURVE",
"358 297 OFFCURVE",
"358 231 CURVE SMOOTH",
"358 168 LINE SMOOTH",
"358 102 OFFCURVE",
"324 67 OFFCURVE",
"260 67 CURVE SMOOTH"
);
},
{
closed = 1;
nodes = (
"365 333 OFFCURVE",
"452 384 OFFCURVE",
"452 507 CURVE SMOOTH",
"452 538 LINE SMOOTH",
"452 652 OFFCURVE",
"383 707 OFFCURVE",
"260 707 CURVE SMOOTH",
"138 707 OFFCURVE",
"68 652 OFFCURVE",
"68 538 CURVE SMOOTH",
"68 507 LINE SMOOTH",
"68 384 OFFCURVE",
"151 333 OFFCURVE",
"260 333 CURVE SMOOTH"
);
},
{
closed = 1;
nodes = (
"196 397 OFFCURVE",
"162 431 OFFCURVE",
"162 497 CURVE SMOOTH",
"162 526 LINE SMOOTH",
"162 592 OFFCURVE",
"196 627 OFFCURVE",
"260 627 CURVE SMOOTH",
"324 627 OFFCURVE",
"358 592 OFFCURVE",
"358 526 CURVE SMOOTH",
"358 497 LINE SMOOTH",
"358 431 OFFCURVE",
"324 397 OFFCURVE",
"260 397 CURVE SMOOTH"
);
}
);
width = 520;
}
);
unicode = 0038;
},
{
glyphname = colon;
lastChange = "2016-11-12 08:56:22 +0000";
layers = (
{
layerId = "262880E7-CFE1-4BDA-902E-E24798F3240A";
paths = (
{
closed = 1;
nodes = (
"181 350 OFFCURVE",
"200 368 OFFCURVE",
"200 391 CURVE SMOOTH",
"200 413 OFFCURVE",
"181 431 OFFCURVE",
"159 431 CURVE SMOOTH",
"137 431 OFFCURVE",
"118 413 OFFCURVE",
"118 391 CURVE SMOOTH",
"118 368 OFFCURVE",
"136 350 OFFCURVE",
"159 350 CURVE SMOOTH"
);
},
{
closed = 1;
nodes = (
"181 7 OFFCURVE",
"200 25 OFFCURVE",
"200 48 CURVE SMOOTH",
"200 70 OFFCURVE",
"181 88 OFFCURVE",
"159 88 CURVE SMOOTH",
"137 88 OFFCURVE",
"118 70 OFFCURVE",
"118 48 CURVE SMOOTH",
"118 25 OFFCURVE",
"136 7 OFFCURVE",
"159 7 CURVE SMOOTH"
);
}
);
width = 318;
},
{
layerId = "4E2227F3-52E4-4048-A8EE-327B486EF0A4";
paths = (
{
closed = 1;
nodes = (
"223 321 OFFCURVE",
"266 368 OFFCURVE",
"266 426 CURVE SMOOTH",
"266 484 OFFCURVE",
"214 530 OFFCURVE",
"161 530 CURVE SMOOTH",
"108 530 OFFCURVE",
"56 484 OFFCURVE",
"56 426 CURVE SMOOTH",
"56 368 OFFCURVE",
"99 321 OFFCURVE",
"161 321 CURVE SMOOTH"
);
},
{
closed = 1;
nodes = (
"223 0 OFFCURVE",
"266 47 OFFCURVE",
"266 105 CURVE SMOOTH",
"266 163 OFFCURVE",
"214 209 OFFCURVE",
"161 209 CURVE SMOOTH",
"108 209 OFFCURVE",
"56 163 OFFCURVE",
"56 105 CURVE SMOOTH",
"56 47 OFFCURVE",
"99 0 OFFCURVE",
"161 0 CURVE SMOOTH"
);
}
);
width = 318;
},
{
layerId = "BFB8CE7D-EB78-4D14-82B8-6F5DF8ED4559";
paths = (
{
closed = 1;
nodes = (
"199 337 OFFCURVE",
"229 368 OFFCURVE",
"229 406 CURVE SMOOTH",
"229 444 OFFCURVE",
"195 474 OFFCURVE",
"160 474 CURVE SMOOTH",
"124 474 OFFCURVE",
"91 444 OFFCURVE",
"91 406 CURVE SMOOTH",
"91 368 OFFCURVE",
"120 337 OFFCURVE",
"160 337 CURVE SMOOTH"
);
},
{
closed = 1;
nodes = (
"199 4 OFFCURVE",
"229 35 OFFCURVE",
"229 73 CURVE SMOOTH",
"229 111 OFFCURVE",
"195 141 OFFCURVE",
"160 141 CURVE SMOOTH",
"124 141 OFFCURVE",
"91 111 OFFCURVE",
"91 73 CURVE SMOOTH",
"91 35 OFFCURVE",
"120 4 OFFCURVE",
"160 4 CURVE SMOOTH"
);
}
);
width = 318;
}
);
leftKerningGroup = colon;
unicode = 003A;
},
{
glyphname = comma;
lastChange = "2016-11-12 08:56:22 +0000";
layers = (
{
layerId = "262880E7-CFE1-4BDA-902E-E24798F3240A";
paths = (
{
closed = 1;
nodes = (
"132 -66 LINE",
"187 153 LINE",
"165 153 LINE",
"110 -66 LINE"
);
}
);
width = 298;
},
{
layerId = "4E2227F3-52E4-4048-A8EE-327B486EF0A4";
paths = (
{
closed = 1;
nodes = (
"146 -111 LINE",
"209 160 LINE",
"41 160 LINE",
"24 -111 LINE"
);
}
);
width = 233;
},
{
layerId = "BFB8CE7D-EB78-4D14-82B8-6F5DF8ED4559";
paths = (
{
closed = 1;
nodes = (
"138 -86 LINE",
"197 156 LINE",
"111 156 LINE",
"72 -86 LINE"
);
}
);
width = 270;
}
);
leftKerningGroup = comma;
rightKerningGroup = comma;
unicode = 002C;
},
{
glyphname = exclam;
lastChange = "2016-11-12 08:56:22 +0000";
layers = (
{
layerId = "262880E7-CFE1-4BDA-902E-E24798F3240A";
paths = (
{
closed = 1;
nodes = (
"163 220 LINE",
"163 700 LINE",
"141 700 LINE",
"141 220 LINE"
);
},
{
closed = 1;
nodes = (
"171 5 OFFCURVE",
"190 23 OFFCURVE",
"190 46 CURVE SMOOTH",
"190 68 OFFCURVE",
"171 86 OFFCURVE",
"149 86 CURVE SMOOTH",
"127 86 OFFCURVE",
"108 68 OFFCURVE",
"108 46 CURVE SMOOTH",
"108 23 OFFCURVE",
"126 5 OFFCURVE",
"149 5 CURVE SMOOTH"
);
}
);
width = 302;
},
{
layerId = "4E2227F3-52E4-4048-A8EE-327B486EF0A4";
paths = (
{
closed = 1;
nodes = (
"225 248 LINE",
"245 700 LINE",
"57 700 LINE",
"77 248 LINE"
);
},
{
closed = 1;
nodes = (
"212 0 OFFCURVE",
"255 47 OFFCURVE",
"255 105 CURVE SMOOTH",
"255 163 OFFCURVE",
"203 209 OFFCURVE",
"150 209 CURVE SMOOTH",
"97 209 OFFCURVE",
"45 163 OFFCURVE",
"45 105 CURVE SMOOTH",
"45 47 OFFCURVE",
"88 0 OFFCURVE",
"150 0 CURVE SMOOTH"
);
}
);
width = 302;
},
{
layerId = "BFB8CE7D-EB78-4D14-82B8-6F5DF8ED4559";
paths = (
{
closed = 1;
nodes = (
"190 232 LINE",
"199 700 LINE",
"104 700 LINE",
"113 232 LINE"
);
},
{
closed = 1;
nodes = (
"189 3 OFFCURVE",
"218 33 OFFCURVE",
"218 72 CURVE SMOOTH",
"218 109 OFFCURVE",
"185 140 OFFCURVE",
"149 140 CURVE SMOOTH",
"114 140 OFFCURVE",
"81 109 OFFCURVE",
"81 72 CURVE SMOOTH",
"81 33 OFFCURVE",
"109 3 OFFCURVE",
"149 3 CURVE SMOOTH"
);
}
);
width = 302;
}
);
unicode = 0021;
},
{
glyphname = period;
lastChange = "2016-11-12 08:56:22 +0000";
layers = (
{
layerId = "262880E7-CFE1-4BDA-902E-E24798F3240A";
paths = (
{
closed = 1;
nodes = (
"181 7 OFFCURVE",
"200 25 OFFCURVE",
"200 48 CURVE SMOOTH",
"200 70 OFFCURVE",
"181 88 OFFCURVE",
"159 88 CURVE SMOOTH",
"137 88 OFFCURVE",
"118 70 OFFCURVE",
"118 48 CURVE SMOOTH",
"118 25 OFFCURVE",
"136 7 OFFCURVE",
"159 7 CURVE SMOOTH"
);
}
);
width = 320;
},
{
layerId = "4E2227F3-52E4-4048-A8EE-327B486EF0A4";
paths = (
{
closed = 1;
nodes = (
"211 -8 OFFCURVE",
"254 39 OFFCURVE",
"254 97 CURVE SMOOTH",
"254 155 OFFCURVE",
"202 201 OFFCURVE",
"149 201 CURVE SMOOTH",
"96 201 OFFCURVE",
"44 155 OFFCURVE",
"44 97 CURVE SMOOTH",
"44 39 OFFCURVE",
"87 -8 OFFCURVE",
"149 -8 CURVE SMOOTH"
);
}
);
width = 308;
},
{
layerId = "BFB8CE7D-EB78-4D14-82B8-6F5DF8ED4559";
paths = (
{
closed = 1;
nodes = (
"194 0 OFFCURVE",
"224 31 OFFCURVE",
"224 69 CURVE SMOOTH",
"224 107 OFFCURVE",
"190 137 OFFCURVE",
"155 137 CURVE SMOOTH",
"119 137 OFFCURVE",
"86 107 OFFCURVE",
"86 69 CURVE SMOOTH",
"86 31 OFFCURVE",
"115 0 OFFCURVE",
"155 0 CURVE SMOOTH"
);
}
);
width = 315;
}
);
leftKerningGroup = comma;
rightKerningGroup = comma;
unicode = 002E;
},
{
glyphname = question;
lastChange = "2016-11-12 08:56:22 +0000";
layers = (
{
layerId = "262880E7-CFE1-4BDA-902E-E24798F3240A";
paths = (
{
closed = 1;
nodes = (
"227 239 LINE",
"197 243 OFFCURVE",
"182 254 OFFCURVE",
"182 275 CURVE SMOOTH",
"182 346 OFFCURVE",
"363 378 OFFCURVE",
"363 546 CURVE SMOOTH",
"363 645 OFFCURVE",
"300 709 OFFCURVE",
"206 709 CURVE SMOOTH",
"111 709 OFFCURVE",
"47 645 OFFCURVE",
"47 550 CURVE SMOOTH",
"47 500 LINE",
"69 500 LINE",
"69 550 LINE SMOOTH",
"69 633 OFFCURVE",
"124 688 OFFCURVE",
"206 688 CURVE SMOOTH",
"287 688 OFFCURVE",
"341 633 OFFCURVE",
"341 549 CURVE SMOOTH",
"341 395 OFFCURVE",
"158 364 OFFCURVE",
"158 271 CURVE SMOOTH",
"158 235 OFFCURVE",
"186 213 OFFCURVE",
"227 215 CURVE"
);
},
{
closed = 1;
nodes = (
"213 5 OFFCURVE",
"232 23 OFFCURVE",
"232 46 CURVE SMOOTH",
"232 68 OFFCURVE",
"213 86 OFFCURVE",
"191 86 CURVE SMOOTH",
"169 86 OFFCURVE",
"150 68 OFFCURVE",
"150 46 CURVE SMOOTH",
"150 23 OFFCURVE",
"168 5 OFFCURVE",
"191 5 CURVE SMOOTH"
);
}
);
width = 413;
},
{
layerId = "4E2227F3-52E4-4048-A8EE-327B486EF0A4";
paths = (
{
closed = 1;
nodes = (
"390 226 LINE",
"391 244 OFFCURVE",
"391 243 OFFCURVE",
"391 275 CURVE SMOOTH",
"391 336 OFFCURVE",
"551 339 OFFCURVE",
"551 504 CURVE SMOOTH",
"551 627 OFFCURVE",
"461 710 OFFCURVE",
"320 710 CURVE SMOOTH",
"174 710 OFFCURVE",
"74 620 OFFCURVE",
"74 488 CURVE SMOOTH",
"74 478 LINE",
"262 469 LINE",
"262 488 LINE SMOOTH",
"262 517 OFFCURVE",
"281 539 OFFCURVE",
"315 539 CURVE SMOOTH",
"344 539 OFFCURVE",
"361 522 OFFCURVE",
"361 493 CURVE SMOOTH",
"361 407 OFFCURVE",
"205 434 OFFCURVE",
"205 280 CURVE SMOOTH",
"205 226 OFFCURVE",
"205 251 OFFCURVE",
"205 226 CURVE"
);
},
{
closed = 1;
nodes = (
"359 -5 OFFCURVE",
"404 38 OFFCURVE",
"404 91 CURVE SMOOTH",
"404 144 OFFCURVE",
"358 187 OFFCURVE",
"306 187 CURVE SMOOTH",
"254 187 OFFCURVE",
"209 144 OFFCURVE",
"209 90 CURVE SMOOTH",
"209 38 OFFCURVE",
"252 -5 OFFCURVE",
"305 -5 CURVE SMOOTH"
);
}
);
width = 601;
},
{
associatedMasterId = "4E2227F3-52E4-4048-A8EE-327B486EF0A4";
layerId = "B1339A08-5FBB-4B67-970F-755DF9380AA6";
name = "Demibold{110,100}";
paths = (
{
closed = 1;
nodes = (
"316 270 LINE",
"294 264 OFFCURVE",
"278 272 OFFCURVE",
"278 290 CURVE SMOOTH",
"278 349 OFFCURVE",
"462 356 OFFCURVE",
"462 525 CURVE SMOOTH",
"462 635 OFFCURVE",
"385 710 OFFCURVE",
"266 710 CURVE SMOOTH",
"145 710 OFFCURVE",
"61 632 OFFCURVE",
"61 517 CURVE SMOOTH",
"61 488 LINE",
"171 484 LINE",
"171 517 LINE SMOOTH",
"171 572 OFFCURVE",
"207 609 OFFCURVE",
"263 609 CURVE SMOOTH",
"317 609 OFFCURVE",
"352 574 OFFCURVE",
"352 520 CURVE SMOOTH",
"352 397 OFFCURVE",
"168 407 OFFCURVE",
"168 284 CURVE SMOOTH",
"168 223 OFFCURVE",
"214 182 OFFCURVE",
"313 192 CURVE"
);
},
{
closed = 1;
nodes = (
"290 0 OFFCURVE",
"323 31 OFFCURVE",
"323 70 CURVE SMOOTH",
"323 108 OFFCURVE",
"290 139 OFFCURVE",
"252 139 CURVE SMOOTH",
"214 139 OFFCURVE",
"181 109 OFFCURVE",
"181 69 CURVE SMOOTH",
"181 31 OFFCURVE",
"212 0 OFFCURVE",
"251 0 CURVE SMOOTH"
);
}
);
width = 512;
},
{
associatedMasterId = "4E2227F3-52E4-4048-A8EE-327B486EF0A4";
layerId = "C14457C2-F276-4340-890D-53E24F0C1826";
name = "Bold{135,100}";
paths = (
{
closed = 1;
nodes = (
"337 251 LINE",
"324 252 OFFCURVE",
"314 256 OFFCURVE",
"314 278 CURVE SMOOTH",
"314 343 OFFCURVE",
"491 350 OFFCURVE",
"491 518 CURVE SMOOTH",
"491 632 OFFCURVE",
"409 710 OFFCURVE",
"283 710 CURVE SMOOTH",
"154 710 OFFCURVE",
"65 628 OFFCURVE",
"65 508 CURVE SMOOTH",
"65 485 LINE",
"200 479 LINE",
"200 508 LINE SMOOTH",
"200 554 OFFCURVE",
"231 587 OFFCURVE",
"280 587 CURVE SMOOTH",
"326 587 OFFCURVE",
"355 557 OFFCURVE",
"355 511 CURVE SMOOTH",
"355 400 OFFCURVE",
"180 409 OFFCURVE",
"180 277 CURVE SMOOTH",
"180 217 OFFCURVE",
"206 203 OFFCURVE",
"271 202 CURVE"
);
},
{
closed = 1;
nodes = (
"312 -1 OFFCURVE",
"349 33 OFFCURVE",
"349 77 CURVE SMOOTH",
"349 120 OFFCURVE",
"312 154 OFFCURVE",
"269 154 CURVE SMOOTH",
"227 154 OFFCURVE",
"190 120 OFFCURVE",
"190 76 CURVE SMOOTH",
"190 33 OFFCURVE",
"225 -1 OFFCURVE",
"268 -1 CURVE SMOOTH"
);
}
);
width = 541;
},
{
associatedMasterId = "4E2227F3-52E4-4048-A8EE-327B486EF0A4";
layerId = "A4BFC20F-4117-485E-A885-06E8CEBBC244";
name = "ExtraBold{177,100}";
paths = (
{
closed = 1;
nodes = (
"373 218 LINE",
"374 232 OFFCURVE",
"374 230 OFFCURVE",
"374 259 CURVE SMOOTH",
"374 334 OFFCURVE",
"539 341 OFFCURVE",
"539 507 CURVE SMOOTH",
"539 628 OFFCURVE",
"450 710 OFFCURVE",
"312 710 CURVE SMOOTH",
"170 710 OFFCURVE",
"72 622 OFFCURVE",
"72 492 CURVE SMOOTH",
"72 479 LINE",
"249 471 LINE",
"249 492 LINE SMOOTH",
"249 525 OFFCURVE",
"271 549 OFFCURVE",
"308 549 CURVE SMOOTH",
"340 549 OFFCURVE",
"360 529 OFFCURVE",
"360 497 CURVE SMOOTH",
"360 406 OFFCURVE",
"201 412 OFFCURVE",
"201 265 CURVE SMOOTH",
"201 208 OFFCURVE",
"192 237 OFFCURVE",
"201 218 CURVE"
);
},
{
closed = 1;
nodes = (
"349 -4 OFFCURVE",
"393 37 OFFCURVE",
"393 88 CURVE SMOOTH",
"393 139 OFFCURVE",
"348 180 OFFCURVE",
"298 180 CURVE SMOOTH",
"248 180 OFFCURVE",
"205 139 OFFCURVE",
"205 87 CURVE SMOOTH",
"205 37 OFFCURVE",
"246 -4 OFFCURVE",
"297 -4 CURVE SMOOTH"
);
}
);
width = 589;
},
{
associatedMasterId = "0AA1BC64-CAAD-4CC7-A9F9-D02EEAE6C823";
layerId = "3464371A-E44C-4AEE-BA1F-217EB5998455";
name = "Demibold{110,100}";
paths = (
{
closed = 1;
nodes = (
"316 270 LINE",
"294 264 OFFCURVE",
"278 272 OFFCURVE",
"278 290 CURVE SMOOTH",
"278 349 OFFCURVE",
"462 356 OFFCURVE",
"462 525 CURVE SMOOTH",
"462 635 OFFCURVE",
"385 710 OFFCURVE",
"266 710 CURVE SMOOTH",
"145 710 OFFCURVE",
"61 632 OFFCURVE",
"61 517 CURVE SMOOTH",
"61 488 LINE",
"171 484 LINE",
"171 517 LINE SMOOTH",
"171 572 OFFCURVE",
"207 609 OFFCURVE",
"263 609 CURVE SMOOTH",
"317 609 OFFCURVE",
"352 574 OFFCURVE",
"352 520 CURVE SMOOTH",
"352 397 OFFCURVE",
"168 407 OFFCURVE",
"168 284 CURVE SMOOTH",
"168 223 OFFCURVE",
"214 182 OFFCURVE",
"313 192 CURVE"
);
},
{
closed = 1;
nodes = (
"290 0 OFFCURVE",
"323 31 OFFCURVE",
"323 70 CURVE SMOOTH",
"323 108 OFFCURVE",
"290 139 OFFCURVE",
"252 139 CURVE SMOOTH",
"214 139 OFFCURVE",
"181 109 OFFCURVE",
"181 69 CURVE SMOOTH",
"181 31 OFFCURVE",
"212 0 OFFCURVE",
"251 0 CURVE SMOOTH"
);
}
);
width = 512;
},
{
associatedMasterId = "0AA1BC64-CAAD-4CC7-A9F9-D02EEAE6C823";
layerId = "85017154-D86F-4680-98B4-972849682A5D";
name = "Bold{135,100}";
paths = (
{
closed = 1;
nodes = (
"337 251 LINE",
"324 252 OFFCURVE",
"314 256 OFFCURVE",
"314 278 CURVE SMOOTH",
"314 343 OFFCURVE",
"491 350 OFFCURVE",
"491 518 CURVE SMOOTH",
"491 632 OFFCURVE",
"409 710 OFFCURVE",
"283 710 CURVE SMOOTH",
"154 710 OFFCURVE",
"65 628 OFFCURVE",
"65 508 CURVE SMOOTH",
"65 485 LINE",
"200 479 LINE",
"200 508 LINE SMOOTH",
"200 554 OFFCURVE",
"231 587 OFFCURVE",
"280 587 CURVE SMOOTH",
"326 587 OFFCURVE",
"355 557 OFFCURVE",
"355 511 CURVE SMOOTH",
"355 400 OFFCURVE",
"180 409 OFFCURVE",
"180 277 CURVE SMOOTH",
"180 217 OFFCURVE",
"206 203 OFFCURVE",
"271 202 CURVE"
);
},
{
closed = 1;
nodes = (
"312 -1 OFFCURVE",
"349 33 OFFCURVE",
"349 77 CURVE SMOOTH",
"349 120 OFFCURVE",
"312 154 OFFCURVE",
"269 154 CURVE SMOOTH",
"227 154 OFFCURVE",
"190 120 OFFCURVE",
"190 76 CURVE SMOOTH",
"190 33 OFFCURVE",
"225 -1 OFFCURVE",
"268 -1 CURVE SMOOTH"
);
}
);
width = 541;
},
{
associatedMasterId = "0AA1BC64-CAAD-4CC7-A9F9-D02EEAE6C823";
layerId = "1E53892A-4A21-419C-BF2F-543F2EDA9BF4";
name = "ExtraBold{177,100}";
paths = (
{
closed = 1;
nodes = (
"373 218 LINE",
"374 232 OFFCURVE",
"374 230 OFFCURVE",
"374 259 CURVE SMOOTH",
"374 334 OFFCURVE",
"539 341 OFFCURVE",
"539 507 CURVE SMOOTH",
"539 628 OFFCURVE",
"450 710 OFFCURVE",
"312 710 CURVE SMOOTH",
"170 710 OFFCURVE",
"72 622 OFFCURVE",
"72 492 CURVE SMOOTH",
"72 479 LINE",
"249 471 LINE",
"249 492 LINE SMOOTH",
"249 525 OFFCURVE",
"271 549 OFFCURVE",
"308 549 CURVE SMOOTH",
"340 549 OFFCURVE",
"360 529 OFFCURVE",
"360 497 CURVE SMOOTH",
"360 406 OFFCURVE",
"201 412 OFFCURVE",
"201 265 CURVE SMOOTH",
"201 208 OFFCURVE",
"192 237 OFFCURVE",
"201 218 CURVE"
);
},
{
closed = 1;
nodes = (
"349 -4 OFFCURVE",
"393 37 OFFCURVE",
"393 88 CURVE SMOOTH",
"393 139 OFFCURVE",
"348 180 OFFCURVE",
"298 180 CURVE SMOOTH",
"248 180 OFFCURVE",
"205 139 OFFCURVE",
"205 87 CURVE SMOOTH",
"205 37 OFFCURVE",
"246 -4 OFFCURVE",
"297 -4 CURVE SMOOTH"
);
}
);
width = 589;
},
{
layerId = "BFB8CE7D-EB78-4D14-82B8-6F5DF8ED4559";
paths = (
{
closed = 1;
nodes = (
"301 265 LINE",
"277 260 OFFCURVE",
"261 269 OFFCURVE",
"261 287 CURVE SMOOTH",
"261 348 OFFCURVE",
"445 360 OFFCURVE",
"445 529 CURVE SMOOTH",
"445 637 OFFCURVE",
"370 710 OFFCURVE",
"256 710 CURVE SMOOTH",
"139 710 OFFCURVE",
"59 634 OFFCURVE",
"59 523 CURVE SMOOTH",
"59 490 LINE",
"153 487 LINE",
"153 523 LINE SMOOTH",
"153 583 OFFCURVE",
"193 623 OFFCURVE",
"253 623 CURVE SMOOTH",
"312 623 OFFCURVE",
"350 584 OFFCURVE",
"350 525 CURVE SMOOTH",
"350 397 OFFCURVE",
"166 400 OFFCURVE",
"166 282 CURVE SMOOTH",
"166 225 OFFCURVE",
"209 187 OFFCURVE",
"298 196 CURVE"
);
},
{
closed = 1;
nodes = (
"277 1 OFFCURVE",
"307 30 OFFCURVE",
"307 66 CURVE SMOOTH",
"307 101 OFFCURVE",
"277 130 OFFCURVE",
"241 130 CURVE SMOOTH",
"206 130 OFFCURVE",
"176 102 OFFCURVE",
"176 65 CURVE SMOOTH",
"176 30 OFFCURVE",
"204 1 OFFCURVE",
"241 1 CURVE SMOOTH"
);
}
);
width = 495;
}
);
unicode = 003F;
},
{
glyphname = quotedbl;
lastChange = "2016-11-12 10:07:40 +0000";
layers = (
{
layerId = "262880E7-CFE1-4BDA-902E-E24798F3240A";
paths = (
{
closed = 1;
nodes = (
"212 500 LINE",
"212 692 LINE",
"190 692 LINE",
"190 500 LINE"
);
},
{
closed = 1;
nodes = (
"102 500 LINE",
"102 692 LINE",
"80 692 LINE",
"80 500 LINE"
);
}
);
width = 292;
},
{
layerId = "4E2227F3-52E4-4048-A8EE-327B486EF0A4";
paths = (
{
closed = 1;
nodes = (
"384 460 LINE",
"404 700 LINE",
"226 700 LINE",
"246 460 LINE"
);
},
{
closed = 1;
nodes = (
"158 460 LINE",
"178 700 LINE",
"0 700 LINE",
"20 460 LINE"
);
}
);
width = 404;
},
{
layerId = "BFB8CE7D-EB78-4D14-82B8-6F5DF8ED4559";
paths = (
{
closed = 1;
nodes = (
"262 483 LINE",
"271 695 LINE",
"180 695 LINE",
"189 483 LINE"
);
},
{
closed = 1;
nodes = (
"101 483 LINE",
"110 695 LINE",
"20 695 LINE",
"29 483 LINE"
);
}
);
width = 291;
}
);
leftKerningGroup = quotedbl;
leftMetricsKey = "=quotesingle";
rightKerningGroup = quotedbl;
rightMetricsKey = "=quotesingle";
unicode = 0022;
},
{
glyphname = quotesingle;
lastChange = "2016-11-12 10:07:33 +0000";
layers = (
{
layerId = "262880E7-CFE1-4BDA-902E-E24798F3240A";
paths = (
{
closed = 1;
nodes = (
"102 507 LINE",
"102 697 LINE",
"80 697 LINE",
"80 507 LINE"
);
}
);
width = 182;
},
{
layerId = "4E2227F3-52E4-4048-A8EE-327B486EF0A4";
paths = (
{
closed = 1;
nodes = (
"168 460 LINE",
"188 700 LINE",
"0 700 LINE",
"20 460 LINE"
);
}
);
width = 188;
},
{
layerId = "BFB8CE7D-EB78-4D14-82B8-6F5DF8ED4559";
paths = (
{
closed = 1;
nodes = (
"106 486 LINE",
"114 698 LINE",
"20 698 LINE",
"29 486 LINE"
);
}
);
width = 134;
}
);
leftKerningGroup = quotedbl;
leftMetricsKey = "=n-20";
rightKerningGroup = quotedbl;
rightMetricsKey = "=|n-20";
unicode = 0027;
},
{
glyphname = semicolon;
lastChange = "2016-11-12 08:56:22 +0000";
layers = (
{
layerId = "262880E7-CFE1-4BDA-902E-E24798F3240A";
paths = (
{
closed = 1;
nodes = (
"136 -60 LINE",
"172 147 LINE",
"150 147 LINE",
"114 -60 LINE"
);
},
{
closed = 1;
nodes = (
"178 370 OFFCURVE",
"197 388 OFFCURVE",
"197 411 CURVE",
"197 433 OFFCURVE",
"178 451 OFFCURVE",
"156 451 CURVE SMOOTH",
"134 451 OFFCURVE",
"115 433 OFFCURVE",
"115 411 CURVE SMOOTH",
"115 388 OFFCURVE",
"133 370 OFFCURVE",
"156 370 CURVE SMOOTH"
);
}
);
width = 304;
},
{
layerId = "4E2227F3-52E4-4048-A8EE-327B486EF0A4";
paths = (
{
closed = 1;
nodes = (
"154 -111 LINE",
"217 160 LINE",
"49 160 LINE",
"32 -111 LINE"
);
},
{
closed = 1;
nodes = (
"191 291 OFFCURVE",
"234 338 OFFCURVE",
"234 396 CURVE SMOOTH",
"234 454 OFFCURVE",
"182 500 OFFCURVE",
"129 500 CURVE SMOOTH",
"76 500 OFFCURVE",
"24 454 OFFCURVE",
"24 396 CURVE SMOOTH",
"24 338 OFFCURVE",
"67 291 OFFCURVE",
"129 291 CURVE SMOOTH"
);
}
);
width = 258;
},
{
layerId = "BFB8CE7D-EB78-4D14-82B8-6F5DF8ED4559";
paths = (
{
closed = 1;
nodes = (
"144 -82 LINE",
"192 153 LINE",
"106 153 LINE",
"78 -82 LINE"
);
},
{
closed = 1;
nodes = (
"184 336 OFFCURVE",
"213 366 OFFCURVE",
"213 404 CURVE",
"213 442 OFFCURVE",
"180 472 OFFCURVE",
"144 472 CURVE SMOOTH",
"109 472 OFFCURVE",
"75 442 OFFCURVE",
"75 404 CURVE SMOOTH",
"75 366 OFFCURVE",
"104 336 OFFCURVE",
"144 336 CURVE SMOOTH"
);
}
);
width = 284;
}
);
leftKerningGroup = colon;
unicode = 003B;
},
{
glyphname = slash;
lastChange = "2016-11-12 08:56:22 +0000";
layers = (
{
layerId = "262880E7-CFE1-4BDA-902E-E24798F3240A";
paths = (
{
closed = 1;
nodes = (
"22 0 LINE",
"222 700 LINE",
"200 700 LINE",
"0 0 LINE"
);
}
);
width = 222;
},
{
layerId = "4E2227F3-52E4-4048-A8EE-327B486EF0A4";
paths = (
{
closed = 1;
nodes = (
"188 0 LINE",
"442 700 LINE",
"254 700 LINE",
"0 0 LINE"
);
}
);
width = 442;
},
{
layerId = "BFB8CE7D-EB78-4D14-82B8-6F5DF8ED4559";
paths = (
{
closed = 1;
nodes = (
"94 0 LINE",
"318 700 LINE",
"224 700 LINE",
"0 0 LINE"
);
}
);
width = 318;
}
);
unicode = 002F;
},
{
glyphname = emdash;
lastChange = "2016-11-12 08:56:22 +0000";
layers = (
{
layerId = "262880E7-CFE1-4BDA-902E-E24798F3240A";
paths = (
{
closed = 1;
nodes = (
"506 251 LINE",
"506 272 LINE",
"98 272 LINE",
"98 251 LINE"
);
}
);
width = 604;
},
{
layerId = "4E2227F3-52E4-4048-A8EE-327B486EF0A4";
paths = (
{
closed = 1;
nodes = (
"419 165 LINE",
"419 325 LINE",
"12 325 LINE",
"12 165 LINE"
);
}
);
width = 431;
},
{
layerId = "BFB8CE7D-EB78-4D14-82B8-6F5DF8ED4559";
paths = (
{
closed = 1;
nodes = (
"468 213 LINE",
"468 295 LINE",
"60 295 LINE",
"60 213 LINE"
);
}
);
width = 529;
}
);
leftKerningGroup = hyphen;
rightKerningGroup = hyphen;
unicode = 2014;
},
{
glyphname = hyphen;
lastChange = "2016-11-12 08:56:22 +0000";
layers = (
{
layerId = "262880E7-CFE1-4BDA-902E-E24798F3240A";
paths = (
{
closed = 1;
nodes = (
"356 251 LINE",
"356 272 LINE",
"98 272 LINE",
"98 251 LINE"
);
}
);
width = 454;
},
{
layerId = "4E2227F3-52E4-4048-A8EE-327B486EF0A4";
paths = (
{
closed = 1;
nodes = (
"359 165 LINE",
"359 325 LINE",
"72 325 LINE",
"72 165 LINE"
);
}
);
width = 454;
},
{
layerId = "BFB8CE7D-EB78-4D14-82B8-6F5DF8ED4559";
paths = (
{
closed = 1;
nodes = (
"357 213 LINE",
"357 295 LINE",
"87 295 LINE",
"87 213 LINE"
);
}
);
width = 454;
}
);
leftKerningGroup = hyphen;
rightKerningGroup = hyphen;
unicode = 002D;
},
{
glyphname = dollar;
lastChange = "2016-11-12 08:56:22 +0000";
layers = (
{
layerId = "262880E7-CFE1-4BDA-902E-E24798F3240A";
paths = (
{
closed = 1;
nodes = (
"349 -5 OFFCURVE",
"412 50 OFFCURVE",
"412 149 CURVE SMOOTH",
"412 255 OFFCURVE",
"339 307 OFFCURVE",
"257 361 CURVE SMOOTH",
"176 414 OFFCURVE",
"112 457 OFFCURVE",
"112 550 CURVE SMOOTH",
"112 634 OFFCURVE",
"164 684 OFFCURVE",
"248 684 CURVE SMOOTH",
"332 684 OFFCURVE",
"384 635 OFFCURVE",
"384 548 CURVE SMOOTH",
"384 500 LINE",
"406 500 LINE",
"406 550 LINE SMOOTH",
"406 650 OFFCURVE",
"346 705 OFFCURVE",
"248 705 CURVE SMOOTH",
"150 705 OFFCURVE",
"90 649 OFFCURVE",
"90 553 CURVE SMOOTH",
"90 446 OFFCURVE",
"165 394 OFFCURVE",
"243 342 CURVE SMOOTH",
"320 291 OFFCURVE",
"390 248 OFFCURVE",
"390 152 CURVE SMOOTH",
"390 67 OFFCURVE",
"335 15 OFFCURVE",
"250 15 CURVE SMOOTH",
"165 15 OFFCURVE",
"118 68 OFFCURVE",
"118 154 CURVE SMOOTH",
"118 200 LINE",
"96 200 LINE",
"96 150 LINE SMOOTH",
"96 50 OFFCURVE",
"152 -5 OFFCURVE",
"251 -5 CURVE SMOOTH"
);
},
{
closed = 1;
nodes = (
"265 -88 LINE",
"265 2 LINE",
"243 2 LINE",
"243 -88 LINE"
);
},
{
closed = 1;
nodes = (
"258 702 LINE",
"258 792 LINE",
"236 792 LINE",
"236 702 LINE"
);
}
);
width = 502;
},
{
layerId = "4E2227F3-52E4-4048-A8EE-327B486EF0A4";
paths = (
{
closed = 1;
nodes = (
"367 -8 OFFCURVE",
"456 70 OFFCURVE",
"456 187 CURVE SMOOTH",
"456 288 OFFCURVE",
"389 338 OFFCURVE",
"284 412 CURVE SMOOTH",
"217 459 OFFCURVE",
"197 475 OFFCURVE",
"197 508 CURVE SMOOTH",
"197 534 OFFCURVE",
"210 548 OFFCURVE",
"231 548 CURVE SMOOTH",
"252 548 OFFCURVE",
"266 534 OFFCURVE",
"266 514 CURVE SMOOTH",
"266 490 LINE",
"451 490 LINE",
"451 509 LINE SMOOTH",
"451 628 OFFCURVE",
"364 708 OFFCURVE",
"232 708 CURVE SMOOTH",
"99 708 OFFCURVE",
"12 628 OFFCURVE",
"12 510 CURVE SMOOTH",
"12 387 OFFCURVE",
"107 322 OFFCURVE",
"182 272 CURVE SMOOTH",
"252 225 OFFCURVE",
"271 211 OFFCURVE",
"271 186 CURVE SMOOTH",
"271 164 OFFCURVE",
"257 152 OFFCURVE",
"237 152 CURVE SMOOTH",
"216 152 OFFCURVE",
"202 166 OFFCURVE",
"202 188 CURVE SMOOTH",
"202 211 LINE",
"17 211 LINE",
"17 180 LINE SMOOTH",
"17 70 OFFCURVE",
"102 -8 OFFCURVE",
"235 -8 CURVE SMOOTH"
);
},
{
closed = 1;
nodes = (
"290 -64 LINE",
"290 57 LINE",
"175 57 LINE",
"175 -64 LINE"
);
},
{
closed = 1;
nodes = (
"290 653 LINE",
"290 774 LINE",
"176 774 LINE",
"176 653 LINE"
);
}
);
width = 468;
},
{
layerId = "BFB8CE7D-EB78-4D14-82B8-6F5DF8ED4559";
paths = (
{
closed = 1;
nodes = (
"357 -6 OFFCURVE",
"431 59 OFFCURVE",
"431 166 CURVE SMOOTH",
"431 269 OFFCURVE",
"361 321 OFFCURVE",
"269 383 CURVE SMOOTH",
"194 434 OFFCURVE",
"149 465 OFFCURVE",
"149 532 CURVE SMOOTH",
"149 590 OFFCURVE",
"184 625 OFFCURVE",
"241 625 CURVE SMOOTH",
"297 625 OFFCURVE",
"333 591 OFFCURVE",
"333 533 CURVE SMOOTH",
"333 496 LINE",
"426 496 LINE",
"426 532 LINE SMOOTH",
"426 640 OFFCURVE",
"354 706 OFFCURVE",
"241 706 CURVE SMOOTH",
"128 706 OFFCURVE",
"56 640 OFFCURVE",
"56 534 CURVE SMOOTH",
"56 420 OFFCURVE",
"140 363 OFFCURVE",
"216 311 CURVE SMOOTH",
"290 262 OFFCURVE",
"338 232 OFFCURVE",
"338 167 CURVE SMOOTH",
"338 109 OFFCURVE",
"301 75 OFFCURVE",
"244 75 CURVE SMOOTH",
"187 75 OFFCURVE",
"155 111 OFFCURVE",
"155 169 CURVE SMOOTH",
"155 205 LINE",
"62 205 LINE",
"62 163 LINE SMOOTH",
"62 59 OFFCURVE",
"130 -6 OFFCURVE",
"244 -6 CURVE SMOOTH"
);
},
{
closed = 1;
nodes = (
"276 -78 LINE",
"276 26 LINE",
"213 26 LINE",
"213 -78 LINE"
);
},
{
closed = 1;
nodes = (
"272 681 LINE",
"272 784 LINE",
"210 784 LINE",
"210 681 LINE"
);
}
);
width = 487;
}
);
unicode = 0024;
},
{
glyphname = at;
lastChange = "2016-11-12 08:56:22 +0000";
layers = (
{
layerId = "262880E7-CFE1-4BDA-902E-E24798F3240A";
paths = (
{
closed = 1;
nodes = (
"640 -71 OFFCURVE",
"802 92 OFFCURVE",
"802 290 CURVE SMOOTH",
"802 488 OFFCURVE",
"640 651 OFFCURVE",
"441 651 CURVE SMOOTH",
"242 651 OFFCURVE",
"80 488 OFFCURVE",
"80 290 CURVE SMOOTH",
"80 92 OFFCURVE",
"242 -71 OFFCURVE",
"441 -71 CURVE SMOOTH"
);
},
{
closed = 1;
nodes = (
"254 -50 OFFCURVE",
"102 102 OFFCURVE",
"102 290 CURVE SMOOTH",
"102 478 OFFCURVE",
"254 630 OFFCURVE",
"441 630 CURVE SMOOTH",
"628 630 OFFCURVE",
"780 478 OFFCURVE",
"780 290 CURVE SMOOTH",
"780 102 OFFCURVE",
"628 -50 OFFCURVE",
"441 -50 CURVE SMOOTH"
);
},
{
closed = 1;
nodes = (
"504 99 OFFCURVE",
"548 146 OFFCURVE",
"548 221 CURVE SMOOTH",
"548 363 LINE SMOOTH",
"548 438 OFFCURVE",
"504 485 OFFCURVE",
"432 485 CURVE SMOOTH",
"359 485 OFFCURVE",
"311 439 OFFCURVE",
"311 364 CURVE SMOOTH",
"311 220 LINE SMOOTH",
"311 145 OFFCURVE",
"359 99 OFFCURVE",
"432 99 CURVE SMOOTH"
);
},
{
closed = 1;
nodes = (
"367 115 OFFCURVE",
"328 155 OFFCURVE",
"328 220 CURVE SMOOTH",
"328 364 LINE SMOOTH",
"328 429 OFFCURVE",
"369 469 OFFCURVE",
"432 469 CURVE SMOOTH",
"496 469 OFFCURVE",
"537 429 OFFCURVE",
"537 364 CURVE SMOOTH",
"537 220 LINE SMOOTH",
"537 155 OFFCURVE",
"498 115 OFFCURVE",
"432 115 CURVE SMOOTH"
);
},
{
closed = 1;
nodes = (
"553 104 LINE",
"553 480 LINE",
"537 480 LINE",
"537 104 LINE"
);
}
);
width = 882;
},
{
layerId = "4E2227F3-52E4-4048-A8EE-327B486EF0A4";
paths = (
{
closed = 1;
nodes = (
"623 -62 OFFCURVE",
"782 96 OFFCURVE",
"782 292 CURVE SMOOTH",
"782 486 OFFCURVE",
"623 644 OFFCURVE",
"429 644 CURVE SMOOTH",
"235 644 OFFCURVE",
"77 486 OFFCURVE",
"77 292 CURVE SMOOTH",
"77 96 OFFCURVE",
"235 -62 OFFCURVE",
"429 -62 CURVE SMOOTH"
);
},
{
closed = 1;
nodes = (
"307 68 OFFCURVE",
"207 168 OFFCURVE",
"207 292 CURVE SMOOTH",
"207 414 OFFCURVE",
"307 514 OFFCURVE",
"429 514 CURVE SMOOTH",
"552 514 OFFCURVE",
"652 414 OFFCURVE",
"652 292 CURVE SMOOTH",
"652 168 OFFCURVE",
"552 68 OFFCURVE",
"429 68 CURVE SMOOTH"
);
},
{
closed = 1;
nodes = (
"452 137 OFFCURVE",
"490 181 OFFCURVE",
"490 241 CURVE SMOOTH",
"490 325 LINE SMOOTH",
"490 385 OFFCURVE",
"452 429 OFFCURVE",
"387 429 CURVE SMOOTH",
"342 429 OFFCURVE",
"303 406 OFFCURVE",
"303 345 CURVE SMOOTH",
"303 221 LINE SMOOTH",
"303 159 OFFCURVE",
"342 137 OFFCURVE",
"387 137 CURVE SMOOTH"
);
},
{
closed = 1;
nodes = (
"418 224 OFFCURVE",
"411 231 OFFCURVE",
"411 242 CURVE SMOOTH",
"411 326 LINE SMOOTH",
"411 337 OFFCURVE",
"418 344 OFFCURVE",
"427 344 CURVE SMOOTH",
"437 344 OFFCURVE",
"444 337 OFFCURVE",
"444 326 CURVE",
"444 242 LINE",
"444 231 OFFCURVE",
"437 224 OFFCURVE",
"427 224 CURVE SMOOTH"
);
},
{
closed = 1;
nodes = (
"551 141 LINE",
"551 426 LINE",
"444 426 LINE",
"444 141 LINE"
);
}
);
width = 862;
},
{
layerId = "BFB8CE7D-EB78-4D14-82B8-6F5DF8ED4559";
paths = (
{
closed = 1;
nodes = (
"633 -67 OFFCURVE",
"793 94 OFFCURVE",
"793 291 CURVE SMOOTH",
"793 487 OFFCURVE",
"633 648 OFFCURVE",
"436 648 CURVE SMOOTH",
"239 648 OFFCURVE",
"79 487 OFFCURVE",
"79 291 CURVE SMOOTH",
"79 94 OFFCURVE",
"239 -67 OFFCURVE",
"436 -67 CURVE SMOOTH"
);
},
{
closed = 1;
nodes = (
"277 1 OFFCURVE",
"148 131 OFFCURVE",
"148 291 CURVE SMOOTH",
"148 450 OFFCURVE",
"277 579 OFFCURVE",
"436 579 CURVE SMOOTH",
"595 579 OFFCURVE",
"724 450 OFFCURVE",
"724 291 CURVE SMOOTH",
"724 131 OFFCURVE",
"595 1 OFFCURVE",
"436 1 CURVE SMOOTH"
);
},
{
closed = 1;
nodes = (
"481 116 OFFCURVE",
"523 161 OFFCURVE",
"523 230 CURVE SMOOTH",
"523 346 LINE SMOOTH",
"523 415 OFFCURVE",
"481 461 OFFCURVE",
"412 461 CURVE SMOOTH",
"352 461 OFFCURVE",
"308 425 OFFCURVE",
"308 356 CURVE SMOOTH",
"308 220 LINE SMOOTH",
"308 151 OFFCURVE",
"352 116 OFFCURVE",
"412 116 CURVE SMOOTH"
);
},
{
closed = 1;
nodes = (
"389 163 OFFCURVE",
"364 188 OFFCURVE",
"364 230 CURVE SMOOTH",
"364 347 LINE SMOOTH",
"364 389 OFFCURVE",
"390 414 OFFCURVE",
"430 414 CURVE SMOOTH",
"470 414 OFFCURVE",
"496 389 OFFCURVE",
"496 347 CURVE SMOOTH",
"496 230 LINE SMOOTH",
"496 188 OFFCURVE",
"471 163 OFFCURVE",
"430 163 CURVE SMOOTH"
);
},
{
closed = 1;
nodes = (
"552 120 LINE",
"552 456 LINE",
"496 456 LINE",
"496 120 LINE"
);
}
);
width = 873;
}
);
unicode = 0040;
},
{
glyphname = copyright;
lastChange = "2016-11-12 08:56:22 +0000";
layers = (
{
layerId = "262880E7-CFE1-4BDA-902E-E24798F3240A";
paths = (
{
closed = 1;
nodes = (
"640 -71 OFFCURVE",
"802 92 OFFCURVE",
"802 290 CURVE SMOOTH",
"802 488 OFFCURVE",
"640 651 OFFCURVE",
"441 651 CURVE SMOOTH",
"242 651 OFFCURVE",
"80 488 OFFCURVE",
"80 290 CURVE SMOOTH",
"80 92 OFFCURVE",
"242 -71 OFFCURVE",
"441 -71 CURVE SMOOTH"
);
},
{
closed = 1;
nodes = (
"254 -50 OFFCURVE",
"102 102 OFFCURVE",
"102 290 CURVE SMOOTH",
"102 478 OFFCURVE",
"254 630 OFFCURVE",
"441 630 CURVE SMOOTH",
"628 630 OFFCURVE",
"780 478 OFFCURVE",
"780 290 CURVE SMOOTH",
"780 102 OFFCURVE",
"628 -50 OFFCURVE",
"441 -50 CURVE SMOOTH"
);
},
{
closed = 1;
nodes = (
"513 99 OFFCURVE",
"559 144 OFFCURVE",
"559 219 CURVE SMOOTH",
"559 221 LINE",
"543 221 LINE",
"543 219 LINE SMOOTH",
"543 154 OFFCURVE",
"504 114 OFFCURVE",
"438 114 CURVE SMOOTH",
"373 114 OFFCURVE",
"334 154 OFFCURVE",
"334 219 CURVE SMOOTH",
"334 363 LINE SMOOTH",
"334 429 OFFCURVE",
"375 468 OFFCURVE",
"438 468 CURVE SMOOTH",
"502 468 OFFCURVE",
"543 429 OFFCURVE",
"543 363 CURVE SMOOTH",
"543 362 LINE",
"559 362 LINE",
"559 363 LINE SMOOTH",
"559 438 OFFCURVE",
"513 483 OFFCURVE",
"438 483 CURVE SMOOTH",
"364 483 OFFCURVE",
"317 438 OFFCURVE",
"317 363 CURVE SMOOTH",
"317 219 LINE SMOOTH",
"317 144 OFFCURVE",
"364 99 OFFCURVE",
"438 99 CURVE SMOOTH"
);
}
);
width = 882;
},
{
layerId = "4E2227F3-52E4-4048-A8EE-327B486EF0A4";
paths = (
{
closed = 1;
nodes = (
"653 -2 OFFCURVE",
"812 156 OFFCURVE",
"812 352 CURVE SMOOTH",
"812 546 OFFCURVE",
"653 704 OFFCURVE",
"459 704 CURVE SMOOTH",
"265 704 OFFCURVE",
"107 546 OFFCURVE",
"107 352 CURVE SMOOTH",
"107 156 OFFCURVE",
"265 -2 OFFCURVE",
"459 -2 CURVE SMOOTH"
);
},
{
closed = 1;
nodes = (
"337 128 OFFCURVE",
"237 228 OFFCURVE",
"237 352 CURVE SMOOTH",
"237 474 OFFCURVE",
"337 574 OFFCURVE",
"459 574 CURVE SMOOTH",
"582 574 OFFCURVE",
"682 474 OFFCURVE",
"682 352 CURVE SMOOTH",
"682 228 OFFCURVE",
"582 128 OFFCURVE",
"459 128 CURVE SMOOTH"
);
},
{
closed = 1;
nodes = (
"536 204 OFFCURVE",
"584 248 OFFCURVE",
"584 312 CURVE SMOOTH",
"584 335 LINE",
"476 335 LINE",
"476 308 LINE SMOOTH",
"476 298 OFFCURVE",
"469 290 OFFCURVE",
"460 290 CURVE SMOOTH",
"450 290 OFFCURVE",
"443 298 OFFCURVE",
"443 308 CURVE SMOOTH",
"443 395 LINE SMOOTH",
"443 406 OFFCURVE",
"450 414 OFFCURVE",
"460 414 CURVE SMOOTH",
"469 414 OFFCURVE",
"476 406 OFFCURVE",
"476 395 CURVE SMOOTH",
"476 369 LINE",
"584 368 LINE",
"584 391 LINE SMOOTH",
"584 456 OFFCURVE",
"536 499 OFFCURVE",
"460 499 CURVE SMOOTH",
"383 499 OFFCURVE",
"336 456 OFFCURVE",
"336 391 CURVE SMOOTH",
"336 312 LINE SMOOTH",
"336 248 OFFCURVE",
"383 204 OFFCURVE",
"460 204 CURVE SMOOTH"
);
}
);
width = 882;
},
{
layerId = "BFB8CE7D-EB78-4D14-82B8-6F5DF8ED4559";
paths = (
{
closed = 1;
nodes = (
"646 -41 OFFCURVE",
"806 120 OFFCURVE",
"806 317 CURVE SMOOTH",
"806 513 OFFCURVE",
"646 674 OFFCURVE",
"449 674 CURVE SMOOTH",
"252 674 OFFCURVE",
"92 513 OFFCURVE",
"92 317 CURVE SMOOTH",
"92 120 OFFCURVE",
"252 -41 OFFCURVE",
"449 -41 CURVE SMOOTH"
);
},
{
closed = 1;
nodes = (
"290 28 OFFCURVE",
"161 157 OFFCURVE",
"161 317 CURVE SMOOTH",
"161 476 OFFCURVE",
"290 606 OFFCURVE",
"449 606 CURVE SMOOTH",
"608 606 OFFCURVE",
"737 476 OFFCURVE",
"737 317 CURVE SMOOTH",
"737 157 OFFCURVE",
"608 28 OFFCURVE",
"449 28 CURVE SMOOTH"
);
},
{
closed = 1;
nodes = (
"523 145 OFFCURVE",
"570 189 OFFCURVE",
"570 260 CURVE SMOOTH",
"570 271 LINE",
"514 271 LINE",
"514 258 LINE SMOOTH",
"514 217 OFFCURVE",
"489 191 OFFCURVE",
"448 191 CURVE SMOOTH",
"407 191 OFFCURVE",
"382 217 OFFCURVE",
"382 258 CURVE SMOOTH",
"382 377 LINE SMOOTH",
"382 419 OFFCURVE",
"408 444 OFFCURVE",
"448 444 CURVE SMOOTH",
"488 444 OFFCURVE",
"514 419 OFFCURVE",
"514 377 CURVE SMOOTH",
"514 365 LINE",
"570 365 LINE",
"570 375 LINE SMOOTH",
"570 446 OFFCURVE",
"523 490 OFFCURVE",
"448 490 CURVE SMOOTH",
"372 490 OFFCURVE",
"325 446 OFFCURVE",
"325 375 CURVE SMOOTH",
"325 260 LINE SMOOTH",
"325 189 OFFCURVE",
"372 145 OFFCURVE",
"448 145 CURVE SMOOTH"
);
}
);
width = 882;
}
);
unicode = 00A9;
},
{
glyphname = registered;
lastChange = "2016-11-12 08:56:22 +0000";
layers = (
{
layerId = "262880E7-CFE1-4BDA-902E-E24798F3240A";
paths = (
{
closed = 1;
nodes = (
"640 -72 OFFCURVE",
"802 91 OFFCURVE",
"802 289 CURVE SMOOTH",
"802 487 OFFCURVE",
"640 650 OFFCURVE",
"441 650 CURVE SMOOTH",
"242 650 OFFCURVE",
"80 487 OFFCURVE",
"80 289 CURVE SMOOTH",
"80 91 OFFCURVE",
"242 -72 OFFCURVE",
"441 -72 CURVE SMOOTH"
);
},
{
closed = 1;
nodes = (
"540.533 101 LINE",
"476 287.133 LINE",
"466.4 282.867 LINE",
"528.8 101 LINE"
);
},
{
closed = 1;
nodes = (
"254 -51 OFFCURVE",
"102 101 OFFCURVE",
"102 289 CURVE SMOOTH",
"102 477 OFFCURVE",
"254 629 OFFCURVE",
"441 629 CURVE SMOOTH",
"628 629 OFFCURVE",
"780 477 OFFCURVE",
"780 289 CURVE SMOOTH",
"780 101 OFFCURVE",
"628 -51 OFFCURVE",
"441 -51 CURVE SMOOTH"
);
},
{
closed = 1;
nodes = (
"369.867 101 LINE",
"369.867 463.667 LINE",
"466.4 463.667 LINE SMOOTH",
"511.2 463.667 OFFCURVE",
"541.067 429.533 OFFCURVE",
"541.067 378.333 CURVE SMOOTH",
"541.067 327.133 OFFCURVE",
"511.2 293 OFFCURVE",
"466.4 293 CURVE SMOOTH",
"367.2 293 LINE",
"367.2 282.333 LINE",
"465.333 282.333 LINE SMOOTH",
"517.6 282.333 OFFCURVE",
"552.267 320.2 OFFCURVE",
"552.267 378.333 CURVE SMOOTH",
"552.267 436.467 OFFCURVE",
"517.6 475.4 OFFCURVE",
"465.333 475.4 CURVE SMOOTH",
"357.6 475.4 LINE",
"357.6 101 LINE"
);
}
